<?xml version="1.0" encoding="UTF-8"?>
<svg id="Layer_1" xmlns="http://www.w3.org/2000/svg" version="1.1" viewBox="0 0 260.8 220.8">
  <!-- Generator: Adobe Illustrator 29.4.0, SVG Export Plug-In . SVG Version: 2.1.0 Build 152)  -->
  <path d="M196.6,98.5v-.4c0-.2,0-.4,0-.5,0-.2,0-.4,0-.6v-.4c0-.2,0-.4-.1-.5,0-.2,0-.4,0-.5v-.4c-.1-.2-.1-.4-.2-.6,0-.2,0-.3-.1-.5,0,0,0-.1,0-.2v-.2c-.1-.2-.2-.4-.2-.5,0-.2-.1-.4-.2-.5v-.2c-.1,0-.1-.1-.2-.2,0-.1-.1-.3-.2-.4-.2-.4-.4-.8-.7-1.2l-40.3-63.1c-1.7-2.6-4.2-4.2-7.1-4.4-3.5-.3-7.3,1.2-10.6,4.2-1.2.7-2.4,1.6-3.5,2.7-1.2.7-2.3,1.7-3.4,2.8-1.1.8-2.2,1.7-3.2,2.8-1.1.8-2.1,1.7-3,2.8-1,.8-2,1.7-2.8,2.8-1,.8-1.8,1.7-2.6,2.8-.9.8-1.7,1.8-2.4,2.8-.9.8-1.6,1.8-2.3,2.8-.8.8-1.5,1.8-2.1,2.8-.7.8-1.4,1.8-2,2.8-.7.8-1.3,1.7-1.8,2.8-.6.8-1.2,1.7-1.6,2.7-.6.8-1.1,1.7-1.5,2.7-.6.8-1,1.7-1.3,2.6-.5.8-.9,1.7-1.2,2.6-.5.8-.8,1.6-1.1,2.5-.4.8-.7,1.6-.9,2.5-.4.8-.7,1.6-.8,2.4-.3.8-.6,1.6-.7,2.4-.4,1-.6,2-.6,3.1,0,4.6,3.8,8.4,8.4,8.4h8.4l-39.2,2.1c-.4,0-.9,0-1.3.2-.1,0-.3,0-.4,0,0,0-.1,0-.2,0h-.2c-.2,0-.4.1-.6.2-.2,0-.4.1-.5.2h-.2c0,0-.1.1-.2.1-.1,0-.3.1-.5.2-.2,0-.3.2-.5.2l-.3.2c-.2,0-.3.1-.5.2-.2,0-.3.2-.5.3l-.3.2c-.2,0-.3.2-.5.3-.1,0-.3.2-.4.3,0,0-.1,0-.2.1h-.2c-.2.2-.3.3-.5.5-.2.1-.3.3-.5.4h-.2c0,.2-.1.2-.2.3-.1.1-.2.2-.4.3-.4.4-.8.8-1.2,1.2-.4.4-.7.8-1.1,1.3-.1.1-.2.3-.3.4,0,0,0,.1-.1.2v.2c-.3.2-.4.4-.5.6-.1.2-.2.4-.4.6l-.2.4c-.1.2-.2.3-.3.5-.1.2-.2.4-.3.6l-.2.4c0,.2-.2.4-.3.5,0,.2-.2.4-.3.6l-.2.4c0,.2-.2.4-.3.6,0,.2-.1.4-.2.5l-.2.4c0,.2-.2.4-.2.6,0,.2-.1.4-.2.7v.2c0,0-.1.2-.1.2,0,.2-.1.3-.1.5-.3,1.1-.5,2.2-.6,3.3,0,.2,0,.3,0,.5,0,0,0,.2,0,.2v.2c0,.2,0,.4,0,.7,0,.2,0,.4,0,.6v.4c0,.2,0,.4,0,.5,0,.2,0,.4,0,.6v.4c0,.2,0,.4.1.5,0,.2,0,.4,0,.5v.4c.1.2.1.4.2.6,0,.2,0,.3.1.5v.4c.2.2.2.4.3.5,0,.2.1.4.2.5v.2c0,0,.1.1.2.2,0,.1.1.3.2.4.2.4.4.8.7,1.2l40.3,63.1c1.7,2.6,4.2,4.2,7.1,4.4.3,0,.6,0,1,0,3.3,0,6.7-1.5,9.7-4.2,1.2-.7,2.4-1.6,3.5-2.7,1.2-.7,2.3-1.7,3.4-2.8,1.1-.8,2.2-1.7,3.2-2.8,1.1-.8,2.1-1.7,3-2.8,1-.8,2-1.7,2.8-2.8,1-.8,1.8-1.7,2.6-2.8.9-.8,1.7-1.8,2.4-2.8.9-.8,1.6-1.8,2.3-2.8.8-.8,1.5-1.8,2.1-2.8.7-.8,1.4-1.8,2-2.8.7-.8,1.3-1.7,1.8-2.8.6-.8,1.2-1.7,1.6-2.7.6-.8,1.1-1.7,1.5-2.7.6-.8,1-1.7,1.3-2.6.5-.8.9-1.7,1.2-2.6.5-.8.8-1.6,1.1-2.5.4-.8.7-1.6.9-2.5.4-.8.7-1.6.8-2.4.3-.8.6-1.6.7-2.4.4-1,.6-2,.6-3.1,0-4.6-3.8-8.4-8.4-8.4h-8.4l39.2-2.1c.4,0,.9,0,1.3-.2.1,0,.3,0,.4,0,0,0,.1,0,.2,0h.2c.2,0,.4-.1.6-.2.2,0,.4-.1.5-.2h.3c.2-.2.3-.2.5-.3.2,0,.4-.2.5-.2l.3-.2c.2,0,.3-.1.5-.2.2,0,.3-.2.5-.3l.3-.2c.2,0,.3-.2.5-.3.1,0,.3-.2.4-.3l.3-.2c.2-.1.3-.2.5-.4.2-.1.3-.3.5-.4h.2c0-.2.1-.2.2-.3.1-.1.3-.2.4-.3.4-.3.7-.7,1.1-1.1h0s0-.1,0-.1c.4-.4.7-.8,1.1-1.2.1-.1.2-.3.3-.4,0,0,0-.1.2-.2v-.2c.3-.2.4-.4.5-.6.1-.2.2-.4.4-.6l.2-.4c.1-.2.2-.3.3-.5.1-.2.2-.4.3-.6l.2-.4c0-.2.2-.4.3-.5,0-.2.2-.4.3-.6l.2-.4c0-.2.2-.4.3-.6,0-.2.1-.4.2-.5l.2-.4c0-.2.2-.4.2-.6,0-.2.1-.4.2-.6v-.2c0,0,.1-.2.1-.2,0-.2.1-.3.1-.5.3-1.1.5-2.2.6-3.3,0-.2,0-.3,0-.5,0,0,0-.2,0-.2v-.2c0-.2,0-.4,0-.7,0-.2,0-.4,0-.6ZM62.4,122c0-.1-.1-.2-.2-.3,0,0,0-.1,0-.2v-.2c-.2-.2-.2-.3-.3-.5,0-.2-.1-.3-.2-.5v-.4c-.2-.1-.2-.3-.3-.4,0-.2,0-.3-.1-.5v-.4c-.1-.2-.2-.3-.2-.5,0-.2,0-.3,0-.5v-.4c0-.2-.1-.4-.1-.5,0-.2,0-.3,0-.5v-.4c0-.2,0-.4,0-.5,0-.2,0-.4,0-.6v-.2c0,0,0-.2,0-.2,0-.1,0-.3,0-.4,0-1,.2-2.1.4-3.1,0-.2,0-.3.1-.5,0,0,0-.2,0-.2v-.2c.1-.2.2-.4.2-.6,0-.2.1-.4.2-.6v-.4c.2-.2.3-.3.3-.5,0-.2.2-.4.2-.6l.2-.4c0-.2.1-.3.2-.5,0-.2.2-.3.3-.5l.2-.4c0-.2.2-.4.3-.6,0-.2.2-.3.3-.5l.2-.4c.1-.2.2-.4.3-.5.1-.2.2-.4.4-.5v-.2c.2,0,.2-.1.3-.2,0-.1.2-.3.3-.4.3-.4.7-.8,1-1.2h0c.3-.4.7-.8,1.1-1.1.1-.1.2-.2.3-.3,0,0,.1-.1.2-.2h.2c.1-.3.3-.4.5-.5.1-.1.3-.2.4-.3h.2c0-.2.1-.2.2-.3.1,0,.3-.2.4-.3.2-.1.3-.2.5-.3l.3-.2c.1,0,.3-.2.4-.3.1,0,.3-.2.4-.2l.3-.2c.2,0,.3-.2.5-.2.1,0,.3-.1.4-.2h.4c.2-.2.3-.3.5-.3.2,0,.3,0,.5-.1h.2c0,0,.1,0,.2-.1.1,0,.2,0,.4,0,.4,0,.8-.2,1.2-.2l50.2-4.8-49.7,6.8c-.4,0-.8.1-1.3.3-.1,0-.3,0-.4.1,0,0-.1,0-.2,0h-.2c-.2.1-.3.2-.5.2-.2,0-.3.1-.5.2h-.3c-.1.2-.3.3-.4.3-.2,0-.3.2-.5.3l-.3.2c-.1,0-.3.2-.4.2-.1,0-.3.2-.4.3l-.3.2c-.2.1-.3.2-.5.3-.1,0-.3.2-.4.3,0,0-.1,0-.2.1h-.2c-.1.2-.3.4-.4.5-.2.1-.3.3-.4.4h-.1c0,.2-.1.2-.2.3-.1.1-.2.2-.3.3-.4.4-.7.8-1,1.1h0c-.3.4-.6.8-.9,1.3,0,.1-.2.3-.3.4,0,0,0,.1-.1.2v.2c-.2.2-.3.4-.5.5-.1.2-.2.4-.3.5l-.2.4c0,.2-.2.3-.3.5,0,.2-.2.4-.3.6l-.2.4c0,.2-.2.3-.2.5,0,.2-.1.4-.2.5v.4c-.2.2-.3.4-.4.6,0,.2-.1.3-.2.5v.4c-.2.2-.2.4-.3.6,0,.2,0,.4-.1.6v.2c0,0,0,.1,0,.2,0,.2,0,.3,0,.5-.2,1-.3,2.1-.3,3.1,0,.2,0,.3,0,.4,0,0,0,.1,0,.2v.2c0,.2,0,.4,0,.6,0,.2,0,.4,0,.6v.4c0,.2,0,.3.1.5,0,.2,0,.4.1.5v.3c.1.2.1.3.2.5,0,.2,0,.3.1.5v.3c.1.2.2.3.3.5,0,.2.1.3.2.4v.3c.2.2.3.3.3.5,0,.2.2.3.3.5h0s-.5-.7-.5-.7c-.2-.3-.5-.7-.7-1.1ZM155.7,134.3c0,.1-.1.2-.2.3-.6-4-3.6-7.3-7.6-7.9l-24.7-3.3,25.1,2.2c4.3.4,7.5,4.2,7.4,8.6ZM65.1,125.1c-.2-.3-.5-.6-.7-1,0,0-.1-.2-.2-.3,0,0,0-.1,0-.2h0c0-.3-.2-.4-.2-.6,0-.1-.1-.3-.2-.4v-.3c-.2-.1-.3-.3-.3-.4,0-.2,0-.3-.1-.5v-.3c-.2-.2-.2-.3-.2-.4,0-.1,0-.3,0-.5v-.4c-.1-.2-.1-.3-.2-.5,0-.2,0-.3,0-.5v-.4c0-.2,0-.4,0-.5,0-.2,0-.4,0-.6v-.2c0,0,0-.2,0-.2,0-.1,0-.3,0-.4,0-1,.1-2,.3-3,0-.2,0-.3,0-.4,0,0,0-.2,0-.2v-.2c0-.2.1-.4.2-.6,0-.2.1-.4.2-.6v-.4c.2-.2.2-.3.3-.5,0-.2.1-.4.2-.6v-.4c.2-.2.3-.3.3-.5,0-.2.1-.3.2-.5l.2-.4c0-.2.2-.4.3-.5,0-.2.2-.3.2-.5l.2-.4c0-.2.2-.4.3-.5.1-.2.2-.4.3-.5v-.2c.2,0,.2-.1.2-.2,0-.1.2-.3.3-.4.3-.4.6-.8.9-1.2h0c.3-.4.6-.8,1-1.1.1-.1.2-.2.3-.3,0,0,.1-.1.2-.2h.1c.1-.3.3-.4.4-.5.1-.1.3-.2.4-.4h.2c0-.2.1-.2.2-.3.1,0,.2-.2.4-.3.1-.1.3-.2.4-.3l.3-.2c.1,0,.3-.2.4-.3.1,0,.3-.2.4-.2l.3-.2c.2,0,.3-.2.4-.2.1,0,.3-.1.4-.2h.3c.2-.2.3-.3.4-.3.2,0,.3-.1.5-.2h.2c0,0,.1,0,.2-.1.1,0,.2,0,.4-.1.4-.1.8-.2,1.2-.2l48.4-6.6-47.8,8.5c-.4,0-.8.2-1.2.3-.1,0-.3,0-.4.1,0,0-.1,0-.2,0h-.2c-.2.1-.3.2-.5.2-.2,0-.3.1-.5.2l-.3.2c-.1,0-.3.1-.4.2-.2,0-.3.2-.5.3l-.3.2c-.1,0-.3.2-.4.3-.1,0-.3.2-.4.3l-.3.2c-.1.1-.3.2-.4.3-.1.1-.2.2-.4.3l-.3.3c-.1.1-.3.2-.4.4-.1.1-.3.3-.4.4h-.1c0,.2-.1.2-.2.3-.1.1-.2.2-.3.3-.3.4-.7.8-1,1.2-.3.4-.6.8-.9,1.2,0,.1-.2.3-.2.4,0,0,0,.1-.1.2v.2c-.2.2-.3.4-.4.5,0,.2-.2.4-.3.5l-.2.4c0,.2-.2.3-.2.5,0,.2-.2.4-.2.6v.4c-.2.2-.3.3-.4.5,0,.2-.1.3-.2.5v.4c-.2.2-.2.4-.3.6,0,.2,0,.3-.1.5v.4c-.1.2-.2.4-.2.6,0,.2,0,.4-.1.6v.2c0,0,0,.1,0,.2,0,.2,0,.3,0,.5-.1,1-.2,2-.2,3,0,.1,0,.3,0,.4,0,0,0,.1,0,.2v.2c0,.2,0,.4,0,.6,0,.2,0,.4,0,.5v.4c0,.2.1.3.1.5,0,.2,0,.4.1.5v.3c.1.2.2.3.2.5,0,.2.1.3.2.5v.3c.2.2.2.3.3.5,0,.1.1.3.2.4v.3c.2.1.3.3.4.4,0,.1.1.2.2.4l-.4-.6ZM99.3,77.7c0-.1.1-.2.2-.3.6,4,3.6,7.3,7.6,7.9l24.7,3.3-25.1-2.2c-4.3-.4-7.5-4.2-7.4-8.6ZM100,75.3c0-.1.2-.2.2-.4.2-.2.4-.5.6-.7.1-.1.3-.3.4-.4,0,0,0,0,0,0,.2-.2.3-.3.5-.4.2-.2.5-.3.7-.5.2-.1.4-.2.5-.3.3-.2.6-.3,1-.4.2,0,.4-.1.6-.2.4-.1.9-.2,1.4-.2.2,0,.4,0,.6,0s0,0,0,0c.1,0,.2,0,.3,0h1.7c0,0,.8.1.8.1h3c0,.1,1.4.2,1.4.2l3.7.2h1.3c0,0,3.1.2,3.1.2h1.2c0,0,2.6.2,2.6.2h1.1s2.3.1,2.3.1h1s2.1.1,2.1.1h.9s1.9.1,1.9.1h.9s1.7.1,1.7.1h.8s1.6.1,1.6.1h.8s1.5.1,1.5.1h.7s1.3,0,1.3,0h-38.4c-.2,0-.4,0-.6,0-.2,0-.4,0-.6,0-.4,0-.8.2-1.2.3-.2,0-.4.1-.6.2-.3.1-.6.2-.9.4-.2,0-.4.2-.5.3-.2.1-.4.3-.6.4-.2.1-.4.3-.5.4-.1.1-.2.2-.3.3,0-.2,0-.3,0-.5ZM187.8,85c.2.3.5.6.7.9,0,0,.1.2.2.3,0,0,0,.1.1.2h0c0,.3.2.4.2.6,0,.1.1.3.2.4v.2c.1,0,.1.1.2.2,0,.1.1.2.2.4,0,.1.1.3.2.4v.3c.2.1.2.3.3.4,0,.1,0,.3.1.4v.3c.1.2.2.3.2.5,0,.1,0,.3,0,.4v.4c0,.2.1.3.1.5,0,.2,0,.4,0,.6v.2c0,0,0,.1,0,.2,0,.1,0,.3,0,.4,0,.9,0,1.9-.2,2.9,0,.1,0,.3,0,.4,0,0,0,.2,0,.2v.2c0,.2,0,.4-.1.6,0,.2,0,.4-.1.5v.4c-.1.2-.2.3-.2.5,0,.2-.1.4-.2.5v.4c-.2.2-.2.3-.3.5,0,.2-.1.3-.2.5v.4c-.2.2-.3.4-.4.5,0,.2-.1.3-.2.4l-.2.4c0,.2-.2.3-.3.5,0,.2-.2.3-.3.5v.2c-.1,0-.2.1-.2.2,0,.1-.1.3-.2.4-.3.4-.5.8-.8,1.1h0c-.3.5-.6.8-.9,1.2,0,.1-.2.2-.3.3,0,0-.1.1-.2.2h-.1c-.1.3-.3.4-.4.5-.1.1-.3.2-.4.3l-.3.3c-.1.1-.2.2-.3.3-.1.1-.3.2-.4.3l-.3.2c-.1,0-.3.2-.4.3-.1,0-.3.2-.4.2l-.3.2c-.1,0-.3.2-.4.3-.1,0-.3.1-.4.2l-.3.2c-.2,0-.3.1-.4.2-.2,0-.3.1-.5.2h-.2c0,0-.1.1-.2.1-.1,0-.2,0-.3.1-.4.1-.8.2-1.2.3l-46.6,8.3,45.9-10.1c.4,0,.8-.2,1.2-.3.1,0,.2,0,.4-.1,0,0,.1,0,.2,0h.2c.2-.1.3-.2.5-.3h0c.2,0,.3-.2.5-.2l.3-.2c.1,0,.3-.1.4-.2.2,0,.3-.2.4-.3l.3-.2c.1,0,.3-.2.4-.3.1,0,.3-.2.4-.3l.3-.2c.1-.1.3-.2.4-.3.1-.1.2-.2.3-.3l.3-.3c.1-.1.3-.2.4-.4.1-.1.3-.3.4-.4h.1c0-.2,0-.2.1-.3,0-.1.2-.2.3-.3.3-.3.6-.7.8-1.1h0c.3-.5.5-.9.8-1.3,0-.1.2-.3.2-.4,0,0,0-.1.1-.2v-.2c.2-.2.3-.3.4-.5,0-.2.2-.3.2-.5l.2-.4c0-.2.1-.3.2-.5,0-.2.1-.4.2-.5v-.4c.2-.2.3-.3.3-.5,0-.2.1-.3.2-.5v-.4c.2-.2.2-.4.3-.6,0-.2,0-.3.1-.5v-.4c.1-.2.2-.4.2-.6,0-.2,0-.4,0-.6v-.2c0,0,0-.1,0-.2,0-.1,0-.3,0-.4,0-1,0-1.9,0-2.9,0-.1,0-.3,0-.4,0,0,0-.1,0-.2v-.2c0-.2,0-.4,0-.6,0-.2,0-.3,0-.5v-.4c-.1-.2-.1-.3-.2-.5,0-.2,0-.3-.1-.5v-.3c-.1-.1-.2-.3-.2-.4,0-.1-.1-.3-.2-.4v-.3c-.2-.1-.2-.3-.3-.5,0-.1-.1-.3-.2-.4l-.2-.3c0-.1-.1-.3-.2-.4,0,0,0-.1-.1-.2l.4.4ZM100.1,123.4l9.3,14.6h-6.2c-.2,0-.5,0-.8,0,0,0-.1,0-.2,0,0,0,0,0-.1,0h-.1c-.1,0-.2,0-.3,0,0,0-.2,0-.3,0h-.2c0,0-.2,0-.2-.1,0,0-.2,0-.3,0h-.2c0-.1-.2-.1-.2-.2,0,0-.2,0-.2-.1h-.2c0-.1-.2-.2-.3-.2,0,0-.1,0-.2-.1h-.2c0-.2-.2-.2-.2-.3,0,0-.2-.1-.2-.2h0c0,0,0-.1-.1-.1,0,0-.1,0-.2-.1-.4-.3-.8-.7-1.1-1.1,0,0,0-.1-.1-.2,0,0,0,0,0-.1h0c0-.2-.1-.3-.2-.3,0,0-.1-.2-.1-.2v-.2c-.2,0-.2-.1-.2-.2,0,0,0-.2-.1-.3v-.2c-.1,0-.2-.2-.2-.2,0,0,0-.2,0-.2v-.2c-.1,0-.1-.2-.2-.3,0,0,0-.2,0-.2v-.2c0,0-.1-.2-.1-.3,0,0,0-.2,0-.3h0c0-.2,0-.2,0-.2,0,0,0-.1,0-.2,0-.3,0-.5,0-.8s0-.5,0-.8c0,0,0-.1,0-.2,0,0,0,0,0-.1h0c0-.2,0-.3,0-.4,0,0,0-.2,0-.3v-.2c0,0,0-.2.1-.2,0,0,0-.2,0-.3v-.2c0,0,.1-.2.2-.2,0,0,0-.2.1-.2v-.2c.1,0,.2-.2.2-.3,0,0,0-.1.1-.2v-.2c.2,0,.2-.2.3-.2,0,0,.1-.2.2-.2h0c0-.1,0-.2,0-.2,0,0,0-.1.1-.2.2-.2.3-.4.5-.6l29.4-29.4.5-.4.5-.4.5-.4.6-.4.6-.4.6-.4.7-.4.7-.4.7-.4.7-.4.8-.3.8-.3.8-.3.9-.3.9-.2.9-.2.9-.2h1c0-.1,1-.2,1-.2l13.7-.7-9.3-14.6h6.2c.2,0,.5,0,.8,0,0,0,.1,0,.2,0,0,0,0,0,.1,0h.1c.1,0,.2,0,.3,0,0,0,.2,0,.3,0h.2c0,0,.2,0,.2.1,0,0,.2,0,.3,0h.2c0,.1.2.1.2.2,0,0,.2,0,.2.1h.2c0,.1.2.2.3.2,0,0,.1,0,.2.1h.2c0,.2.2.2.2.3,0,0,.2.1.3.2h0c0,0,0,.1.1.1,0,0,.1,0,.2.1.4.3.8.7,1.1,1.1,0,0,0,.1.1.2,0,0,0,0,0,.1h0c0,.2.1.3.2.3,0,0,.1.2.2.2v.2c.2,0,.2.1.2.2,0,0,0,.2.1.3v.2c.1,0,.2.2.2.2,0,0,0,.2,0,.2v.2c.1,0,.1.2.2.3,0,0,0,.2,0,.2v.2c0,0,.1.2.1.3,0,0,0,.2,0,.3h0c0,.1,0,.2,0,.2,0,0,0,.1,0,.2,0,.2,0,.5,0,.7h0c0,.3,0,.6,0,.8,0,0,0,.1,0,.2,0,0,0,0,0,.1h0c0,.2,0,.3,0,.4,0,0,0,.2,0,.3v.2c0,0,0,.2-.1.2,0,0,0,.2,0,.3v.2c0,0-.1.2-.2.2,0,0,0,.2-.1.2v.2c-.1,0-.2.2-.2.3,0,0,0,.1-.1.2v.2c-.2,0-.2.2-.3.2,0,0-.1.2-.2.2h0c0,.1,0,.2,0,.2,0,0,0,.1-.1.2-.2.2-.3.4-.5.6l-29.4,29.4-.5.4-.5.4-.5.4-.6.4-.6.4-.6.4-.7.4-.7.4-.7.4-.7.4-.8.3-.8.3-.8.3-.9.3-.9.2-.9.2-.9.2h-1c0,.1-1,.2-1,.2l-13.7.7ZM75.4,125.1c0-.1,0-.3,0-.4,0-.1,0-.3,0-.4v-.3c0-.1,0-.3,0-.4,0-.1,0-.3,0-.4v-.3c0-.2,0-.3.1-.5,0-.1,0-.3,0-.4v-.3c.1-.1.1-.3.2-.4,0-.2,0-.3.1-.5v-.2c0,0,0-.1.1-.2,0-.1,0-.2.1-.3.1-.4.3-.7.5-1.1h0c.2-.4.3-.7.5-1.1,0-.1.1-.2.2-.3,0,0,0-.1.1-.2h0c0-.3.2-.4.3-.5,0-.1.2-.2.3-.4l.2-.3c0,0,.1-.2.2-.3,0-.1.2-.2.3-.3l.2-.2c0,0,.2-.2.3-.3,0,0,.2-.2.3-.3l.2-.2c.1,0,.2-.2.3-.3,0,0,.2-.2.3-.2l.2-.2c.1,0,.2-.2.3-.2.1,0,.2-.2.4-.2h.1c0-.1,0-.1.1-.2,0,0,.2-.1.3-.2.3-.2.6-.3.9-.5l35.2-15.1-34.3,16.1c-.3.1-.6.3-1,.5,0,0-.2.1-.3.2,0,0,0,0-.1,0h-.1c-.1.2-.2.2-.4.3-.1,0-.2.2-.3.3l-.2.2c0,0-.2.2-.3.2-.1,0-.2.2-.3.3l-.2.2c0,0-.2.2-.3.3,0,.1-.2.2-.3.3l-.2.2c0,.1-.2.2-.3.3,0,.1-.2.2-.2.3l-.2.3c0,.1-.2.2-.3.4,0,.1-.2.3-.2.4h0c0,.2,0,.2,0,.3,0,.1-.1.2-.2.3-.2.3-.4.7-.5,1h0c-.2.4-.3.8-.4,1.1,0,.1,0,.2-.1.4,0,0,0,.1,0,.2v.2c0,.2-.1.3-.2.5,0,.2,0,.3,0,.5v.3c0,.1-.1.3-.1.4,0,.2,0,.3,0,.5v.3c0,.1,0,.3,0,.4,0,.1,0,.3,0,.4v.3c0,.2,0,.3,0,.5,0,.1,0,.3,0,.4v.3c0,.2,0,.3,0,.5,0,.2,0,.3,0,.5v.2c0,0,0,.1,0,.2,0,.1,0,.2,0,.4.1.8.3,1.5.6,2.2,0,.1,0,.2.1.3,0,0,0,0,0,.1h0c0,.3.1.4.2.6,0,.1.1.3.2.4v.3c.2.1.3.2.3.3,0,.1.2.2.2.4v.2c.2.1.3.2.4.3,0,.1.2.2.2.3l.2.2c0,.1.2.2.3.3,0,0,.2.2.3.3l.2.2s0,0,0,0c-.3-.2-.5-.3-.8-.5,0,0-.1-.1-.2-.2,0,0,0,0-.1-.1h-.1c-.1-.2-.2-.3-.3-.3,0,0-.2-.2-.3-.3l-.2-.2c0,0-.2-.2-.2-.2,0,0-.2-.2-.2-.3l-.2-.2c0,0-.1-.2-.2-.3,0,0-.1-.2-.2-.3v-.2c-.2-.1-.3-.2-.4-.3,0-.1-.1-.2-.2-.3v-.3c-.2-.1-.3-.2-.3-.4,0-.1-.1-.3-.2-.4h0c0-.2,0-.3,0-.3,0,0,0-.2-.1-.3-.2-.7-.4-1.5-.5-2.2,0-.1,0-.2,0-.3,0,0,0-.1,0-.2v-.2c0-.2,0-.3,0-.5,0-.1,0-.3,0-.4v-.2s0-.2,0-.2ZM179.6,86.8c0,.1,0,.3,0,.4,0,.1,0,.3,0,.4v.3c0,.1,0,.3,0,.4,0,.1,0,.3,0,.4v.3c0,.2,0,.3-.1.5,0,.1,0,.3,0,.4v.3c-.1.1-.1.3-.2.4,0,.2,0,.3-.1.5v.2c0,0,0,.1-.1.2,0,.1,0,.2-.1.3-.1.4-.3.7-.4,1h0c-.2.4-.3.8-.5,1.1,0,.1-.1.2-.2.3,0,0,0,.1,0,.2h0c0,.3-.2.4-.3.5,0,.1-.2.2-.3.4l-.2.3c0,.1-.1.2-.2.3,0,.1-.2.2-.3.3l-.2.2c0,0-.2.2-.3.3,0,0-.2.2-.3.3l-.2.2c-.1,0-.2.2-.3.3,0,0-.2.2-.3.2l-.2.2c-.1,0-.2.2-.3.2h0c-.1,0-.2.2-.4.2h-.1c0,.1,0,.1-.1.2,0,0-.2.1-.3.2-.3.2-.6.3-.9.5l-35.2,15.1,34.3-16.1c.3-.1.6-.3,1-.5,0,0,.2-.1.3-.2,0,0,0,0,.1,0h.1c.1-.2.2-.2.4-.3h0c.1,0,.2-.2.3-.3l.2-.2c.1,0,.2-.2.3-.3.1,0,.2-.2.3-.3l.2-.2c0,0,.2-.2.3-.3,0-.1.2-.2.3-.3l.2-.2c0-.1.2-.2.3-.3,0-.1.2-.2.2-.3l.2-.3c0-.1.2-.2.3-.4,0-.1.2-.3.2-.4h0c0-.2,0-.2,0-.3,0-.1.1-.2.2-.3.2-.3.4-.7.5-1h0c.2-.4.3-.8.4-1.1,0-.1,0-.2.1-.4,0,0,0-.1,0-.2h0c0-.3,0-.5.1-.6,0-.2,0-.3,0-.5v-.3c0-.1.1-.3.1-.4,0-.2,0-.3,0-.5v-.3c0-.1,0-.3,0-.4,0-.1,0-.3,0-.4v-.3c0-.2,0-.3,0-.5,0-.1,0-.3,0-.4v-.3c0-.2,0-.3,0-.5,0-.2,0-.3,0-.5v-.2c0,0,0-.1,0-.2,0-.1,0-.2,0-.4-.1-.8-.3-1.5-.6-2.2,0-.1,0-.2-.1-.3,0,0,0,0,0-.1h0c0-.3-.1-.4-.2-.6,0-.1-.1-.3-.2-.4v-.3c-.2-.1-.3-.2-.3-.3,0-.1-.2-.2-.2-.3l-.2-.2c0-.1-.1-.2-.2-.3,0-.1-.2-.2-.2-.3l-.2-.2c0-.1-.2-.2-.3-.3,0,0-.2-.2-.3-.2l-.2-.2s0,0,0,0c.3.2.5.3.8.5,0,0,.1.1.2.2,0,0,0,0,.1.1h.1c.1.2.2.3.3.3,0,0,.2.2.3.3l.2.2c0,0,.2.2.2.2,0,0,.2.2.2.3l.2.2c0,0,.1.2.2.3,0,0,.1.2.2.3l.2.2c0,.1.1.2.2.3,0,.1.1.2.2.3v.3c.2.1.3.2.3.4,0,.1.1.3.2.4h0c0,.2,0,.3,0,.3,0,0,0,.2.1.3.2.7.4,1.5.5,2.2,0,.1,0,.2,0,.3,0,0,0,.1,0,.2v.2c0,.2,0,.3,0,.5,0,.1,0,.3,0,.4v.2s0,.2,0,.2ZM174.8,78c0,0,.2.2.2.3l.2.2c0,0,.2.2.2.3,0,0,.1.2.2.3l.2.2c0,.1.1.2.2.3,0,0,.1.2.2.3v.3c.2.1.3.2.3.3,0,.1.1.3.2.4h0c0,.2,0,.2,0,.3,0,0,0,.2.1.3.3.7.4,1.4.6,2.1,0,.1,0,.2,0,.3,0,0,0,.1,0,.2v.2c0,.1,0,.3,0,.4,0,.1,0,.3,0,.4v.3c0,.1,0,.3,0,.4,0,.1,0,.3,0,.4v.3c0,.1,0,.3,0,.4,0,.1,0,.3,0,.4v.3c0,.1,0,.3,0,.4,0,.1,0,.3,0,.4v.3c0,.1-.1.3-.2.4,0,.1,0,.3-.1.4v.2c0,0,0,.1,0,.2,0,.1,0,.2,0,.3-.1.3-.2.7-.4,1h0c-.1.4-.3.8-.5,1.1,0,0-.1.2-.2.3,0,0,0,.1,0,.2h0c0,.3-.1.4-.2.5,0,.1-.2.2-.2.3l-.2.3c0,0-.1.2-.2.3,0,.1-.2.2-.3.3l-.2.2c0,0-.2.2-.2.3,0,0-.2.2-.3.3l-.2.2c0,0-.2.2-.3.3,0,0-.2.2-.3.2l-.2.2c-.1,0-.2.2-.3.3-.1,0-.2.2-.3.2h-.1c0,.1,0,.1-.1.2,0,0-.2.1-.2.2-.3.2-.6.3-.9.5l-33.3,15.7,32.4-16.7c.3-.2.6-.3.9-.5,0,0,.2-.1.3-.2,0,0,0,0,.1,0h.1c.1-.2.2-.2.4-.3h0c.1,0,.2-.2.3-.3l.2-.2c0,0,.2-.2.3-.3.1,0,.2-.2.3-.3l.2-.2c0,0,.2-.2.3-.3,0-.1.2-.2.2-.3l.2-.2c0-.1.2-.2.3-.3,0-.1.1-.2.2-.3l.2-.3c0-.1.2-.2.2-.4,0-.1.2-.3.2-.4h0c0-.2,0-.2,0-.3,0-.1.1-.2.2-.3.2-.3.3-.7.4-1h0c.1-.4.3-.7.4-1.1,0-.1,0-.2,0-.3,0,0,0-.1,0-.2h0c0-.3,0-.4.1-.6,0-.1,0-.3,0-.4v-.3c0-.1,0-.3.1-.4,0-.2,0-.3,0-.5v-.3c0-.1,0-.3,0-.4,0-.1,0-.3,0-.4v-.3c0-.1,0-.3,0-.4,0-.1,0-.3,0-.4v-.3c0-.1,0-.3,0-.4,0-.2,0-.3,0-.4v-.2c0,0,0-.1,0-.2,0-.1,0-.2,0-.3-.2-.7-.4-1.4-.7-2.1,0-.1,0-.2-.1-.3,0,0,0,0,0-.1h0c0-.3-.1-.4-.2-.5,0-.1-.1-.2-.2-.4v-.2c-.2-.1-.3-.2-.3-.3,0-.1-.2-.2-.2-.3l-.2-.2c0,0-.2-.2-.2-.3,0,0-.2-.2-.3-.3l-.2-.2c0,0-.2-.2-.3-.3,0,0-.2-.2-.3-.2l-.2-.2c.2.1.5.3.7.4,0,0,.1.1.2.2,0,0,0,0,.1,0h.1c.1.2.2.2.3.3,0,0,.2.2.3.2l.2.2c0,0,.2.1.2.2ZM172.6,77.1c0,0,.2.2.3.3l.2.2c0,0,.2.2.2.2s.1.2.2.3l.2.2c0,0,.2.2.2.3,0,0,.1.2.2.3l.2.2c0,.1.1.2.2.3,0,.1.1.2.2.4h0c0,.2,0,.2,0,.3,0,0,0,.2.1.3.3.6.5,1.3.7,2,0,.1,0,.2,0,.3,0,0,0,.1,0,.2v.2c0,.1,0,.3.1.4,0,.1,0,.3,0,.4v.3c0,.1,0,.2,0,.4,0,.1,0,.3,0,.4v.3c0,.1,0,.3,0,.4,0,.1,0,.3,0,.4v.3c0,.1,0,.3,0,.4,0,.1,0,.2,0,.4v.3c0,.1,0,.3-.1.4,0,.1,0,.3-.1.4h0c0,.2,0,.3,0,.3,0,.1,0,.2,0,.3,0,.3-.2.7-.3,1h0c-.1.4-.3.8-.4,1.1,0,0,0,.2-.1.3,0,0,0,.1,0,.2h0c0,.3-.1.4-.2.5,0,.1-.1.2-.2.3l-.2.3c0,0-.1.2-.2.3,0,.1-.2.2-.3.3l-.2.2c0,0-.2.2-.2.3,0,0-.2.2-.3.3l-.2.2c0,0-.2.2-.3.3,0,0-.2.2-.3.2l-.2.2c0,0-.2.2-.3.3-.1,0-.2.2-.3.2h-.1c0,.1,0,.1-.1.2,0,0-.2.1-.2.2-.3.2-.6.4-.9.5l-31.5,16.2,30.5-17.1c.3-.2.6-.3.9-.5,0,0,.2-.1.3-.2,0,0,0,0,.1,0h.1c.1-.2.2-.3.3-.3.1,0,.2-.2.3-.3l.2-.2c0,0,.2-.2.3-.3,0,0,.2-.2.3-.3l.2-.2c0,0,.2-.2.3-.3,0-.1.2-.2.2-.3l.2-.2c0-.1.2-.2.3-.4,0-.1.1-.2.2-.3l.2-.2c0-.1.1-.2.2-.4,0-.1.1-.3.2-.4h0c0-.2,0-.2,0-.3,0-.1.1-.2.1-.3.1-.3.3-.6.4-.9h0v-.2c.1-.3.2-.7.3-1,0-.1,0-.2,0-.3,0,0,0-.1,0-.2h0c0-.3,0-.4,0-.6,0-.1,0-.3,0-.4v-.3c0-.1,0-.3,0-.4,0-.1,0-.3,0-.4v-.3c0-.1,0-.3,0-.4,0-.1,0-.3,0-.4v-.3c0-.1,0-.3,0-.4,0-.1,0-.3,0-.4v-.3c0-.1,0-.3-.1-.4,0-.1,0-.3,0-.4h0c0-.2,0-.2,0-.3,0-.1,0-.2,0-.3-.2-.7-.5-1.4-.8-2,0,0,0-.2-.2-.3,0,0,0,0,0-.1h0c0-.2-.1-.4-.2-.5,0-.1-.1-.2-.2-.3l-.2-.2c0,0-.1-.2-.2-.3,0-.1-.2-.2-.3-.3l-.2-.2c0,0-.2-.2-.2-.3,0,0-.2-.2-.3-.2l-.2-.2c0,0-.2-.2-.3-.3,0,0-.2-.1-.3-.2h-.1c.2,0,.4.1.7.3,0,0,.1,0,.2.1,0,0,0,0,.1,0h.1c.1.1.2.2.3.3,0,0,.2.1.3.2l.2.2c0,0,.2.1.2.2ZM170.7,76.6l.2.2c0,0,.2.1.2.2,0,0,.1.2.2.2l.2.2c0,0,.2.2.2.3,0,0,.1.2.2.3l.2.2c0,0,.1.2.2.3,0,.1.1.2.2.3h0c0,.2,0,.2,0,.3,0,0,0,.2.1.2.3.6.5,1.2.7,1.9,0,0,0,.2,0,.3,0,0,0,.1,0,.2h0c0,.3,0,.4,0,.5,0,.1,0,.3,0,.4v.3c0,.1,0,.2,0,.3,0,.1,0,.3,0,.4v.3c0,.1,0,.2,0,.4,0,.1,0,.2,0,.4v.3c0,.1,0,.3,0,.4,0,.1,0,.2,0,.3v.3c0,.1,0,.3,0,.4,0,.1,0,.3,0,.4h0c0,.2,0,.3,0,.3,0,.1,0,.2,0,.3,0,.3-.2.7-.3,1h0c-.1.4-.2.7-.4,1.1,0,0,0,.2-.1.3,0,0,0,0,0,.1h0c0,.3-.1.4-.2.5,0,.1-.1.2-.2.3l-.2.3c0,0-.1.2-.2.3,0,.1-.2.2-.2.3l-.2.2c0,0-.1.2-.2.3,0,0-.2.2-.2.3l-.2.2c0,0-.2.2-.3.3,0,0-.2.2-.2.2l-.2.2c0,0-.2.2-.3.3-.1,0-.2.2-.3.2h-.1c0,.1,0,.2-.1.2,0,0-.1.1-.2.2-.3.2-.6.4-.8.5l-29.6,16.6,28.6-17.4c.3-.2.6-.4.8-.6,0,0,.2-.1.2-.2,0,0,0,0,.1,0h.1c.1-.2.2-.3.3-.4h0c0,0,.2-.2.3-.3l.2-.2c0,0,.2-.2.3-.3,0,0,.2-.2.3-.3l.2-.2c0,0,.2-.2.2-.3,0,0,.1-.2.2-.3v-.2c.2-.1.3-.2.4-.3,0-.1.1-.2.2-.3v-.2c.2-.1.3-.2.3-.4,0-.1.1-.3.2-.4h0c0-.2,0-.2,0-.3,0,0,0-.2.1-.3.1-.3.2-.6.3-.9h0v-.2c0-.3.2-.7.2-1,0-.1,0-.2,0-.3,0,0,0-.1,0-.2h0c0-.3,0-.4,0-.6,0-.1,0-.3,0-.4v-.3c0-.1,0-.2,0-.4,0-.1,0-.3,0-.4v-.3c0-.1,0-.3,0-.4,0-.1,0-.3,0-.4v-.3c0-.1,0-.3,0-.4,0-.1,0-.2,0-.4v-.3c0-.1,0-.3-.1-.4,0-.1,0-.3-.1-.4h0c0-.2,0-.2,0-.3,0-.1,0-.2,0-.3-.2-.7-.5-1.3-.8-1.9,0,0-.1-.2-.2-.3,0,0,0,0,0-.1h0c0-.2-.1-.3-.2-.5,0-.1-.2-.2-.2-.3l-.2-.2c0,0-.1-.2-.2-.3,0,0-.2-.2-.3-.3l-.2-.2c0,0-.2-.2-.2-.3,0,0-.2-.2-.3-.2l-.2-.2c0,0-.2-.2-.3-.2,0,0-.2-.1-.3-.2h0c.2,0,.4.2.6.3,0,0,.1,0,.2.1,0,0,0,0,.1,0h.1c.1.1.2.2.3.3,0,0,.2.1.3.2l.2.2c0,0,.2.1.2.2,0,0,.2.2.3.2ZM168.6,76l.2.2c0,0,.2.1.2.2,0,0,.1.1.2.2l.2.2c0,0,.2.2.2.3,0,0,.1.2.2.2l.2.2c0,0,.1.2.2.3,0,.1.1.2.2.3h0c0,.2,0,.2,0,.2,0,0,0,.1.1.2.3.6.6,1.2.8,1.8,0,0,0,.2,0,.3,0,0,0,.1,0,.2h0c0,.3,0,.4.1.5,0,.1,0,.2,0,.4v.3c0,.1,0,.2.1.3,0,.1,0,.3,0,.4v.3c0,.1,0,.2,0,.3,0,.1,0,.2,0,.3v.3c0,.1,0,.3,0,.4,0,.1,0,.2,0,.3v.3c0,.1,0,.3,0,.4,0,.1,0,.3,0,.4h0c0,.2,0,.2,0,.3,0,0,0,.2,0,.3,0,.3-.1.6-.2.9h0c0,.4-.2.7-.3,1,0,0,0,.2-.1.3,0,0,0,0,0,.1h0c0,.3-.1.4-.2.5,0,.1-.1.2-.2.3v.3c-.2,0-.2.2-.3.3,0,.1-.1.2-.2.3v.2c-.2,0-.3.2-.3.3,0,0-.1.2-.2.3l-.2.2c0,0-.2.2-.2.3,0,0-.2.2-.2.2l-.2.2c0,0-.2.2-.3.3,0,0-.2.2-.3.2h-.1c0,.1,0,.2-.1.2,0,0-.1.1-.2.2-.3.2-.5.4-.8.5l-27.9,16.9,26.8-17.6c.3-.2.5-.4.8-.6,0,0,.2-.1.2-.2,0,0,0,0,.1,0h0c.1-.2.2-.3.3-.4,0,0,.2-.2.3-.3l.2-.2c0,0,.2-.2.2-.3,0,0,.2-.2.2-.3l.2-.2c0,0,.1-.2.2-.3,0-.1.1-.2.2-.3v-.2c.2-.1.3-.2.3-.3,0,0,.1-.2.2-.3v-.2c.2-.1.2-.2.3-.3,0-.1.1-.3.2-.4h0c0-.2,0-.2,0-.3,0,0,0-.2.1-.3.1-.3.2-.6.3-.9h0v-.2c0-.3.1-.6.2-1,0-.1,0-.2,0-.3,0,0,0-.1,0-.2h0c0-.3,0-.4,0-.6,0-.1,0-.3,0-.4v-.3c0-.1,0-.2,0-.4,0-.1,0-.3,0-.4v-.2c0-.1,0-.2,0-.4,0-.1,0-.2,0-.4v-.2c0-.1,0-.3,0-.4,0-.1,0-.2,0-.3v-.3c0-.1-.1-.3-.2-.4,0-.1,0-.3-.1-.4h0c0-.2,0-.2,0-.3,0,0,0-.2-.1-.3-.2-.6-.5-1.2-.9-1.8,0,0-.1-.2-.2-.2,0,0,0,0,0-.1h0c0-.2-.2-.3-.2-.4,0,0-.2-.2-.2-.3l-.2-.2c0,0-.1-.2-.2-.3,0,0-.2-.2-.3-.3l-.2-.2c0,0-.2-.2-.3-.2,0,0-.2-.1-.3-.2h-.2c0-.2-.2-.3-.3-.4,0,0-.1,0-.2-.1.2,0,.3.1.5.2,0,0,.1,0,.2.1,0,0,0,0,.1,0h.1c.1.1.2.2.3.2,0,0,.2.1.3.2l.2.2c0,0,.2.1.2.2,0,0,.2.1.3.2ZM166.5,75.4h.2c0,.2.2.3.2.3,0,0,.2.1.2.2l.2.2c0,0,.2.2.2.2,0,0,.1.1.2.2l.2.2c0,0,.1.2.2.3,0,0,.1.2.2.3h0c0,.1,0,.2,0,.2,0,0,.1.1.1.2.3.5.6,1.1.8,1.7,0,0,0,.2,0,.3,0,0,0,0,0,.1h0c0,.2,0,.4.1.5,0,.1,0,.2,0,.4v.3c0,.1.1.2.1.3,0,.1,0,.2,0,.4v.3c0,.1,0,.2,0,.3,0,.1,0,.2,0,.3v.3c0,.1,0,.3,0,.4,0,.1,0,.2,0,.3v.3c0,.1,0,.2,0,.4,0,.1,0,.3,0,.4h0c0,.2,0,.2,0,.3,0,0,0,.2,0,.3,0,.3-.1.6-.2.9h0c0,.4-.2.7-.3,1,0,0,0,.2-.1.3,0,0,0,0,0,.1h0c0,.2,0,.4-.1.5,0,.1-.1.2-.2.3v.3c-.2,0-.2.2-.3.3,0,.1-.1.2-.2.3v.2c-.2,0-.3.2-.3.3,0,0-.1.2-.2.3l-.2.2c0,0-.1.2-.2.3,0,0-.1.2-.2.2l-.2.2c0,0-.2.2-.2.3,0,0-.2.2-.3.3h0c0,.1,0,.2-.1.2,0,0-.1.1-.2.2-.2.2-.5.4-.7.5l-26.1,17.1,25.1-17.7c.2-.2.5-.4.7-.6,0,0,.1-.1.2-.2,0,0,0,0,.1,0h0c0-.2.2-.3.3-.4h0c0,0,.2-.2.3-.3l.2-.2c0,0,.1-.2.2-.3,0,0,.2-.2.2-.3v-.2c.2,0,.3-.2.3-.3,0,0,.1-.2.2-.3v-.2c.2-.1.2-.2.3-.3,0,0,0-.2.1-.3v-.2c.2-.1.2-.2.3-.3,0-.1,0-.3.1-.4h0c0-.2,0-.2,0-.3,0,0,0-.2.1-.3,0-.3.2-.6.2-.8h0v-.2c0-.3.1-.6.2-1,0-.1,0-.2,0-.3,0,0,0,0,0-.1h0c0-.3,0-.4,0-.5,0-.1,0-.3,0-.4v-.3c0-.1,0-.2,0-.3,0-.1,0-.3,0-.4v-.2c0-.1,0-.2,0-.4,0-.1,0-.2,0-.4v-.2c0-.1,0-.2-.1-.4,0-.1,0-.2,0-.3v-.2c-.1-.1-.1-.2-.2-.4,0-.1,0-.2-.1-.4h0c0-.2,0-.2,0-.2,0,0,0-.2-.1-.3-.3-.6-.6-1.1-1-1.7,0,0-.1-.2-.2-.2,0,0,0,0,0-.1h0c0-.2-.2-.3-.2-.4,0,0-.2-.2-.3-.3l-.2-.2c0,0-.2-.2-.2-.2,0,0-.2-.2-.3-.2l-.2-.2c0,0-.2-.1-.3-.2,0,0-.2-.1-.3-.2h-.2c0-.2-.2-.3-.3-.3,0,0,0,0,0,0,.1,0,.2,0,.4.1,0,0,.2,0,.2.1,0,0,0,0,.1,0h.1c.1.1.2.1.3.2,0,0,.2.1.3.2h.2c0,.2.2.2.2.3,0,0,.2.1.3.2ZM164.3,75h.2c0,.2.2.2.2.3,0,0,.2.1.2.2l.2.2c0,0,.2.1.2.2,0,0,.1.1.2.2l.2.2c0,0,.2.2.2.2,0,0,.2.2.2.3h0c0,.1,0,.2,0,.2,0,0,.1.1.2.2.3.5.6,1,.9,1.6,0,0,0,.2,0,.2,0,0,0,0,0,.1h0c0,.2,0,.3.1.5,0,.1,0,.2.1.3v.2c.1,0,.1.2.2.3,0,.1,0,.2,0,.3v.2c0,.1,0,.2.1.3,0,.1,0,.2,0,.3v.2c0,.1,0,.2,0,.4,0,.1,0,.2,0,.3v.3c0,.1,0,.2,0,.4,0,.1,0,.2,0,.4h0c0,.2,0,.2,0,.3,0,0,0,.2,0,.3,0,.3,0,.6-.1.9h0c0,.4-.1.7-.2,1,0,0,0,.2,0,.3,0,0,0,0,0,.1h0c0,.2,0,.4-.1.5,0,.1,0,.2-.1.3v.2c-.2,0-.2.2-.2.3,0,.1-.1.2-.2.3v.2c-.2,0-.2.2-.3.3,0,0-.1.2-.2.3v.2c-.2,0-.3.2-.3.3,0,0-.1.2-.2.2l-.2.2c0,0-.1.2-.2.3,0,0-.2.2-.3.2h0c0,.1,0,.2-.1.2,0,0-.1.1-.2.2-.2.2-.5.4-.7.6l-24.4,17.2,23.3-17.7c.2-.2.5-.4.7-.6,0,0,.1-.1.2-.2,0,0,0,0,0,0h0c0-.2.2-.3.3-.4h0c0,0,.2-.2.2-.3v-.2c.2,0,.3-.2.4-.3,0,0,.1-.2.2-.3v-.2c.2,0,.3-.2.3-.3,0,0,.1-.2.2-.3v-.2c.2-.1.2-.2.3-.3,0,0,0-.2.1-.3v-.2c.1-.1.2-.2.2-.3,0-.1,0-.2.1-.4h0c0-.2,0-.2,0-.2,0,0,0-.2,0-.3,0-.3.1-.6.2-.9h0c0-.4,0-.7.1-1,0,0,0-.2,0-.3,0,0,0,0,0-.1h0c0-.3,0-.4,0-.5,0-.1,0-.2,0-.4v-.2c0-.1,0-.2,0-.3,0-.1,0-.3,0-.4v-.2c0-.1,0-.2,0-.3,0-.1,0-.2,0-.3v-.2c0-.1-.1-.2-.1-.4,0-.1,0-.2-.1-.3v-.2c-.1-.1-.2-.2-.2-.3,0-.1-.1-.2-.2-.3h0c0-.2,0-.2,0-.2,0,0,0-.2-.1-.3-.3-.6-.6-1.1-1-1.6,0,0-.1-.1-.2-.2,0,0,0,0,0,0h0c0-.2-.2-.3-.3-.4,0,0-.2-.2-.3-.2l-.2-.2c0,0-.2-.1-.2-.2,0,0-.2-.1-.3-.2h-.2c0-.2-.2-.3-.3-.3,0,0-.2-.1-.3-.2h-.2c0-.2-.2-.2-.3-.3,0,0,.2,0,.2,0,0,0,.2,0,.2,0,0,0,0,0,.1,0h.1c.1,0,.2.1.3.2,0,0,.2,0,.3.1h.2c0,.2.2.2.2.3,0,0,.2.1.3.2ZM162,74.5c0,0,.2.1.3.2h.2c0,.2.2.2.2.3,0,0,.2.1.2.2h.2c0,.2.2.3.2.3,0,0,.1.1.2.2l.2.2c0,0,.2.1.2.2,0,0,.2.2.2.3h0c0,.1,0,.2,0,.2,0,0,.1.1.2.2.4.5.7.9.9,1.5,0,0,0,.2.1.2,0,0,0,0,0,.1h0c0,.2,0,.3.1.4,0,.1,0,.2.1.3v.2c.1,0,.1.2.2.3,0,.1,0,.2,0,.3v.2c0,.1.1.2.1.3,0,.1,0,.2,0,.3v.2c0,.1,0,.2,0,.3,0,0,0,.2,0,.3v.3c0,.1,0,.2,0,.3,0,.1,0,.2,0,.4h0c0,.2,0,.2,0,.3,0,0,0,.2,0,.3,0,.3,0,.6,0,.8h0c0,.4-.1.7-.2,1,0,0,0,.2,0,.3,0,0,0,0,0,.1h0c0,.2,0,.3-.1.5,0,.1,0,.2-.1.3v.2c-.1,0-.2.2-.2.3,0,.1-.1.2-.2.3v.2c-.2,0-.2.2-.3.3,0,0-.1.2-.2.3v.2c-.2,0-.3.2-.3.3,0,0-.1.2-.2.2l-.2.2c0,0-.1.2-.2.3,0,0-.2.2-.2.3h0c0,.1,0,.2-.1.2,0,0-.1.1-.2.2-.2.2-.4.4-.7.6l-22.7,17.3,21.7-17.7c.2-.2.5-.4.7-.6,0,0,.1-.1.2-.2s0,0,0,0h0c0-.2.2-.3.2-.4h0c0,0,.1-.2.2-.3v-.2c.2,0,.3-.2.3-.3,0,0,.1-.2.2-.3v-.2c.2,0,.2-.2.3-.3,0,0,.1-.2.1-.3v-.2c.1-.1.2-.2.3-.3,0,0,0-.2.1-.3v-.2c.1-.1.2-.2.2-.3,0-.1,0-.2.1-.4h0c0-.2,0-.2,0-.2,0,0,0-.2,0-.3,0-.3.1-.5.1-.8h0v-.2c0-.3,0-.6,0-.9,0,0,0-.2,0-.3,0,0,0,0,0-.1h0c0-.2,0-.4,0-.5,0-.1,0-.2,0-.4v-.2c0-.1,0-.2,0-.3,0-.1,0-.2,0-.4v-.2c0-.1,0-.2-.1-.3,0-.1,0-.2,0-.3v-.2c0-.1-.1-.2-.2-.3,0-.1,0-.2-.1-.3v-.2c-.1-.1-.2-.2-.2-.3,0-.1-.1-.2-.2-.3h0c0-.1,0-.2,0-.2,0,0,0-.2-.1-.2-.3-.5-.7-1-1.1-1.5,0,0-.1-.1-.2-.2s0,0,0,0h0c0-.2-.2-.3-.3-.3,0,0-.2-.2-.3-.2h-.2c0-.2-.2-.3-.2-.3,0,0-.2-.1-.3-.2h-.2c0-.2-.2-.2-.3-.3,0,0-.2-.1-.3-.2h-.2c0-.1-.1-.2-.2-.2,0,0,.1,0,.2,0,0,0,.1,0,.2,0,0,0,0,0,.1,0h.1c.1,0,.2.1.3.2,0,0,.2,0,.3.1h.2c0,.1.2.2.2.2ZM159.9,74.3c0,0,.2,0,.3.1h.2c0,.2.2.2.2.2,0,0,.2.1.2.2h.2c0,.2.2.2.3.3,0,0,.1.1.2.2l.2.2c0,0,.2.1.2.2,0,0,.2.2.2.2h0c0,.1,0,.1,0,.2,0,0,.1.1.2.2.4.4.7.9,1,1.4,0,0,0,.1.1.2,0,0,0,0,0,.1h0c0,.2.1.3.2.4,0,0,0,.2.1.3v.2c.1,0,.2.2.2.3,0,.1,0,.2,0,.3v.2c0,0,.1.2.1.3,0,0,0,.2,0,.3v.2c0,.1,0,.2.1.3,0,0,0,.2,0,.3v.2c0,.1,0,.2,0,.3,0,.1,0,.2,0,.3h0c0,.2,0,.2,0,.3,0,0,0,.2,0,.3,0,.3,0,.5,0,.8h0c0,.4,0,.6-.2.9,0,0,0,.2,0,.2,0,0,0,0,0,.1h0c0,.2,0,.3,0,.4,0,.1,0,.2-.1.3v.2c-.1,0-.2.2-.2.3,0,.1,0,.2-.1.3v.2c-.1,0-.2.2-.2.3,0,0-.1.2-.2.3v.2c-.2,0-.2.2-.3.3,0,0-.1.2-.2.2v.2c-.2,0-.3.2-.3.3,0,0-.1.2-.2.2h0c0,.1,0,.2,0,.2,0,0-.1.1-.2.2-.2.2-.4.4-.6.6l-21.1,17.2,20.1-17.5c.2-.2.4-.4.6-.6,0,0,.1-.1.2-.2,0,0,0,0,0,0h0c0-.2.2-.3.2-.4,0,0,.1-.2.2-.3v-.2c.2,0,.2-.2.3-.3,0,0,.1-.2.2-.3v-.2c.2,0,.2-.2.3-.3,0,0,0-.2.1-.3v-.2c.1-.1.2-.2.2-.3,0,0,0-.2,0-.3v-.2c.1-.1.1-.2.2-.3,0-.1,0-.2,0-.4h0c0-.1,0-.2,0-.2,0,0,0-.2,0-.3,0-.3,0-.5.1-.8h0c0-.4,0-.7,0-1,0,0,0-.2,0-.3,0,0,0,0,0-.1h0c0-.2,0-.4,0-.5,0-.1,0-.2,0-.3v-.2c0,0,0-.2,0-.3,0-.1,0-.2,0-.3v-.2c0-.1-.1-.2-.1-.3,0-.1,0-.2-.1-.3v-.2c-.1-.1-.1-.2-.2-.3,0,0,0-.2-.1-.3v-.2c-.1-.1-.2-.2-.2-.3,0-.1-.1-.2-.2-.3h0c0-.1,0-.2,0-.2,0,0,0-.2-.1-.2-.3-.5-.7-.9-1.1-1.4,0,0-.1-.1-.2-.2,0,0,0,0,0,0h0c0-.2-.2-.2-.3-.3,0,0-.2-.1-.3-.2h-.2c0-.2-.2-.3-.2-.3,0,0-.2-.1-.3-.2h-.2c0-.2-.2-.2-.3-.3,0,0-.2,0-.3-.1h-.2c0-.1,0-.1-.1-.1,0,0,0,0,0,0,0,0,.1,0,.2,0,0,0,0,0,.1,0h.1c.1,0,.2,0,.3.1,0,0,.2,0,.3.1h.2c0,.1.2.2.2.2ZM157.9,74.2c0,0,.2,0,.3.1h.2c0,.1.2.2.2.2,0,0,.2,0,.2.1h.2c0,.2.2.2.3.3,0,0,.1.1.2.2h.2c0,.2.2.3.2.3,0,0,.2.1.2.2h0c0,.1,0,.1,0,.2,0,0,.1.1.2.2.4.4.7.8,1,1.3,0,0,0,.1.1.2,0,0,0,0,0,.1h0c0,.2.1.3.2.4,0,0,0,.2.1.3v.2c.1,0,.2.2.2.3,0,0,0,.2.1.3v.2c.1,0,.1.2.2.3,0,0,0,.2,0,.3v.2c0,.1.1.2.1.3,0,0,0,.2,0,.3v.2c0,.1,0,.2,0,.3,0,.1,0,.2,0,.3h0c0,.2,0,.2,0,.3,0,0,0,.2,0,.2,0,.3,0,.5,0,.8h0c0,.3,0,.6-.1.9,0,0,0,.2,0,.2,0,0,0,0,0,.1h0c0,.2,0,.3,0,.4,0,.1,0,.2,0,.3v.2c-.1,0-.1.2-.2.3,0,.1,0,.2-.1.3v.2c-.1,0-.2.2-.2.3,0,0,0,.2-.1.3v.2c-.2,0-.2.2-.3.3,0,0-.1.2-.2.2v.2c-.2,0-.2.2-.3.3,0,0-.1.2-.2.3h0c0,.1,0,.2,0,.2,0,0,0,.1-.2.2-.2.2-.4.4-.6.6l-19.6,17.1,18.5-17.3c.2-.2.4-.4.6-.6,0,0,.1-.1.2-.2,0,0,0,0,0,0h0c0-.2.1-.3.2-.4h0c0,0,.1-.2.2-.3v-.2c.2,0,.2-.2.3-.3,0,0,.1-.2.2-.3v-.2c.1,0,.2-.2.2-.3,0,0,0-.2.1-.3v-.2c.1-.1.2-.2.2-.3,0,0,0-.2,0-.3v-.2c0-.1.1-.2.2-.3,0-.1,0-.2,0-.3h0c0-.1,0-.2,0-.2,0,0,0-.2,0-.3,0-.2,0-.5,0-.7h0c0-.4,0-.7,0-1,0,0,0-.2,0-.3,0,0,0,0,0-.1h0c0-.2,0-.3,0-.5,0-.1,0-.2,0-.3v-.2c0,0,0-.2-.1-.3,0-.1,0-.2,0-.3v-.2c0,0-.1-.2-.2-.3,0,0,0-.2-.1-.3v-.2c-.1-.1-.2-.2-.2-.3,0,0,0-.2-.1-.3v-.2c-.2,0-.2-.2-.3-.3,0,0-.1-.2-.2-.3h0c0-.1,0-.2,0-.2,0,0,0-.1-.1-.2-.3-.5-.7-.9-1.1-1.3,0,0-.1-.1-.2-.2,0,0,0,0,0,0h0c0-.1-.2-.2-.3-.3,0,0-.2-.1-.3-.2h-.2c0-.2-.2-.2-.2-.3,0,0-.2-.1-.3-.2h-.2c0-.1-.2-.2-.3-.2,0,0-.2,0-.3-.1h-.2c0,0,.1,0,.2,0,0,0,0,0,.1,0h.1c.1,0,.2,0,.3.1,0,0,.2,0,.3,0h.2c0,.1.2.1.2.2ZM155.9,74.2c0,0,.2,0,.3.1h.2c0,.1.2.2.2.2,0,0,.2,0,.2.1h.2c0,.1.2.2.3.2,0,0,.1,0,.2.1h.2c0,.2.2.2.2.3,0,0,.2.1.2.2h0c0,.1,0,.1.1.2,0,0,.1,0,.2.1.4.4.7.8,1.1,1.2,0,0,0,.1.1.2,0,0,0,0,0,.1h0c0,.2.1.3.2.4,0,0,0,.2.1.3v.2c.1,0,.2.2.2.2,0,0,0,.2.1.3v.2c.1,0,.2.2.2.3,0,0,0,.2,0,.3v.2c0,0,.1.2.1.3,0,0,0,.2,0,.3v.2c0,0,0,.2.1.3,0,.1,0,.2,0,.3h0c0,.2,0,.2,0,.2,0,0,0,.2,0,.2,0,.2,0,.5,0,.7h0c0,.3,0,.6,0,.9,0,0,0,.2,0,.2,0,0,0,0,0,.1h0c0,.2,0,.3,0,.4,0,0,0,.2,0,.3v.2c0,0-.1.2-.1.2,0,0,0,.2-.1.3v.2c-.1,0-.1.2-.2.3,0,0,0,.2-.1.2v.2c-.1,0-.2.2-.2.3,0,0,0,.2-.1.2v.2c-.2,0-.2.2-.3.2,0,0-.1.2-.2.2h0c0,.1,0,.2,0,.2,0,0,0,.1-.1.2-.2.2-.4.4-.6.6l-18,16.9,17.1-17.1c.2-.2.4-.4.6-.6,0,0,.1-.1.2-.2,0,0,0,0,0,0h0c0-.2.1-.3.2-.4h0c0,0,.1-.2.2-.3v-.2c.2,0,.2-.2.3-.3,0,0,0-.2.1-.3v-.2c.1,0,.2-.2.2-.3,0,0,0-.2.1-.3v-.2c.1-.1.1-.2.2-.3,0,0,0-.2,0-.3v-.2c0-.1.1-.2.1-.3,0-.1,0-.2,0-.3v-.2c0,0,0-.2,0-.3,0-.2,0-.5,0-.7h0c0-.4,0-.7,0-.9,0,0,0-.2,0-.3,0,0,0,0,0-.1h0c0-.2,0-.3,0-.4,0-.1,0-.2,0-.3v-.2c0,0,0-.2-.1-.3,0-.1,0-.2-.1-.3v-.2c0,0-.1-.2-.2-.3,0,0,0-.2-.1-.3v-.2c-.1,0-.2-.2-.2-.3,0,0,0-.2-.1-.3v-.2c-.2,0-.2-.2-.3-.3,0,0-.1-.2-.2-.3h0c0-.1,0-.2,0-.2,0,0,0-.1-.2-.2-.3-.4-.7-.8-1.2-1.2,0,0-.1-.1-.2-.2,0,0,0,0,0,0h0c0-.1-.2-.2-.3-.3,0,0-.2-.1-.3-.2h-.2c0-.2-.2-.2-.3-.3,0,0-.2,0-.3-.1h-.2c0-.1-.2-.2-.3-.2,0,0-.2,0-.3-.1h0s0,0,0,0c0,0,0,0,.1,0h.1c.1,0,.2,0,.3,0,0,0,.2,0,.3,0h.2c0,0,.2.1.2.1ZM144.9,74l9,14.1h-.3s-10.1-14.1-10.1-14.1h1.4ZM152.5,87.6h-.3s-10.9-13.6-10.9-13.6h1.4l9.8,13.6ZM151.2,87.3h-.2s-11.9-13.3-11.9-13.3h1.5l10.6,13.3ZM149.9,87h-.2s-13-13-13-13h1.6l11.6,13ZM148.6,86.8h-.2s-14.2-12.8-14.2-12.8h1.7l12.7,12.8ZM147.3,86.7h-.2s-15.7-12.7-15.7-12.7h1.8l14,12.7ZM146.1,86.6h-.1s-17.4-12.6-17.4-12.6h2l15.5,12.6ZM144.9,86.6h-.1s-19.4-12.6-19.4-12.6h2.2l17.3,12.6ZM143.7,86.6h0s-21.8-12.6-21.8-12.6h2.6l19.4,12.6ZM142.5,86.7h0s-24.8-12.7-24.8-12.7h3l21.9,12.7ZM141.3,86.8h0s-28.6-12.9-28.6-12.9h3.6l25,12.9ZM111.8,74.2l28.4,12.8h0s-29.2-11.4-29.2-11.4c-1-.4-1.8-.9-2.6-1.6h2.9c.2,0,.3.2.5.3ZM110.8,76.1l28.1,11-28.9-9.7c-1.8-.6-3.4-1.9-4.4-3.5,0,0,.2,0,.3,0h1.7c.9.9,2,1.7,3.2,2.2ZM109.8,78l27.6,9.3-28.3-8c-2.5-.7-4.5-2.6-5.5-5,.4-.1.9-.2,1.3-.3,1.1,1.9,2.8,3.3,4.9,4ZM109,79.9l27,7.6-27.6-6.4c-3.1-.7-5.4-3.1-6.2-6.2.3-.2.6-.3.9-.4,1.1,2.6,3.2,4.6,5.9,5.4ZM108.3,81.7l26.3,6.1-26.8-4.9c-3.5-.6-6.1-3.6-6.8-7.1.2-.2.4-.3.7-.5,1,3.2,3.4,5.7,6.6,6.4ZM107.6,83.5l25.5,4.6-26-3.5c-3.9-.5-6.8-3.9-7.1-7.9.1-.2.3-.3.4-.5.8,3.6,3.5,6.6,7.2,7.3ZM80.2,134c0,0-.2-.2-.2-.3l-.2-.2c0,0-.2-.2-.2-.3,0,0-.1-.2-.2-.3l-.2-.2c0-.1-.1-.2-.2-.3,0,0-.1-.2-.2-.3v-.3c-.2-.1-.3-.2-.3-.3,0-.1-.1-.3-.2-.4h0c0-.2,0-.2,0-.3,0,0,0-.2-.1-.3-.3-.7-.4-1.4-.6-2.1,0-.1,0-.2,0-.3,0,0,0-.1,0-.2v-.2c0-.1,0-.3,0-.4,0-.1,0-.3,0-.4v-.3c0-.1,0-.3,0-.4,0-.1,0-.3,0-.4v-.3c0-.1,0-.3,0-.4,0-.1,0-.3,0-.4v-.3c0-.1,0-.3,0-.4,0-.1,0-.2,0-.4v-.3c0-.1.1-.3.2-.4,0-.1,0-.3.1-.4v-.2c0,0,0-.1,0-.2,0-.1,0-.2,0-.3.1-.4.3-.7.4-1h0c.1-.4.3-.7.5-1.1,0,0,.1-.2.2-.3,0,0,0-.1,0-.2h0c0-.3.1-.4.2-.5,0-.1.2-.2.2-.3l.2-.3c0,0,.1-.2.2-.3,0-.1.2-.2.3-.3l.2-.2c0,0,.2-.2.3-.3,0,0,.2-.2.3-.3l.2-.2c0,0,.2-.2.3-.3,0,0,.2-.2.3-.2l.2-.2c.1,0,.2-.2.3-.2.1,0,.2-.2.3-.2h.1c0-.1,0-.1.1-.2,0,0,.2-.1.3-.2.3-.2.6-.3.9-.5l33.3-15.7-32.4,16.7c-.3.2-.6.3-.9.5,0,0-.2.1-.3.2,0,0,0,0-.1,0h-.1c-.1.2-.2.2-.4.3-.1,0-.2.2-.3.3l-.2.2c0,0-.2.2-.3.2-.1,0-.2.2-.3.3l-.2.2c0,0-.2.2-.3.3,0,.1-.2.2-.3.3l-.2.2c0,.1-.2.2-.3.3,0,.1-.1.2-.2.3l-.2.3c0,.1-.2.2-.2.4,0,.1-.2.3-.2.4h0c0,.2,0,.2,0,.3,0,.1-.1.2-.2.3-.2.4-.3.7-.5,1.1-.1.3-.3.7-.4,1.1,0,.1,0,.2,0,.3,0,0,0,.1,0,.2h0c0,.3,0,.4-.1.6,0,.1,0,.3,0,.4v.3c0,.1,0,.3-.1.4,0,.2,0,.3,0,.5v.3c0,.1,0,.3,0,.4,0,.1,0,.3,0,.4v.3c0,.1,0,.3,0,.4,0,.1,0,.3,0,.4v.3c0,.1,0,.3,0,.4,0,.2,0,.3,0,.4h0c0,.2,0,.3,0,.3,0,.1,0,.2,0,.3.2.7.4,1.4.7,2.1,0,.1,0,.2.1.3,0,0,0,0,0,.1h0c0,.3.1.4.2.5,0,.1.1.2.2.3v.2c.2.1.3.2.3.3,0,.1.2.2.2.3l.2.2c0,0,.2.2.2.3,0,0,.2.2.3.3l.2.2c0,0,.2.2.3.3,0,0,.2.2.3.2l.2.2c-.2-.1-.5-.3-.7-.4,0,0-.1-.1-.2-.2,0,0,0,0-.1,0h-.1c-.1-.2-.2-.2-.3-.3,0,0-.2-.2-.3-.2l-.2-.2c0,0-.2-.1-.2-.2ZM82.4,134.8c0,0-.2-.2-.2-.3l-.2-.2c0,0-.2-.2-.2-.2,0,0-.1-.2-.2-.3l-.2-.2c0,0-.2-.2-.2-.3,0,0-.1-.2-.2-.3l-.2-.2c0-.1-.1-.2-.2-.3,0-.1-.1-.2-.2-.4h0c0-.2,0-.2,0-.3,0,0,0-.2-.1-.3-.3-.6-.5-1.3-.7-2,0-.1,0-.2,0-.3,0,0,0-.1,0-.2v-.2c0-.1,0-.3-.1-.4,0-.1,0-.3,0-.4v-.3c0-.1,0-.2,0-.4,0-.1,0-.3,0-.4v-.3c0-.1,0-.3,0-.4,0-.1,0-.3,0-.4v-.3c0-.1,0-.3,0-.4,0-.1,0-.2,0-.4v-.3c0-.1,0-.3.1-.4,0-.1,0-.3.1-.4h0c0-.2,0-.3,0-.3,0-.1,0-.2,0-.3.1-.4.2-.7.3-1,.1-.3.3-.7.4-1,0,0,0-.2.1-.3,0,0,0-.1,0-.2h0c0-.3.1-.4.2-.5,0-.1.1-.2.2-.3l.2-.3c0,0,.1-.2.2-.3,0-.1.2-.2.2-.3l.2-.2c0,0,.2-.2.2-.3,0,0,.2-.2.2-.3l.2-.2c0,0,.2-.2.3-.3,0,0,.2-.2.3-.2l.2-.2c0,0,.2-.2.3-.3.1,0,.2-.2.3-.2h.1c0-.1,0-.1.1-.2,0,0,.2-.1.2-.2.3-.2.6-.4.9-.5l31.5-16.2-30.5,17.1c-.3.2-.6.3-.9.5,0,0-.2.1-.3.2,0,0,0,0-.1,0h-.1c-.1.2-.2.3-.3.3-.1,0-.2.2-.3.3l-.2.2c0,0-.2.2-.3.3,0,0-.2.2-.3.3l-.2.2c0,0-.2.2-.2.3,0,.1-.2.2-.2.3l-.2.2c0,.1-.2.2-.2.3,0,.1-.1.2-.2.3l-.2.3c0,.1-.1.2-.2.4,0,.1-.1.3-.2.4h0c0,.2,0,.2,0,.3,0,.1-.1.2-.1.3-.2.3-.3.7-.4,1-.1.3-.2.7-.3,1.1,0,.1,0,.2,0,.3,0,0,0,.1,0,.2h0c0,.3,0,.4,0,.6,0,.1,0,.3,0,.4v.3c0,.1,0,.2,0,.4,0,.1,0,.3,0,.4v.3c0,.1,0,.3,0,.4,0,.1,0,.3,0,.4v.3c0,.1,0,.3,0,.4,0,.1,0,.2,0,.4v.3c0,.1,0,.3.1.4,0,.1,0,.3,0,.4h0c0,.2,0,.2,0,.3,0,.1,0,.2,0,.3.2.7.5,1.4.8,2,0,0,0,.2.2.3,0,0,0,0,0,.1h0c0,.2.1.4.2.5,0,.1.1.2.2.3l.2.2c0,0,.1.2.2.3,0,.1.2.2.3.3l.2.2c0,0,.2.2.2.3,0,0,.2.2.3.3l.2.2c0,0,.2.2.3.3,0,0,.2.1.3.2h0c-.2,0-.4-.1-.7-.3,0,0-.1,0-.2-.1,0,0,0,0-.1,0h-.1c-.1-.1-.2-.2-.3-.3,0,0-.2-.1-.3-.2l-.2-.2c0,0-.2-.1-.2-.2ZM84.3,135.3l-.2-.2c0,0-.2-.1-.2-.2,0,0-.1-.2-.2-.2l-.2-.2c0,0-.2-.2-.2-.3,0,0-.1-.2-.2-.3l-.2-.2c0,0-.1-.2-.2-.3,0-.1-.1-.2-.2-.3h0c0-.2,0-.2,0-.3,0,0,0-.2-.1-.2-.3-.6-.5-1.2-.7-1.9,0,0,0-.2,0-.3,0,0,0-.1,0-.2h0c0-.3,0-.4,0-.5,0-.1,0-.3,0-.4v-.3c0-.1,0-.2,0-.3,0-.1,0-.3,0-.4v-.3c0-.1,0-.2,0-.4,0-.1,0-.2,0-.4v-.3c0-.1,0-.3,0-.4,0-.1,0-.2,0-.3v-.3c0-.1,0-.3,0-.4,0-.1,0-.3,0-.4h0c0-.2,0-.3,0-.3,0-.1,0-.2,0-.3,0-.4.2-.7.3-1,.1-.3.2-.7.4-1,0,0,0-.2.1-.3,0,0,0-.1,0-.2h0c0-.3.1-.4.2-.5,0-.1.1-.2.2-.3l.2-.3c0,0,.1-.2.2-.3,0-.1.2-.2.2-.3l.2-.2c0,0,.1-.2.2-.3,0,0,.2-.2.2-.3l.2-.2c0,0,.2-.2.3-.3,0,0,.2-.2.2-.2l.2-.2c0,0,.2-.2.3-.3.1,0,.2-.2.3-.2h.1c0-.1,0-.1.1-.2,0,0,.2-.1.2-.2.3-.2.6-.4.8-.5l29.6-16.6-28.6,17.4c-.3.2-.6.4-.8.6,0,0-.2.1-.2.2,0,0,0,0-.1,0h-.1c-.1.2-.2.3-.3.4,0,0-.2.2-.3.3l-.2.2c0,0-.2.2-.2.3,0,0-.2.2-.3.3l-.2.2c0,0-.2.2-.2.3,0,.1-.1.2-.2.3v.2c-.2.1-.3.2-.4.3,0,.1-.1.2-.2.3v.2c-.2.1-.3.2-.3.4,0,.1-.1.3-.2.4h0c0,.2,0,.2,0,.3,0,0,0,.2-.1.3-.1.3-.2.7-.3,1h0c0,.4-.2.7-.3,1.1,0,.1,0,.2,0,.3,0,0,0,.1,0,.2h0c0,.3,0,.4,0,.6,0,.1,0,.3,0,.4v.3c0,.1,0,.2,0,.4,0,.1,0,.3,0,.4v.3c0,.1,0,.3,0,.4,0,.1,0,.3,0,.4v.3c0,.1,0,.3,0,.4,0,.1,0,.2,0,.4v.3c0,.1,0,.3.1.4,0,.1,0,.3.1.4h0c0,.2,0,.2,0,.3,0,.1,0,.2,0,.3.2.7.5,1.3.8,1.9,0,0,.1.2.2.3,0,0,0,0,0,.1h0c0,.2.1.3.2.5,0,.1.2.2.2.3l.2.2c0,0,.1.2.2.3,0,0,.2.2.3.3l.2.2c0,0,.2.2.2.3,0,0,.2.2.3.2l.2.2c0,0,.2.2.3.2,0,0,.2.1.3.2h0c-.2,0-.4-.2-.6-.3,0,0-.2,0-.2-.1,0,0,0,0-.1,0h-.1c-.1-.1-.2-.2-.3-.3,0,0-.2-.1-.3-.2l-.2-.2c0,0-.2-.1-.2-.2,0,0-.2-.2-.3-.2ZM86.4,136l-.2-.2c0,0-.2-.1-.2-.2,0,0-.1-.2-.2-.2l-.2-.2c0,0-.2-.2-.2-.3,0,0-.1-.2-.2-.2l-.2-.2c0,0-.1-.2-.2-.3,0-.1-.1-.2-.2-.3h0c0-.2,0-.2,0-.2,0,0,0-.1-.1-.2-.3-.6-.6-1.2-.8-1.8,0,0,0-.2,0-.3,0,0,0,0,0-.1h0c0-.3,0-.4-.1-.5,0-.1,0-.2,0-.4v-.3c0-.1,0-.2-.1-.3,0-.1,0-.3,0-.4v-.3c0-.1,0-.2,0-.3,0-.1,0-.2,0-.4v-.3c0-.1,0-.3,0-.4,0-.1,0-.2,0-.3v-.3c0-.1,0-.3,0-.4,0-.1,0-.3,0-.4h0c0-.2,0-.2,0-.3,0,0,0-.2,0-.3,0-.3.1-.7.2-1h0c0-.3.2-.7.3-1,0,0,0-.2.1-.3,0,0,0-.1,0-.2h0c0-.3.1-.4.2-.5,0-.1.1-.2.2-.3v-.3c.2,0,.2-.2.3-.3,0-.1.1-.2.2-.3v-.2c.2,0,.3-.2.3-.3,0,0,.1-.2.2-.3l.2-.2c0,0,.2-.2.2-.3,0,0,.1-.2.2-.2l.2-.2c0,0,.2-.2.3-.3,0,0,.2-.2.3-.2h.1c0-.1,0-.2.1-.2,0,0,.1-.1.2-.2.3-.2.5-.4.8-.5l27.9-16.9-26.8,17.6c-.3.2-.5.4-.8.6,0,0-.2.1-.2.2,0,0,0,0-.1,0h0c-.1.2-.2.3-.3.4,0,0-.2.2-.3.3l-.2.2c0,0-.2.2-.2.3,0,0-.2.2-.2.3l-.2.2c0,0-.1.2-.2.3,0,.1-.1.2-.2.3v.2c-.2.1-.3.2-.3.3,0,0-.1.2-.2.3v.2c-.2.1-.2.2-.3.4,0,.1-.1.3-.2.4h0c0,.2,0,.2,0,.3,0,0,0,.2-.1.3-.1.3-.2.6-.3,1h0s0,0,0,0h0c0,.4-.1.7-.2,1,0,.1,0,.2,0,.3,0,0,0,0,0,.1h0c0,.3,0,.4,0,.6,0,.1,0,.3,0,.4v.3c0,.1,0,.2,0,.4,0,.1,0,.3,0,.4v.2c0,.1,0,.2,0,.4,0,.1,0,.2,0,.4v.3c0,.1,0,.3,0,.4,0,.1,0,.2,0,.3v.3c0,.1.1.3.2.4,0,.1,0,.3.1.4h0c0,.2,0,.2,0,.3,0,0,0,.2.1.3.2.6.5,1.2.9,1.8,0,0,.1.2.2.2,0,0,0,0,0,.1h0c0,.2.2.3.2.4,0,0,.2.2.2.3l.2.2c0,0,.1.2.2.3,0,0,.2.2.3.3l.2.2c0,0,.2.2.3.2,0,0,.2.1.3.2h.2c0,.2.2.3.3.4,0,0,.1,0,.2.1-.2,0-.3-.1-.5-.2,0,0-.2,0-.2-.1,0,0,0,0-.1,0h-.1c-.1-.1-.2-.2-.3-.2,0,0-.2-.1-.3-.2h-.2c0-.2-.2-.3-.2-.3,0,0-.2-.1-.3-.2ZM88.6,136.5l-.2-.2c0,0-.2-.1-.2-.2,0,0-.2-.1-.2-.2l-.2-.2c0,0-.2-.2-.2-.2,0,0-.1-.1-.2-.2l-.2-.2c0,0-.1-.2-.2-.3,0,0-.1-.2-.2-.3h0c0-.1,0-.2,0-.2,0,0-.1-.1-.1-.2-.3-.5-.6-1.1-.8-1.7,0,0,0-.2,0-.3,0,0,0,0,0-.1h0c0-.2,0-.4-.1-.5,0-.1,0-.2,0-.3v-.3c0-.1-.1-.2-.1-.3,0-.1,0-.2,0-.4v-.3c0-.1,0-.2,0-.3,0-.1,0-.2,0-.3v-.3c0-.1,0-.2,0-.4,0-.1,0-.2,0-.3v-.3c0-.1,0-.3,0-.4,0-.1,0-.3,0-.4h0c0-.2,0-.2,0-.3,0,0,0-.2,0-.3,0-.3.1-.6.2-.9h0c0-.4.2-.7.3-1,0,0,0-.2.1-.3,0,0,0,0,0-.1h0c0-.2,0-.4.1-.5,0-.1.1-.2.2-.3v-.3c.2,0,.2-.2.3-.3,0-.1.1-.2.2-.3v-.2c.2,0,.3-.2.3-.3,0,0,.1-.2.2-.3l.2-.2c0,0,.1-.2.2-.3,0,0,.1-.2.2-.2l.2-.2c0,0,.2-.2.2-.3,0,0,.2-.2.3-.2h0c0-.1,0-.2.1-.2,0,0,.1-.1.2-.2.2-.2.5-.4.7-.5l26.1-17.1-25.1,17.7c-.2.2-.5.4-.7.6,0,0-.1.1-.2.2,0,0,0,0,0,0h0c0,.2-.2.3-.3.4,0,0-.2.2-.2.3l-.2.2c0,0-.1.2-.2.3,0,0-.2.2-.2.3v.2c-.2,0-.3.2-.3.3,0,0-.1.2-.2.3v.2c-.2.1-.2.2-.3.3,0,0,0,.2-.1.3v.2c-.2.1-.2.2-.3.4,0,.1,0,.3-.1.4h0c0,.2,0,.2,0,.3,0,0,0,.2-.1.3,0,.3-.2.6-.3,1h0c0,.3-.1.7-.2,1,0,.1,0,.2,0,.3,0,0,0,0,0,.1h0c0,.3,0,.4,0,.5,0,.1,0,.3,0,.4v.3c0,.1,0,.2,0,.3,0,.1,0,.3,0,.4v.2c0,.1,0,.2,0,.4,0,.1,0,.2,0,.3v.2c0,.1,0,.2.1.4,0,.1,0,.2,0,.3v.2c.1.1.1.2.2.4,0,.1,0,.2.1.4h0c0,.2,0,.2,0,.2,0,0,0,.2.1.3.3.6.6,1.2,1,1.7,0,0,.1.2.2.2,0,0,0,0,0,.1h0c0,.2.2.3.2.4,0,0,.2.2.2.3l.2.2c0,0,.1.2.2.2,0,0,.2.2.3.2h.2c0,.2.2.3.3.4,0,0,.2.1.3.2h.2c0,.2.2.3.3.3,0,0,0,0,0,0-.1,0-.2,0-.4-.1,0,0-.2,0-.2-.1,0,0,0,0-.1,0h-.1c-.1,0-.2-.1-.3-.2,0,0-.2-.1-.3-.2h-.2c0-.2-.2-.2-.2-.3,0,0-.2-.1-.3-.2ZM90.7,136.9h-.2c0-.2-.2-.2-.2-.3,0,0-.2-.1-.2-.2l-.2-.2c0,0-.2-.1-.2-.2,0,0-.1-.1-.2-.2l-.2-.2c0,0-.2-.2-.2-.2,0,0-.2-.2-.2-.3h0c0-.1,0-.2,0-.2,0,0-.1-.1-.2-.2-.3-.5-.6-1-.9-1.6,0,0,0-.2-.1-.2,0,0,0,0,0-.1h0c0-.2,0-.3-.1-.5,0-.1,0-.2-.1-.3v-.3c-.1,0-.1-.2-.2-.3,0-.1,0-.2,0-.3v-.2c0-.1,0-.2-.1-.3,0-.1,0-.2,0-.3v-.2c0-.1,0-.2,0-.4,0-.1,0-.2,0-.3v-.3c0-.1,0-.2,0-.4,0-.1,0-.2,0-.4h0c0-.2,0-.2,0-.3,0,0,0-.2,0-.3,0-.3,0-.6.2-.9h0c0-.3.1-.6.2-.9,0,0,0-.2,0-.3,0,0,0,0,0-.1h0c0-.2,0-.4.1-.5,0-.1,0-.2.1-.3v-.2c.2,0,.2-.2.2-.3,0-.1.1-.2.2-.3v-.2c.2,0,.2-.2.3-.3,0,0,.1-.2.2-.3v-.2c.2,0,.3-.2.3-.3,0,0,.1-.2.2-.2l.2-.2c0,0,.1-.2.2-.3,0,0,.2-.2.3-.3h0c0-.1,0-.2.1-.2,0,0,.1-.1.2-.2.2-.2.5-.4.7-.6l24.4-17.2-23.4,17.7c-.2.2-.5.4-.7.6,0,0-.1.1-.2.2,0,0,0,0,0,0h0c0,.2-.2.3-.3.4,0,0-.2.2-.2.3l-.2.2c0,0-.1.2-.2.3,0,0-.1.2-.2.3v.2c-.2,0-.3.2-.3.3,0,0-.1.2-.2.3v.2c-.2.1-.2.2-.3.3,0,0,0,.2-.1.3v.2c-.1.1-.2.2-.2.3,0,.1,0,.2-.1.4h0c0,.2,0,.2,0,.3,0,0,0,.2,0,.3,0,.3-.1.6-.2.9h0s0,0,0,0h0c0,.3,0,.6-.1.9,0,0,0,.2,0,.3,0,0,0,0,0,.1h0c0,.3,0,.4,0,.5,0,.1,0,.3,0,.4v.2c0,.1,0,.2,0,.3,0,.1,0,.2,0,.4v.2c0,.1,0,.2,0,.3,0,.1,0,.2,0,.3v.2c0,.1.1.2.1.4,0,.1,0,.2.1.3v.2c.1.1.2.2.2.3,0,.1.1.2.2.3h0c0,.2,0,.2,0,.2,0,0,0,.2.1.3.3.6.6,1.1,1,1.6,0,0,.1.1.2.2,0,0,0,0,0,0h0c0,.2.2.3.3.4,0,0,.2.2.3.2l.2.2c0,0,.2.1.2.2,0,0,.2.1.3.2h.2c0,.2.2.3.3.3,0,0,.2.1.3.2h.2c0,.2.2.2.3.3,0,0-.2,0-.2,0,0,0-.2,0-.2,0,0,0,0,0-.1,0h-.1c-.1,0-.2-.1-.3-.2,0,0-.2,0-.3-.1h-.2c0-.2-.2-.2-.2-.3,0,0-.2-.1-.3-.2ZM93,137.4c0,0-.2-.1-.3-.2h-.2c0-.2-.2-.2-.2-.3,0,0-.2-.1-.2-.2h-.2c0-.2-.2-.3-.3-.3,0,0-.1-.1-.2-.2l-.2-.2c0,0-.2-.1-.2-.2,0,0-.2-.2-.2-.3h0c0-.1,0-.2,0-.2,0,0-.1-.1-.2-.2-.4-.5-.7-.9-.9-1.5,0,0,0-.2-.1-.2,0,0,0,0,0-.1h0c0-.2,0-.3-.1-.4,0-.1,0-.2-.1-.3v-.2c-.1,0-.2-.2-.2-.3,0-.1,0-.2,0-.3v-.2c0-.1-.1-.2-.1-.3,0-.1,0-.2,0-.3v-.2c0-.1,0-.2,0-.3,0,0,0-.2,0-.3v-.3c0-.1,0-.2,0-.3,0-.1,0-.2,0-.4h0c0-.2,0-.2,0-.3,0,0,0-.2,0-.3,0-.3,0-.6.1-.9h0c0-.3.1-.6.2-.9,0,0,0-.2,0-.2,0,0,0,0,0-.1h0c0-.2,0-.3.1-.5,0-.1,0-.2.1-.3v-.2c.1,0,.2-.2.2-.3,0-.1.1-.2.2-.3v-.2c.2,0,.2-.2.3-.3,0,0,.1-.2.2-.3v-.2c.2,0,.3-.2.3-.3,0,0,.1-.2.2-.2l.2-.2c0,0,.1-.2.2-.3,0,0,.2-.2.2-.3h0c0-.1,0-.2,0-.2,0,0,.1-.1.2-.2.2-.2.4-.4.7-.6l22.7-17.3-21.7,17.7c-.2.2-.4.4-.7.6,0,0-.1.1-.2.2,0,0,0,0,0,0h0c0,.2-.2.3-.2.4,0,0-.1.2-.2.3v.2c-.2,0-.3.2-.3.3,0,0-.1.2-.2.3v.2c-.2,0-.2.2-.3.3,0,0-.1.2-.1.3v.2c-.1.1-.2.2-.3.3,0,0,0,.2-.1.3v.2c-.1.1-.2.2-.2.3,0,.1,0,.2-.1.4h0c0,.2,0,.2,0,.2,0,0,0,.2,0,.3,0,.3-.1.6-.2.9h0c0,.4,0,.7,0,1,0,0,0,.2,0,.3,0,0,0,0,0,.1h0c0,.2,0,.4,0,.5,0,.1,0,.2,0,.4v.2c0,.1,0,.2,0,.3,0,.1,0,.2,0,.4v.2c0,.1,0,.2.1.3,0,.1,0,.2,0,.3v.2c0,.1.1.2.2.3,0,0,0,.2.1.3v.2c.1.1.2.2.2.3,0,.1.1.2.2.3h0c0,.1,0,.2,0,.2,0,0,0,.2.1.2.3.5.7,1,1.1,1.5,0,0,.1.1.2.2,0,0,0,0,0,0h0c0,.2.2.3.3.3,0,0,.2.2.3.2h.2c0,.2.2.3.2.3,0,0,.2.1.3.2h.2c0,.2.2.2.3.3,0,0,.2.1.3.2h.2c0,.1.1.2.2.2,0,0-.1,0-.2,0,0,0-.1,0-.2,0,0,0,0,0-.1,0h-.1c-.1,0-.2-.1-.3-.2,0,0-.2,0-.3-.1h-.2c0-.1-.2-.2-.2-.2ZM95.1,137.6c0,0-.2,0-.3-.1h-.2c0-.2-.2-.2-.2-.2,0,0-.2-.1-.2-.2h-.2c0-.2-.2-.2-.3-.3,0,0-.1-.1-.2-.2l-.2-.2c0,0-.2-.1-.2-.2,0,0-.2-.2-.2-.2h0c0-.1,0-.2,0-.2,0,0-.1-.1-.2-.2-.4-.4-.7-.9-1-1.4,0,0,0-.1-.1-.2,0,0,0,0,0-.1h0c0-.2-.1-.3-.2-.4,0,0,0-.2-.1-.3v-.2c-.1,0-.2-.2-.2-.3,0-.1,0-.2,0-.3v-.2c0,0-.1-.2-.1-.3,0,0,0-.2,0-.3v-.2c0-.1,0-.2-.1-.3,0,0,0-.2,0-.3v-.2c0-.1,0-.2,0-.3,0-.1,0-.2,0-.3h0c0-.2,0-.2,0-.3,0,0,0-.2,0-.3,0-.3,0-.6,0-.8h0c0-.3,0-.6.2-.9,0,0,0-.2,0-.2,0,0,0,0,0-.1h0c0-.2,0-.3,0-.4,0-.1,0-.2.1-.3v-.2c.1,0,.2-.2.2-.3,0-.1,0-.2.1-.3v-.2c.1,0,.2-.2.2-.3,0,0,0-.2.2-.3v-.2c.2,0,.2-.2.3-.3,0,0,.1-.2.2-.2v-.2c.2,0,.3-.2.3-.3,0,0,.1-.2.2-.3h0c0-.1,0-.2,0-.2,0,0,.1-.1.2-.2.2-.2.4-.4.6-.6l21.1-17.2-20.1,17.5c-.2.2-.4.4-.6.6,0,0-.1.1-.2.2,0,0,0,0,0,0h0c0,.2-.2.3-.2.4,0,0-.1.2-.2.3v.2c-.2,0-.2.2-.3.2,0,0-.1.2-.2.3v.2c-.2,0-.2.2-.3.3,0,0,0,.2-.1.3v.2c-.1.1-.2.2-.2.3,0,0,0,.2,0,.3v.2c-.1.1-.1.2-.2.3,0,.1,0,.2,0,.4h0c0,.2,0,.2,0,.2,0,0,0,.2,0,.3,0,.3,0,.6-.1.8h0c0,.4,0,.6,0,.9,0,0,0,.2,0,.3v.2c0,.1,0,.2,0,.4,0,.1,0,.2,0,.3v.2c0,0,0,.2,0,.3,0,.1,0,.2,0,.3v.2c0,.1.1.2.1.3,0,.1,0,.2.1.3v.2c.1.1.1.2.2.3,0,0,0,.2.1.3v.2c.1.1.2.2.2.3,0,.1.1.2.2.3v.2c.2,0,.2.2.3.2.3.5.7.9,1.1,1.4,0,0,.1.1.2.2,0,0,0,0,0,0h0c0,.2.2.2.3.3,0,0,.2.1.3.2h.2c0,.2.2.3.2.3,0,0,.2.1.3.2h.2c0,.2.2.2.3.3,0,0,.2,0,.3.1h.2c0,.1,0,.1,0,.1,0,0,0,0,0,0,0,0-.1,0-.2,0,0,0,0,0-.1,0h-.1c-.1,0-.2,0-.3-.1,0,0-.2,0-.3-.1h-.2c0-.1-.2-.2-.2-.2ZM97.1,137.7c0,0-.2,0-.3-.1h-.2c0-.1-.2-.2-.2-.2,0,0-.2,0-.2-.1h-.2c0-.2-.2-.2-.3-.3,0,0-.1-.1-.2-.2h-.2c0-.2-.2-.3-.2-.3,0,0-.2-.1-.2-.2h0c0-.1,0-.1,0-.2,0,0-.1-.1-.2-.2-.4-.4-.7-.8-1-1.3,0,0,0-.1-.1-.2,0,0,0,0,0-.1h0c0-.2-.1-.3-.2-.4,0,0,0-.2-.1-.3v-.2c-.1,0-.2-.2-.2-.2,0,0,0-.2-.1-.3v-.2c-.1,0-.1-.2-.2-.3,0,0,0-.2,0-.3v-.2c0-.1-.1-.2-.1-.3,0,0,0-.2,0-.3v-.2c0-.1,0-.2,0-.3,0-.1,0-.2,0-.3h0c0-.2,0-.2,0-.3,0,0,0-.2,0-.2,0-.3,0-.5,0-.8h0c0-.3,0-.6.1-.9,0,0,0-.2,0-.2,0,0,0,0,0-.1h0c0-.2,0-.3,0-.4,0-.1,0-.2,0-.3v-.2c.1,0,.1-.2.2-.3,0,0,0-.2.1-.3v-.2c.1,0,.2-.2.2-.3,0,0,0-.2.1-.3v-.2c.2,0,.2-.2.3-.3,0,0,.1-.1.2-.2v-.2c.2,0,.3-.2.3-.3,0,0,.1-.2.2-.2h0c0-.1,0-.2,0-.2,0,0,.1-.1.2-.2.2-.2.4-.4.6-.6l19.5-17.1-18.5,17.3c-.2.2-.4.4-.6.6,0,0-.1.1-.2.2v.2c-.2,0-.3.2-.4.3,0,0-.1.2-.2.3v.2c-.2,0-.2.2-.3.2,0,0-.1.2-.2.3v.2c-.1,0-.2.2-.2.3,0,0,0,.2-.1.3v.2c-.1.1-.2.2-.2.3,0,0,0,.2,0,.3v.2c0,.1-.1.2-.2.3,0,.1,0,.2,0,.3h0c0,.1,0,.2,0,.2,0,0,0,.2,0,.3,0,.3,0,.6,0,.9,0,.3,0,.6,0,.9,0,0,0,.2,0,.3v.2c0,.1,0,.2,0,.3,0,.1,0,.2,0,.3v.2c0,0,0,.2.1.3,0,.1,0,.2,0,.3v.2c0,0,.1.2.2.3,0,0,0,.2.1.3v.2c.1.1.2.2.2.3,0,0,0,.2.1.3v.2c.2,0,.2.2.3.3,0,.1.1.2.2.3v.2c.2,0,.2.1.3.2.3.5.7.9,1.1,1.3,0,0,.1.1.2.2,0,0,0,0,0,0h0c0,.1.2.2.3.3,0,0,.2.1.3.2h.2c0,.2.2.2.2.3,0,0,.2.1.3.2h.2c0,.1.2.2.3.2,0,0,.2,0,.3.1h.2c0,0-.1,0-.2,0,0,0,0,0-.1,0h-.1c-.1,0-.2,0-.3-.1,0,0-.2,0-.3,0h-.2c0-.1-.2-.1-.2-.2ZM99.1,137.7c0,0-.2,0-.3-.1h-.2c0-.1-.2-.2-.2-.2,0,0-.2,0-.2-.1h-.2c0-.1-.2-.2-.3-.2,0,0-.1,0-.2-.1h-.2c0-.2-.2-.2-.2-.3,0,0-.2-.1-.2-.2h0c0,0,0-.1-.1-.2,0,0-.1,0-.2-.1-.4-.4-.7-.8-1.1-1.2,0,0,0-.1-.1-.2,0,0,0,0,0-.1h0c0-.2-.1-.3-.2-.4,0,0,0-.2-.1-.3v-.2c-.2,0-.2-.2-.2-.2,0,0,0-.2-.1-.3v-.2c-.1,0-.2-.2-.2-.3,0,0,0-.2,0-.3v-.2c0,0-.1-.2-.1-.3,0,0,0-.2,0-.3v-.2c0,0,0-.2-.1-.3,0-.1,0-.2,0-.3h0c0-.2,0-.2,0-.2,0,0,0-.2,0-.2,0-.3,0-.5,0-.8,0-.3,0-.5,0-.8,0,0,0-.2,0-.2,0,0,0,0,0-.1h0c0-.2,0-.3,0-.4,0,0,0-.2,0-.3v-.2c0,0,.1-.2.1-.2,0,0,0-.2.1-.3v-.2c.1,0,.1-.2.2-.3,0,0,0-.2.1-.2v-.2c.1,0,.2-.2.2-.3,0,0,0-.1.1-.2v-.2c.2,0,.2-.2.3-.2,0,0,.1-.2.2-.2h0c0-.1,0-.2,0-.2,0,0,0-.1.1-.2.2-.2.4-.4.6-.6l18.1-16.9-17.1,17.1c-.2.2-.4.4-.6.6,0,0-.1.1-.2.2v.2c-.2,0-.3.2-.3.3,0,0-.1.2-.2.3v.2c-.2,0-.2.2-.3.2,0,0,0,.2-.1.3v.2c-.1,0-.2.2-.2.3,0,0,0,.2-.1.3v.2c-.1.1-.1.2-.2.3,0,0,0,.2,0,.3v.2c0,.1-.1.2-.1.3,0,.1,0,.2,0,.3h0c0,.1,0,.2,0,.2,0,0,0,.2,0,.3,0,.3,0,.6,0,.8s0,.5,0,.8c0,0,0,.2,0,.3,0,0,0,0,0,.1h0c0,.2,0,.3,0,.4,0,.1,0,.2,0,.3v.2c0,0,0,.2.1.3,0,.1,0,.2.1.3v.2c0,0,.1.2.2.3,0,0,0,.2.1.3v.2c.1,0,.2.2.2.3,0,0,0,.2.1.2v.2c.2,0,.2.2.3.3,0,0,.1.2.2.3v.2c.2,0,.2.1.3.2.3.4.7.8,1.2,1.2,0,0,.1.1.2.2,0,0,0,0,0,0h0c0,.1.2.2.3.3,0,0,.2.1.3.2h.2c0,.2.2.2.2.3,0,0,.2,0,.3.1h.2c0,.1.2.2.3.2,0,0,.2,0,.3.1h0s0,0,0,0c0,0,0,0-.1,0h-.1c-.1,0-.2,0-.3,0,0,0-.2,0-.3,0h-.2c0,0-.2-.1-.2-.1ZM185.7,83.3c.3.3.5.5.7.9,0,0,.1.2.2.3,0,0,0,.1.1.2h0c0,.3.2.4.3.5,0,.1.1.3.2.4l.2.3c0,.1.1.2.2.4,0,.1.1.3.2.4v.3c.2.1.2.3.3.4,0,.1,0,.3.1.4v.3c.1.2.2.3.2.5,0,.1,0,.3,0,.4v.4c.1.2.1.3.2.5,0,.2,0,.4,0,.5v.2c0,0,0,.1,0,.2,0,.1,0,.3,0,.4,0,.9,0,1.8,0,2.8,0,.1,0,.3,0,.4,0,0,0,.1,0,.2v.2c0,.2,0,.4-.1.6,0,.2,0,.4-.1.5v.4c-.1.2-.1.3-.2.5,0,.2,0,.4-.1.5v.4c-.2.2-.2.3-.3.5,0,.2-.1.3-.2.5v.4c-.2.2-.3.4-.3.5,0,.1-.1.3-.2.4l-.2.4c0,.2-.1.3-.2.5,0,.2-.2.3-.3.5v.2c-.1,0-.2.1-.2.2,0,.1-.1.3-.2.4-.2.4-.5.8-.7,1.1h0c-.3.5-.6.8-.9,1.2,0,.1-.2.2-.3.3,0,0,0,.1-.1.2h-.1c-.1.3-.2.4-.4.5-.1.1-.2.2-.4.4l-.3.3c-.1.1-.2.2-.3.3-.1.1-.3.2-.4.3l-.3.2c-.1,0-.2.2-.4.3-.1,0-.3.2-.4.3l-.3.2c-.1,0-.3.2-.4.3-.1,0-.2.1-.4.2l-.3.2c-.1,0-.3.1-.4.2-.1,0-.3.1-.4.2h-.2c0,0-.1.1-.2.1-.1,0-.2,0-.3.1-.4.1-.8.2-1.1.3l-44.7,9.8,44-11.4c.4,0,.8-.2,1.2-.4.1,0,.2,0,.3-.1,0,0,.1,0,.2,0h.1c.2-.1.3-.2.5-.3h0c.1,0,.3-.2.4-.2l.3-.2c.1,0,.3-.1.4-.2.1,0,.3-.2.4-.3l.3-.2c.1,0,.3-.2.4-.3.1,0,.2-.2.4-.3l.2-.2c.1-.1.3-.2.4-.3.1-.1.2-.2.3-.3l.3-.3c.1-.1.2-.2.4-.4.1-.1.2-.3.4-.4h.1c0-.2,0-.2.1-.3,0-.1.2-.2.3-.3.3-.3.5-.7.7-1h0c.3-.5.5-.9.7-1.3,0-.1.1-.3.2-.4,0,0,0-.1,0-.2v-.2c.2-.2.3-.3.3-.5,0-.2.1-.3.2-.5v-.4c.2-.1.3-.3.3-.5,0-.2.1-.4.2-.5v-.3c.2-.2.2-.3.3-.5,0-.2,0-.3.1-.5v-.3c.1-.2.2-.4.2-.5,0-.2,0-.3,0-.5v-.4c0-.2.1-.4.1-.5,0-.2,0-.4,0-.6v-.2c0,0,0-.1,0-.2,0-.1,0-.3,0-.4,0-.9,0-1.9,0-2.8,0-.1,0-.3,0-.4,0,0,0-.1,0-.2v-.2c0-.2,0-.4-.1-.5,0-.2,0-.3-.1-.5v-.3c-.1-.1-.2-.3-.2-.4,0-.2-.1-.3-.2-.5v-.3c-.2-.1-.2-.3-.3-.4,0-.1-.1-.3-.2-.4v-.3c-.2-.1-.3-.3-.3-.4,0-.1-.1-.2-.2-.4l-.2-.3c0-.1-.2-.3-.2-.4,0,0,0,0,0-.1l.3.3ZM183.5,81.8c.3.2.5.5.8.8,0,0,.1.2.2.3,0,0,0,0,.1.1h0c0,.2.2.4.3.5,0,.1.1.2.2.4l.2.3c0,.1.1.2.2.3,0,.1.1.3.2.4v.3c.2.1.3.2.3.4,0,.1.1.3.1.4v.3c.2.1.2.3.3.4,0,.1,0,.3.1.4v.3c.1.2.2.3.2.5,0,.2,0,.3,0,.5v.2c0,0,0,.1,0,.2,0,.1,0,.2,0,.4.1.9.1,1.8,0,2.7,0,.1,0,.3,0,.4,0,0,0,.1,0,.2v.2c0,.2,0,.4,0,.5,0,.2,0,.3,0,.5v.4c0,.2-.1.3-.1.5,0,.2,0,.3-.1.5v.4c-.1.2-.2.3-.2.5,0,.2,0,.3-.1.5v.3c-.2.2-.2.3-.3.5,0,.1-.1.3-.2.4v.4c-.2.2-.3.3-.4.5,0,.2-.2.3-.2.5v.2c-.1,0-.2.1-.2.2,0,.1-.1.2-.2.4-.2.4-.4.7-.6,1.1h0c-.2.5-.5.8-.8,1.2,0,.1-.2.2-.3.3,0,0,0,.1-.1.2h-.1c-.1.3-.2.4-.3.5-.1.1-.2.2-.3.4l-.3.3c-.1.1-.2.2-.3.3-.1.1-.2.2-.4.3l-.3.2c-.1,0-.2.2-.3.3-.1,0-.2.2-.4.3l-.3.2c-.1,0-.3.2-.4.3-.1,0-.2.1-.4.2l-.3.2c-.1,0-.3.2-.4.2-.1,0-.3.1-.4.2h-.2c0,0-.1.1-.2.1-.1,0-.2,0-.3.1-.4.1-.7.3-1.1.4l-42.9,11.1,42.1-12.7c.4-.1.7-.2,1.1-.4.1,0,.2-.1.3-.2,0,0,.1,0,.2,0h.1c.1-.1.3-.2.4-.3h0c.1,0,.3-.2.4-.2l.3-.2c.1,0,.2-.1.4-.2.1,0,.3-.2.4-.3l.3-.2c.1,0,.2-.2.4-.3.1,0,.2-.2.3-.3l.2-.2c.1-.1.3-.2.4-.3.1-.1.2-.2.3-.3l.2-.3c.1-.1.2-.2.3-.4.1-.1.2-.3.3-.4h.1c0-.2,0-.2.1-.3,0-.1.2-.2.3-.3.2-.3.5-.7.7-1h0c.2-.5.5-.9.7-1.3,0-.1.1-.3.2-.4,0,0,0-.1,0-.2v-.2c.2-.2.2-.3.3-.5,0-.2.1-.3.2-.5v-.3c.2-.1.2-.3.3-.4,0-.2.1-.4.2-.5v-.3c.1-.2.2-.3.2-.5,0-.2,0-.3.1-.5v-.3c.1-.2.1-.3.2-.5,0-.2,0-.3,0-.5v-.4c0-.2,0-.3.1-.5,0-.2,0-.4,0-.5v-.2c0,0,0-.1,0-.2,0-.1,0-.3,0-.4,0-.9,0-1.8-.2-2.6,0-.1,0-.3,0-.4,0,0,0-.1,0-.2v-.2c0-.2-.1-.3-.1-.5,0-.2,0-.3-.1-.5v-.3c-.1-.1-.2-.3-.2-.4,0-.2-.1-.3-.2-.4v-.3c-.2-.1-.2-.3-.3-.4,0-.1-.1-.3-.2-.4v-.3c-.2-.1-.3-.3-.4-.4,0-.1-.1-.2-.2-.3l-.2-.3c0-.1-.2-.2-.3-.4,0,0,0,0,0,0l.2.2ZM181.3,80.4c.3.2.5.5.8.7,0,0,.1.2.2.2,0,0,0,0,.1.1h.1c0,.2.2.3.3.4,0,.1.2.2.2.3l.2.3c0,.1.1.2.2.3,0,.1.1.2.2.4v.3c.2.1.3.2.3.4,0,.1.1.2.2.4v.3c.2.1.2.3.3.4,0,.1,0,.3.1.4v.3c.1.1.2.3.2.4,0,.2,0,.3.1.5v.2c0,0,0,.1,0,.2,0,.1,0,.2,0,.3.1.8.2,1.7.2,2.5,0,.1,0,.3,0,.4,0,0,0,.1,0,.2v.2c0,.2,0,.3,0,.5,0,.2,0,.3,0,.5v.4c0,.1,0,.3-.1.4,0,.2,0,.3,0,.5v.3c-.1.2-.1.3-.2.5,0,.2,0,.3-.1.5v.3c-.1.2-.2.3-.2.5,0,.1,0,.3-.2.4v.4c-.2.2-.2.3-.3.5,0,.2-.1.3-.2.5v.2c-.1,0-.1.1-.2.2,0,.1-.1.2-.2.4-.2.4-.4.7-.6,1.1h0c-.2.5-.5.8-.7,1.2,0,.1-.2.2-.2.3,0,0,0,.1-.1.2h-.1c-.1.3-.2.4-.3.5-.1.1-.2.2-.3.4l-.2.3c0,.1-.2.2-.3.3-.1.1-.2.2-.4.3l-.2.2c-.1,0-.2.2-.3.3-.1,0-.2.2-.3.3l-.3.2c-.1,0-.2.2-.4.3-.1,0-.2.1-.3.2l-.3.2c-.1,0-.3.2-.4.2-.1,0-.3.1-.4.2h-.1c0,0-.1.1-.2.2,0,0-.2,0-.3.1-.4.2-.7.3-1.1.4l-40.9,12.3,40.1-13.7c.4-.1.7-.3,1.1-.4.1,0,.2-.1.3-.2,0,0,.1,0,.2,0h.1c.1-.1.3-.2.4-.3h0c.1,0,.3-.2.4-.3l.3-.2c.1,0,.2-.2.3-.2.1,0,.3-.2.4-.3l.2-.2c.1,0,.2-.2.3-.3.1,0,.2-.2.3-.3l.2-.2c.1-.1.2-.2.4-.3,0-.1.2-.2.3-.3l.2-.3c.1-.1.2-.2.3-.4.1-.1.2-.3.3-.4h0c0-.2,0-.2.1-.3,0-.1.2-.2.2-.3.2-.4.5-.7.7-1.1h0c.2-.4.4-.8.6-1.2,0-.1.1-.3.2-.4,0,0,0-.1,0-.2v-.2c.1-.2.2-.3.3-.5,0-.2.1-.3.2-.5v-.3c.2-.1.2-.3.2-.4,0-.2,0-.3.1-.5v-.3c.1-.2.2-.3.2-.5,0-.2,0-.3,0-.5v-.3c0-.2.1-.3.1-.5,0-.2,0-.3,0-.5v-.3c0-.2,0-.3,0-.5,0-.2,0-.4,0-.5v-.2c0,0,0-.1,0-.2,0-.1,0-.3,0-.4,0-.9-.1-1.7-.3-2.5,0-.1,0-.2,0-.4,0,0,0-.1,0-.2v-.2c0-.2-.1-.3-.2-.5,0-.2-.1-.3-.2-.4v-.3c-.2-.1-.2-.3-.3-.4,0-.1-.1-.3-.2-.4v-.3c-.2-.1-.3-.3-.3-.4,0-.1-.1-.2-.2-.4v-.2c-.2-.1-.3-.3-.4-.4,0-.1-.2-.2-.2-.3l-.2-.2c0,0-.1-.2-.2-.3h.2ZM179.1,79.2c.3.2.5.4.8.7,0,0,.1.1.2.2,0,0,0,0,.1.1h.1c.1.2.2.3.3.4,0,0,.2.2.2.3l.2.3c0,0,.1.2.2.3,0,.1.1.2.2.4l.2.3c0,.1.1.2.2.3,0,.1.1.2.2.3v.3c.2.1.3.3.3.4,0,.1,0,.2.1.4v.3c.2.1.2.3.3.4,0,.1,0,.3.1.5v.2c0,0,0,.1,0,.2,0,.1,0,.2,0,.3.2.8.3,1.6.3,2.4,0,.1,0,.2,0,.4,0,0,0,.1,0,.2v.2c0,.2,0,.3,0,.5,0,.2,0,.3,0,.5v.3c0,.1,0,.3,0,.4,0,.2,0,.3,0,.5v.3c0,.1-.1.3-.1.4,0,.1,0,.3-.1.4v.3c-.1.2-.2.3-.2.5,0,.1,0,.3-.1.4v.3c-.2.2-.2.3-.3.5,0,.2-.1.3-.2.5v.2c0,0-.1.1-.1.2,0,.1,0,.2-.1.4-.2.4-.4.7-.5,1.1h0c-.2.4-.4.8-.7,1.2,0,.1-.1.2-.2.3,0,0,0,.1-.1.2h-.1c-.1.3-.2.4-.3.5,0,.1-.2.2-.3.4l-.2.3c0,.1-.2.2-.3.3-.1.1-.2.2-.3.3l-.2.2c0,0-.2.2-.3.3-.1,0-.2.2-.3.3l-.2.2c-.1,0-.2.2-.3.3-.1,0-.2.1-.3.2l-.3.2c-.1,0-.2.2-.4.2-.1,0-.3.1-.4.2h-.1c0,.1-.1.1-.2.2,0,0-.2.1-.3.1-.3.2-.7.3-1,.4l-39,13.4,38.1-14.7c.3-.1.7-.3,1-.5.1,0,.2-.1.3-.2,0,0,0,0,.1,0h.1c.1-.1.3-.2.4-.3.1,0,.3-.2.4-.3l.2-.2c.1,0,.2-.2.3-.2.1,0,.2-.2.4-.3l.2-.2c.1,0,.2-.2.3-.3.1,0,.2-.2.3-.3l.2-.2c.1-.1.2-.2.3-.3,0-.1.2-.2.3-.3l.2-.3c.1-.1.2-.2.3-.4.1-.1.2-.3.3-.4h0c0-.2,0-.2.1-.3,0-.1.1-.2.2-.3.2-.4.4-.7.6-1.1h0c.2-.4.4-.8.5-1.2,0-.1,0-.2.1-.4,0,0,0-.1,0-.2v-.2c.1-.2.2-.3.2-.5,0-.2,0-.3.1-.5v-.3c.1-.1.2-.3.2-.4,0-.2,0-.3.1-.5v-.3c0-.1.1-.3.1-.4,0-.2,0-.3,0-.5v-.3c0-.2,0-.3,0-.5,0-.1,0-.3,0-.4v-.3c0-.2,0-.3,0-.5,0-.2,0-.3,0-.5v-.2c0,0,0-.1,0-.2,0-.1,0-.3,0-.4,0-.8-.2-1.6-.4-2.4,0-.1,0-.2-.1-.3,0,0,0-.1,0-.2h0c0-.3,0-.5-.2-.6,0-.1-.1-.3-.2-.4v-.3c-.2-.1-.2-.2-.3-.4,0-.1-.1-.3-.2-.4v-.3c-.2-.1-.3-.2-.3-.4,0-.1-.1-.2-.2-.3l-.2-.2c0-.1-.2-.2-.2-.4,0-.1-.2-.2-.2-.3l-.2-.2c0,0-.1-.1-.2-.2h.1ZM176.9,78.1c.3.2.5.4.8.6,0,0,.1.1.2.2,0,0,0,0,.1.1h.1c.1.2.2.3.3.4,0,0,.2.2.3.3l.2.2c0,0,.2.2.2.3,0,.1.2.2.2.3l.2.2c0,.1.1.2.2.3,0,.1.1.2.2.3v.3c.2.1.3.2.3.4,0,.1.1.2.1.3v.3c.2.1.2.3.3.4,0,.1,0,.3.1.4v.2c0,0,0,.1.1.2,0,.1,0,.2,0,.3.2.7.3,1.5.4,2.3,0,.1,0,.2,0,.4,0,0,0,.1,0,.2v.2c0,.2,0,.3,0,.5,0,.2,0,.3,0,.5v.3c0,.1,0,.3,0,.4,0,.2,0,.3,0,.5v.3c0,.1,0,.3,0,.4,0,.1,0,.3,0,.4v.3c0,.2-.1.3-.2.5,0,.1,0,.3-.1.4v.3c-.1.2-.2.3-.2.5,0,.2-.1.3-.2.5v.2c0,0-.1.1-.1.2,0,.1,0,.2-.1.3-.2.4-.3.7-.5,1h0c-.2.4-.4.8-.6,1.2,0,.1-.1.2-.2.3,0,0,0,.1-.1.2h0c0,.3-.2.4-.3.5,0,.1-.2.2-.3.4l-.2.3c0,.1-.2.2-.2.3-.1.1-.2.2-.3.3l-.2.2c0,0-.2.2-.3.3,0,0-.2.2-.3.3l-.2.2c-.1,0-.2.2-.3.3,0,0-.2.2-.3.2l-.3.2c-.1,0-.2.2-.3.2-.1,0-.2.1-.4.2h-.1c0,.1-.1.1-.2.2,0,0-.2.1-.3.2-.3.2-.7.3-1,.4l-37.1,14.3,36.2-15.5c.3-.1.7-.3,1-.5,0,0,.2-.1.3-.2,0,0,0,0,.1,0h.1c.1-.2.3-.2.4-.3.1,0,.2-.2.4-.3l.2-.2c.1,0,.2-.2.3-.2.1,0,.2-.2.3-.3l.2-.2c.1,0,.2-.2.3-.3,0-.1.2-.2.3-.3l.2-.2c.1-.1.2-.2.3-.4,0-.1.2-.2.2-.3l.2-.3c0-.1.2-.2.3-.4,0-.1.2-.3.3-.4h0c0-.2,0-.2,0-.3,0-.1.1-.2.2-.3.2-.3.4-.6.5-1h0v-.2c.2-.3.3-.7.5-1.1,0-.1,0-.2.1-.4,0,0,0-.1,0-.2v-.2c.1-.2.2-.3.2-.5,0-.2,0-.3.1-.5v-.3c.1-.1.1-.3.2-.4,0-.2,0-.3,0-.5v-.3c0-.1,0-.3.1-.4,0-.1,0-.3,0-.4v-.3c0-.2,0-.3,0-.5,0-.1,0-.3,0-.4v-.2s0-.2,0-.2c0-.2,0-.3,0-.5,0-.2,0-.3,0-.5v-.2c0,0,0-.1,0-.2,0-.1,0-.2,0-.4-.1-.8-.3-1.6-.5-2.3,0-.1,0-.2-.1-.3,0,0,0-.1,0-.2h0c0-.3-.1-.4-.2-.6,0-.1-.1-.3-.2-.4v-.3c-.2-.1-.2-.2-.3-.4,0-.1-.1-.3-.2-.4v-.2c-.2-.1-.3-.2-.4-.3,0-.1-.2-.2-.2-.3l-.2-.2c0-.1-.2-.2-.3-.3,0,0-.2-.2-.2-.3l-.2-.2s0,0-.1-.1h0ZM67.2,126.9c-.2-.3-.5-.6-.7-.9,0,0-.1-.2-.2-.3,0,0,0-.1-.1-.2h0c0-.3-.2-.4-.2-.6,0-.1-.1-.3-.2-.4l-.2-.3c0-.1-.1-.2-.2-.4,0-.1-.1-.3-.2-.4v-.3c-.2-.1-.2-.3-.3-.4,0-.1,0-.3-.1-.4v-.3c-.1-.2-.2-.3-.2-.5,0-.1,0-.3,0-.4v-.4c0-.2-.1-.3-.1-.5,0-.2,0-.4,0-.6v-.2c0,0,0-.1,0-.2,0-.1,0-.3,0-.4,0-.9,0-1.9.2-2.9,0-.1,0-.3,0-.4,0,0,0-.1,0-.2v-.2c0-.2,0-.4.1-.6,0-.2,0-.4.1-.5v-.4c.1-.2.2-.3.2-.5,0-.2.1-.4.2-.5v-.4c.2-.2.2-.3.3-.5,0-.2.1-.3.2-.5l.2-.4c0-.2.1-.4.2-.5,0-.2.1-.3.2-.4l.2-.4c0-.2.2-.3.3-.5,0-.2.2-.3.3-.5v-.2c.1,0,.2-.1.2-.2,0-.1.1-.3.2-.4.3-.4.6-.8.8-1.2.3-.4.6-.8.9-1.1,0-.1.2-.2.3-.3,0,0,.1-.1.2-.2h.1c.1-.3.3-.4.4-.5.1-.1.3-.2.4-.4l.3-.3c.1-.1.2-.2.3-.3.1-.1.3-.2.4-.3l.3-.2c.1,0,.3-.2.4-.3.1,0,.3-.2.4-.2l.3-.2c.1,0,.3-.2.4-.2.1,0,.3-.1.4-.2l.3-.2c.1,0,.3-.1.4-.2.2,0,.3-.1.5-.2h.2c0,0,.1-.1.2-.1.1,0,.2,0,.3-.1.4-.1.8-.2,1.2-.3l46.6-8.3-45.9,10.1c-.4,0-.8.2-1.2.3-.1,0-.2,0-.4.1,0,0-.1,0-.2,0h-.2c-.2.1-.3.2-.5.3-.2,0-.3.2-.4.2l-.3.2c-.1,0-.3.1-.4.2-.1,0-.3.2-.4.3l-.3.2c-.1,0-.3.2-.4.3-.1,0-.3.2-.4.3l-.3.2c-.1.1-.3.2-.4.3-.1.1-.2.2-.3.3l-.3.3c-.1.1-.3.2-.4.4-.1.1-.3.3-.4.4h-.1c0,.2,0,.2-.1.3,0,.1-.2.2-.3.3-.3.4-.6.8-.9,1.1h0c-.3.4-.5.8-.8,1.3,0,.1-.2.3-.2.4,0,0,0,.1-.1.2v.2c-.2.2-.3.3-.4.5,0,.2-.2.4-.2.5l-.2.4c0,.2-.1.3-.2.5,0,.2-.1.4-.2.5v.3c-.2.2-.3.3-.3.5,0,.2-.1.3-.2.5v.4c-.2.2-.2.4-.3.6,0,.2,0,.3-.1.5v.4c-.1.2-.2.4-.2.6,0,.2,0,.4,0,.6v.2c0,0,0,.1,0,.2,0,.1,0,.3,0,.4,0,1,0,1.9,0,2.9,0,.1,0,.3,0,.4,0,0,0,.1,0,.2v.2c0,.2,0,.4,0,.6,0,.2,0,.3,0,.5v.4c.1.2.1.3.2.5,0,.2,0,.3.1.5v.3c.1.1.2.3.2.5,0,.1.1.3.2.4v.3c.2.1.2.3.3.5,0,.1.1.3.2.4l.2.3c0,.1.1.3.2.4,0,0,0,.1.1.2l-.4-.4ZM69.3,128.6c-.3-.3-.5-.5-.7-.8,0,0-.1-.2-.2-.3,0,0,0-.1-.1-.2h0c0-.3-.2-.4-.3-.5,0-.1-.1-.3-.2-.4l-.2-.3c0-.1-.1-.2-.2-.4,0-.1-.1-.3-.2-.4v-.3c-.2-.1-.2-.3-.3-.4,0-.1,0-.3-.1-.4v-.3c-.1-.2-.2-.3-.2-.5,0-.1,0-.3,0-.4v-.4c-.1-.2-.1-.3-.2-.5,0-.2,0-.4,0-.5v-.2c0,0,0-.1,0-.2,0-.1,0-.3,0-.4,0-.9,0-1.8,0-2.8,0-.1,0-.3,0-.4,0,0,0-.1,0-.2v-.2c0-.2,0-.4.1-.6,0-.2,0-.3.1-.5v-.4c.1-.2.1-.3.2-.5,0-.2,0-.4.1-.5v-.4c.2-.2.2-.3.3-.5,0-.2.1-.3.2-.5v-.4c.2-.2.3-.3.3-.5,0-.1.1-.3.2-.4l.2-.4c0-.2.2-.3.2-.5,0-.2.2-.3.3-.5v-.2c.1,0,.2-.1.2-.2,0-.1.1-.3.2-.4.2-.4.5-.8.8-1.2h0c.3-.4.6-.8.9-1.1,0-.1.2-.2.3-.3,0,0,.1-.1.1-.2h.1c.1-.3.2-.4.4-.5.1-.1.2-.2.4-.4h.1c0-.2,0-.2.1-.3.1-.1.2-.2.3-.3.1-.1.3-.2.4-.3l.3-.2c.1,0,.2-.2.4-.3.1,0,.2-.2.4-.2l.3-.2c.1,0,.3-.2.4-.3.1,0,.2-.1.4-.2l.3-.2c.1,0,.3-.1.4-.2.1,0,.3-.1.4-.2h.2c0,0,.1-.1.2-.1.1,0,.2,0,.3-.1.4-.1.8-.2,1.1-.3l44.7-9.8-44,11.4c-.4,0-.8.2-1.2.4-.1,0-.2,0-.4.2,0,0-.1,0-.2,0h-.1c-.2.1-.3.2-.5.3-.1,0-.3.2-.4.2l-.3.2c-.1,0-.3.1-.4.2-.1,0-.3.2-.4.3l-.3.2c-.1,0-.3.2-.4.3-.1,0-.3.2-.4.3l-.2.2c-.1.1-.3.2-.4.3-.1.1-.2.2-.3.3l-.3.3c-.1.1-.2.2-.4.4-.1.1-.2.3-.4.4h-.1c0,.2,0,.2-.1.3,0,.1-.2.2-.3.3-.3.4-.6.8-.8,1.1-.3.4-.5.8-.7,1.2,0,.1-.1.3-.2.4,0,0,0,.1,0,.2v.2c-.2.2-.3.3-.3.5,0,.2-.2.3-.2.5v.4c-.2.1-.3.3-.3.5,0,.2-.1.4-.2.5v.3c-.2.2-.2.3-.3.5,0,.2,0,.3-.1.5v.4c-.1.2-.2.4-.2.5,0,.2,0,.3,0,.5v.4c0,.2-.1.4-.1.5,0,.2,0,.4,0,.6v.2c0,0,0,.1,0,.2,0,.1,0,.3,0,.4,0,.9,0,1.9,0,2.8,0,.1,0,.3,0,.4,0,0,0,.1,0,.2v.2c0,.2,0,.4.1.5,0,.2,0,.3.1.5v.3c.1.1.2.3.2.4,0,.2.1.3.2.5v.3c.2.1.2.3.3.4,0,.1.1.3.2.4v.3c.2.1.3.3.3.4,0,.1.1.2.2.4l.2.3c0,.1.2.3.2.4,0,0,0,0,0,.1l-.3-.3ZM71.5,130.2c-.3-.2-.5-.5-.8-.8,0,0-.1-.2-.2-.3,0,0,0,0-.1-.1h0c0-.2-.2-.4-.3-.5,0-.1-.2-.2-.2-.4l-.2-.3c0-.1-.1-.2-.2-.3,0-.1-.1-.3-.2-.4v-.3c-.2-.1-.3-.2-.3-.4,0-.1,0-.3-.1-.4v-.3c-.2-.2-.2-.3-.3-.4,0-.1,0-.3-.1-.4v-.3c-.1-.2-.2-.3-.2-.5,0-.2,0-.3,0-.5v-.2c0,0,0-.1,0-.2,0-.1,0-.2,0-.4-.1-.9-.1-1.8,0-2.7,0-.1,0-.3,0-.4,0,0,0-.1,0-.2v-.2c0-.2,0-.4,0-.5,0-.2,0-.3,0-.5v-.4c0-.2.1-.3.1-.5,0-.2,0-.3.1-.5v-.4c.1-.2.2-.3.2-.5,0-.2,0-.3.1-.5v-.3c.2-.2.2-.3.3-.5,0-.1.1-.3.2-.4v-.4c.2-.2.3-.3.4-.5,0-.2.2-.3.2-.5v-.2c.1,0,.2-.1.2-.2,0-.1.1-.2.2-.4.2-.4.5-.8.7-1.2.2-.4.5-.7.8-1.1,0-.1.2-.2.3-.3,0,0,0-.1.1-.2h.1c.1-.3.2-.4.3-.5.1-.1.2-.2.4-.4l.3-.3c0-.1.2-.2.3-.3.1-.1.2-.2.4-.3l.3-.2c.1,0,.2-.2.3-.3.1,0,.2-.2.4-.3l.3-.2c.1,0,.3-.2.4-.3.1,0,.2-.1.3-.2l.3-.2c.1,0,.3-.2.4-.2.1,0,.3-.1.4-.2h.2c0,0,.1-.1.2-.1.1,0,.2,0,.3-.1.4-.1.7-.3,1.1-.4l42.9-11.1-42.1,12.7c-.4.1-.7.2-1.1.4-.1,0-.2.1-.3.2,0,0-.1,0-.2,0h-.1c-.1.1-.3.2-.4.3-.1,0-.3.2-.4.2l-.3.2c-.1,0-.2.1-.4.2-.1,0-.3.2-.4.3l-.3.2c-.1,0-.2.2-.4.3-.1,0-.2.2-.3.3l-.2.2c-.1.1-.3.2-.4.3-.1.1-.2.2-.3.3l-.2.3c-.1.1-.2.2-.3.4-.1.1-.2.3-.3.4h-.1c0,.2,0,.2-.1.3,0,.1-.2.2-.3.3-.3.4-.5.8-.8,1.1h0c-.2.4-.5.8-.7,1.2,0,.1-.1.3-.2.4,0,0,0,.1,0,.2v.2c-.2.2-.2.3-.3.5,0,.2-.1.3-.2.5v.3c-.2.1-.2.3-.3.4,0,.2-.1.3-.2.5v.3c-.1.2-.2.3-.2.5,0,.2,0,.3-.1.5v.3c-.1.2-.1.3-.2.5,0,.2,0,.3,0,.5v.4c0,.2,0,.3-.1.5,0,.2,0,.4,0,.5v.2c0,0,0,.1,0,.2,0,.1,0,.3,0,.4,0,.9,0,1.8.2,2.6,0,.1,0,.3,0,.4,0,0,0,.1,0,.2v.2c0,.2.1.3.1.5,0,.2,0,.3.1.5v.3c.1.1.2.3.2.4,0,.2.1.3.2.4v.3c.2.1.2.3.3.4,0,.1.1.3.2.4v.3c.2.1.3.3.4.4,0,.1.2.2.2.3l.2.3c0,.1.2.2.3.4,0,0,0,0,0,0l-.2-.2ZM73.7,131.6c-.3-.2-.5-.5-.8-.7,0,0-.1-.2-.2-.2,0,0,0,0-.1-.1h-.1c0-.2-.2-.3-.3-.4,0-.1-.2-.2-.2-.3l-.2-.3c0-.1-.1-.2-.2-.3,0-.1-.1-.2-.2-.4v-.3c-.2-.1-.3-.2-.3-.4,0-.1-.1-.2-.2-.4v-.3c-.2-.1-.2-.3-.3-.4,0-.1,0-.3-.1-.4v-.3c-.1-.1-.2-.3-.2-.4,0-.2,0-.3-.1-.5v-.2c0,0,0-.1,0-.2,0-.1,0-.2,0-.3-.1-.8-.2-1.7-.2-2.5,0-.1,0-.3,0-.4,0,0,0-.1,0-.2v-.2c0-.2,0-.3,0-.5,0-.2,0-.3,0-.5v-.4c0-.1,0-.3.1-.4,0-.2,0-.3,0-.5v-.4c.1-.2.1-.3.2-.5,0-.2,0-.3.1-.5v-.3c.1-.2.2-.3.2-.5,0-.1,0-.3.1-.4v-.4c.2-.2.2-.3.3-.5,0-.2.1-.3.2-.5v-.2c.1,0,.1-.1.2-.2,0-.1.1-.2.2-.4.2-.4.4-.8.6-1.2h0c.2-.4.5-.8.7-1.1,0-.1.2-.2.2-.3,0,0,0-.1.1-.2h.1c.1-.3.2-.4.3-.5.1-.1.2-.2.3-.4l.2-.3c0-.1.2-.2.3-.3.1-.1.2-.2.4-.3l.2-.2c.1,0,.2-.2.3-.3.1,0,.2-.2.3-.3l.3-.2c.1,0,.2-.2.4-.3.1,0,.2-.1.3-.2l.3-.2c.1,0,.3-.2.4-.2.1,0,.3-.1.4-.2h.1c0,0,.1-.1.2-.1.1,0,.2-.1.3-.1.4-.2.7-.3,1.1-.4l40.9-12.3-40.1,13.7c-.3.1-.7.3-1.1.4-.1,0-.2.1-.3.2,0,0,0,0-.1,0h-.1c-.1.1-.3.2-.4.3-.1,0-.3.2-.4.3l-.3.2c-.1,0-.2.1-.3.2-.1,0-.3.2-.4.3l-.2.2c-.1,0-.2.2-.3.3-.1,0-.2.2-.3.3l-.2.2c-.1.1-.2.2-.4.3,0,.1-.2.2-.3.3l-.2.3c-.1.1-.2.2-.3.4-.1.1-.2.3-.3.4h0c0,.2,0,.2-.1.3,0,.1-.2.2-.2.3-.2.4-.5.7-.7,1.1h0c-.2.4-.4.8-.6,1.2,0,.1-.1.3-.2.4,0,0,0,.1,0,.2v.2c-.1.2-.2.3-.3.5,0,.2-.1.3-.2.5v.3c-.2.1-.2.3-.2.4,0,.2,0,.3-.1.5v.3c-.1.2-.2.3-.2.5,0,.2,0,.3,0,.5v.3c0,.2-.1.3-.1.5,0,.2,0,.3,0,.5v.3c0,.2,0,.3,0,.5,0,.2,0,.4,0,.5v.2c0,0,0,.1,0,.2,0,.1,0,.3,0,.4,0,.9.1,1.7.3,2.5,0,.1,0,.2,0,.4,0,0,0,.1,0,.2v.2c0,.2.1.3.2.5,0,.2.1.3.2.4v.3c.2.1.2.3.3.4,0,.1.1.3.2.4v.3c.2.1.2.3.3.4,0,.1.1.2.2.4l.2.3c0,.1.2.3.2.4,0,.1.2.2.2.3l.2.2c0,0,.1.2.2.3l-.2-.2ZM75.9,132.8c-.3-.2-.5-.4-.8-.7,0,0-.1-.1-.2-.2,0,0,0,0-.1-.1h-.1c-.1-.2-.2-.3-.3-.4,0,0-.2-.2-.2-.3l-.2-.2c0,0-.1-.2-.2-.3,0-.1-.1-.2-.2-.3l-.2-.3c0-.1-.1-.2-.2-.3,0-.1-.1-.2-.2-.4v-.3c-.2-.1-.3-.3-.3-.4,0-.1,0-.2-.1-.4v-.3c-.2-.1-.2-.3-.3-.4,0-.1,0-.3-.1-.5v-.2c0,0,0-.1,0-.2,0-.1,0-.2,0-.3-.2-.8-.3-1.6-.3-2.4,0-.1,0-.2,0-.4,0,0,0-.1,0-.2v-.2c0-.2,0-.3,0-.5,0-.2,0-.3,0-.5v-.4c0-.1,0-.3,0-.4,0-.2,0-.3,0-.5v-.3c0-.1.1-.3.1-.4,0-.1,0-.3.1-.4v-.3c.1-.2.2-.3.2-.5,0-.1,0-.3.1-.4v-.3c.2-.2.2-.3.3-.5,0-.2.1-.3.2-.5v-.2c0,0,.1-.1.1-.2,0-.1,0-.2.1-.4.2-.4.4-.8.6-1.1h0c.2-.4.4-.7.7-1.1,0-.1.1-.2.2-.3,0,0,0-.1.1-.2h.1c.1-.3.2-.4.3-.5,0-.1.2-.2.3-.4l.2-.3c0-.1.2-.2.3-.3.1-.1.2-.2.3-.3l.2-.2c.1,0,.2-.2.3-.3.1,0,.2-.2.3-.3l.2-.2c.1,0,.2-.2.3-.3.1,0,.2-.1.3-.2l.3-.2c.1,0,.2-.2.4-.2.1,0,.3-.1.4-.2h.1c0-.1.1-.1.2-.2,0,0,.2-.1.3-.2.3-.2.7-.3,1-.4l39-13.4-38.1,14.7c-.3.1-.7.3-1,.5-.1,0-.2.1-.3.2,0,0,0,0-.1,0h-.1c-.1.1-.3.2-.4.3-.1,0-.3.2-.4.3l-.3.2c-.1,0-.2.2-.3.2-.1,0-.2.2-.4.3l-.2.2c-.1,0-.2.2-.3.3-.1.1-.2.2-.3.3l-.2.2c-.1.1-.2.2-.3.4,0,.1-.2.2-.3.3l-.2.3c-.1.1-.2.2-.3.4-.1.1-.2.3-.3.4h0c0,.2,0,.2-.1.3,0,.1-.1.2-.2.3-.2.4-.4.7-.6,1.1h0s0,0,0,0h0c-.2.4-.4.8-.5,1.2,0,.1,0,.2-.1.4,0,0,0,.1,0,.2v.2c-.1.2-.2.3-.2.5,0,.2,0,.3-.1.5v.3c-.1.1-.2.3-.2.4,0,.2,0,.3-.1.5v.3c0,.1-.1.3-.1.5,0,.2,0,.3,0,.5v.3c0,.2,0,.3,0,.5,0,.1,0,.3,0,.4v.3c0,.2,0,.3,0,.5,0,.2,0,.3,0,.5v.2c0,0,0,.1,0,.2,0,.1,0,.3,0,.4,0,.8.2,1.6.4,2.4,0,.1,0,.2.1.3,0,0,0,.1,0,.2v.2c0,.2.1.3.2.5,0,.1.1.3.2.4v.3c.2.1.2.2.3.4,0,.1.1.3.2.4v.3c.2.1.3.2.3.4,0,.1.1.2.2.3l.2.2c0,.1.2.2.2.4,0,.1.2.2.2.3l.2.2c0,0,.1.1.2.2h-.1ZM78.1,133.9c-.3-.2-.5-.4-.8-.6,0,0-.1-.1-.2-.2,0,0,0,0-.1-.1h-.1c-.1-.2-.2-.3-.3-.4,0,0-.2-.2-.3-.3l-.2-.2c0,0-.2-.2-.2-.3,0-.1-.2-.2-.2-.3l-.2-.2c0-.1-.1-.2-.2-.3,0-.1-.1-.2-.2-.3v-.3c-.2-.1-.3-.2-.3-.4,0-.1-.1-.2-.1-.3v-.3c-.2-.1-.2-.3-.3-.4,0-.1,0-.3-.1-.4v-.2c0,0,0-.1-.1-.2,0-.1,0-.2,0-.3-.2-.7-.3-1.5-.4-2.3,0-.1,0-.2,0-.4,0,0,0-.1,0-.2v-.2c0-.2,0-.3,0-.5,0-.2,0-.3,0-.5v-.3c0-.1,0-.3,0-.4,0-.2,0-.3,0-.5v-.3c0-.1,0-.3,0-.4,0-.1,0-.3,0-.4v-.3c0-.2.1-.3.2-.5,0-.1,0-.3.1-.4v-.3c.1-.2.2-.3.2-.5,0-.2.1-.3.2-.5v-.2c0,0,.1-.1.1-.2,0-.1,0-.2.1-.3.2-.4.3-.8.5-1.1h0c.2-.4.4-.7.6-1.1,0-.1.1-.2.2-.3,0,0,0-.1.1-.2h0c0-.3.2-.4.3-.5,0-.1.2-.2.3-.4l.2-.3c0-.1.2-.2.2-.3.1-.1.2-.2.3-.3l.2-.2c0,0,.2-.2.3-.3,0,0,.2-.2.3-.3l.2-.2c.1,0,.2-.2.3-.3,0,0,.2-.1.3-.2l.3-.2c.1,0,.2-.2.3-.2.1,0,.2-.1.4-.2h.1c0-.1,0-.1.1-.2,0,0,.2-.1.3-.2.3-.2.7-.3,1-.4l37.1-14.3-36.2,15.5c-.3.1-.7.3-1,.5-.1,0-.2.1-.3.2,0,0,0,0-.1,0h-.1c-.1.2-.3.2-.4.3-.1,0-.2.2-.4.3l-.2.2c-.1,0-.2.2-.3.2-.1,0-.2.2-.3.3l-.2.2c-.1,0-.2.2-.3.3,0,.1-.2.2-.3.3l-.2.2c-.1.1-.2.2-.3.4,0,.1-.2.2-.2.3l-.2.3c0,.1-.2.2-.3.4,0,.1-.2.3-.3.4h0c0,.2,0,.2,0,.3,0,.1-.1.2-.2.3-.2.4-.4.7-.6,1.1h0c-.2.4-.3.8-.5,1.2,0,.1,0,.2-.1.4,0,0,0,.1,0,.2v.2c-.1.2-.2.3-.2.5,0,.2,0,.3-.1.5v.3c-.1.1-.1.3-.2.4,0,.2,0,.3,0,.5v.3c0,.1,0,.3-.1.4,0,.1,0,.3,0,.4v.3c0,.2,0,.3,0,.5,0,.1,0,.3,0,.4v.2s0,.2,0,.2c0,.2,0,.3,0,.5,0,.2,0,.3,0,.5v.2c0,0,0,.1,0,.2,0,.1,0,.2,0,.4.1.8.3,1.6.5,2.3,0,.1,0,.2.1.3,0,0,0,.1,0,.2h0c0,.3.1.4.2.6,0,.1.1.3.2.4v.3c.2.1.2.2.3.3,0,.1.1.3.2.4v.2c.2.1.3.2.4.3,0,.1.2.2.2.3l.2.2c0,.1.2.2.3.3,0,0,.2.2.3.3l.2.2s0,0,.1.1h0ZM110.1,138l-9-14.1h.3s10.1,14.1,10.1,14.1h-1.4ZM102.5,124.3h.3s10.9,13.6,10.9,13.6h-1.4l-9.8-13.6ZM103.8,124.7h.2s11.9,13.3,11.9,13.3h-1.5l-10.6-13.3ZM105.1,124.9h.2s13,13,13,13h-1.6l-11.6-13ZM106.4,125.1h.2s14.2,12.8,14.2,12.8h-1.7l-12.7-12.8ZM107.7,125.3h.2s15.7,12.7,15.7,12.7h-1.8l-14-12.7ZM108.9,125.4h.1s17.4,12.6,17.4,12.6h-2l-15.5-12.6ZM110.1,125.4h.1s19.4,12.6,19.4,12.6h-2.2l-17.3-12.6ZM111.3,125.3h0s21.8,12.6,21.8,12.6h-2.6l-19.4-12.6ZM112.5,125.3h0s24.8,12.7,24.8,12.7h-3l-21.9-12.7ZM113.7,125.1h0s28.6,12.9,28.6,12.9h-3.6l-25-12.9ZM143.2,137.7l-28.4-12.8h0s29.2,11.4,29.2,11.4c1,.4,1.8.9,2.6,1.6h-2.9c-.2,0-.3-.2-.5-.3ZM144.2,135.8l-28.1-11,28.9,9.7c1.8.6,3.4,1.9,4.4,3.5,0,0-.2,0-.3,0h-1.7c-.9-.9-2-1.7-3.2-2.2ZM145.2,133.9l-27.6-9.3,28.3,8c2.5.7,4.5,2.6,5.5,5-.4.1-.9.2-1.3.3-1.1-1.9-2.8-3.3-4.9-4ZM146,132.1l-27-7.6,27.6,6.4c3.1.7,5.4,3.1,6.2,6.2-.3.2-.6.3-.9.4-1.1-2.6-3.2-4.6-5.9-5.4ZM146.7,130.3l-26.3-6.1,26.8,4.9c3.5.6,6.1,3.6,6.8,7.1-.2.2-.4.3-.7.5-1-3.2-3.4-5.7-6.6-6.4ZM147.4,128.5l-25.5-4.6,26,3.5c3.9.5,6.8,3.9,7.1,7.9-.1.2-.3.3-.4.5-.8-3.6-3.5-6.6-7.2-7.3ZM178.1,112c.4,0,.8-.2,1.2-.3.1,0,.3,0,.4-.1,0,0,.1,0,.2,0h.2c.2-.1.3-.2.5-.2.2,0,.3-.1.5-.2h.3c.1-.2.3-.3.4-.4.2,0,.3-.2.5-.3l.3-.2c.1,0,.3-.2.4-.3.1,0,.3-.2.4-.3l.3-.2c.1-.1.3-.2.4-.3.1-.1.2-.2.4-.3l.3-.3c.1-.1.3-.2.4-.4.1-.1.3-.3.4-.4h.1c0-.2.1-.2.2-.3.1-.1.2-.2.3-.3.3-.4.6-.8.9-1.1h0c.3-.4.6-.8.9-1.3,0-.1.2-.3.2-.4,0,0,0-.1.1-.2v-.2c.2-.2.3-.4.4-.5,0-.2.2-.4.3-.5l.2-.4c0-.2.2-.3.2-.5,0-.2.2-.4.2-.6v-.3c.2-.2.3-.3.3-.5,0-.2.1-.4.2-.5v-.4c.2-.2.2-.4.3-.6,0-.2,0-.3.1-.5v-.4c.1-.2.2-.4.2-.6,0-.2,0-.4.1-.6v-.2c0,0,0-.1,0-.2,0-.2,0-.3,0-.5.1-1,.2-2,.2-3,0-.1,0-.3,0-.4,0,0,0-.1,0-.2v-.2c0-.2,0-.4,0-.6,0-.2,0-.4,0-.5v-.4c0-.2-.1-.3-.1-.5,0-.2,0-.4-.1-.5v-.3c-.1-.2-.2-.3-.2-.5,0-.2-.1-.3-.2-.5v-.3c-.2-.2-.2-.3-.3-.5,0-.1-.1-.3-.2-.4v-.3c-.2-.1-.3-.3-.4-.4,0-.1-.1-.2-.2-.3l.4.6c.2.3.5.6.7,1,0,0,.1.2.2.3,0,0,0,.1,0,.2v.2c.2.1.2.3.3.4,0,.1.1.3.2.4v.3c.2.1.3.3.3.4,0,.2.1.3.1.5v.3c.2.2.2.3.2.4,0,.1,0,.3,0,.5v.4c.1.2.1.3.2.5,0,.2,0,.3,0,.5v.4c0,.2,0,.4,0,.5,0,.2,0,.4,0,.6v.2c0,0,0,.2,0,.2,0,.1,0,.3,0,.4,0,1-.1,2-.3,3,0,.1,0,.3,0,.4,0,0,0,.2,0,.2v.2c0,.2-.1.4-.2.6,0,.2-.1.4-.2.6v.4c-.2.2-.2.3-.3.5,0,.2-.1.4-.2.6v.4c-.2.2-.3.3-.3.5,0,.2-.1.3-.2.5l-.2.4c0,.2-.2.4-.3.6,0,.2-.2.3-.2.5l-.2.4c0,.2-.2.3-.3.5-.1.2-.2.4-.3.5v.2c-.2,0-.2.1-.2.2,0,.1-.2.3-.3.4-.3.4-.6.8-.9,1.1h0c-.3.5-.6.8-1,1.2-.1.1-.2.2-.3.3,0,0-.1.1-.2.2h-.1c-.1.3-.3.4-.4.5-.1.1-.3.2-.4.3l-.3.3c-.1.1-.2.2-.4.3-.1.1-.3.2-.4.3l-.3.2c-.1,0-.3.2-.4.3-.1,0-.3.2-.4.2l-.3.2c-.2,0-.3.2-.4.2-.1,0-.3.1-.4.2h-.3c-.2.2-.3.3-.5.3h0c-.2,0-.3.1-.5.2h-.2c0,0-.1,0-.2.1-.1,0-.2,0-.3.1-.4.1-.8.2-1.2.2l-48.4,6.6,47.8-8.5ZM146.5,31.6c-1.8-2.2-4.3-3.5-7.2-3.5,0,0,0,0,0,0-1.1,0-2.2.2-3.4.5.3-.3.5-.5.8-.8,2.1-1.2,4.2-1.7,6.3-1.6,2.7.1,5,1.4,6.7,3.7l39.5,55.2-42.8-53.5ZM133.8,30.2c.4-.2.8-.4,1.3-.6,1.4-.6,2.8-.9,4.2-.9s0,0,0,0c2.7,0,5,1.1,6.7,3.3l40.9,51.1-44-49.4c-1.9-2.1-4.4-3.2-7.2-3.1-.6,0-1.2,0-1.7.2-.3,0-.6.1-.9.2-.2,0-.4.1-.7.2.2-.3.5-.5.7-.8.2-.1.4-.2.6-.3ZM130.4,33c.4-.2.8-.5,1.2-.7.3-.2.6-.3,1-.4.3-.1.6-.2.9-.3.8-.2,1.5-.3,2.3-.4.1,0,.2,0,.4,0,2.5,0,4.7,1,6.4,2.9l42,47.2-45-45.4c-1.9-1.9-4.4-2.8-7.1-2.7,0,0,0,0-.1,0-.2,0-.4,0-.6,0-.4,0-.7.1-1.1.2-.3,0-.6.2-.9.3-.2,0-.4.1-.6.2.2-.3.4-.5.7-.7.2-.1.3-.2.5-.3ZM127.2,35.8c.4-.3.8-.5,1.2-.7.3-.2.6-.3.9-.4.3-.1.6-.2.9-.3.4-.1.8-.2,1.2-.3.2,0,.5,0,.7-.1,0,0,.2,0,.3,0,2.6-.2,4.9.6,6.7,2.5l42.9,43.3-45.7-41.5c-1.4-1.3-3.2-2.1-5.1-2.3-.2,0-.4,0-.6,0-.4,0-.9,0-1.3,0,0,0-.1,0-.2,0-.2,0-.4,0-.5,0-.3,0-.7.1-1,.2-.3,0-.6.2-.9.3-.2,0-.4.1-.6.2.2-.2.4-.5.6-.7.2-.1.3-.2.5-.3ZM124.2,38.6c.4-.3.8-.5,1.2-.8.3-.2.6-.3.9-.4.3-.1.6-.2.9-.4.4-.1.8-.2,1.2-.3.2,0,.5,0,.7-.1,0,0,.2,0,.2,0,.4,0,.8,0,1.2,0h0c.2,0,.4,0,.6,0,1.8.1,3.5.9,4.9,2.1l43.6,39.6-46.3-37.7c-.9-.7-1.9-1.3-3-1.6-.2,0-.4-.1-.6-.1-.5-.1-1-.2-1.5-.2-.2,0-.4,0-.6,0-.4,0-.8,0-1.2.1,0,0-.1,0-.2,0-.2,0-.3,0-.5,0-.3,0-.6.2-.9.3-.3,0-.6.2-.9.3-.2,0-.3.1-.5.2.2-.2.3-.4.5-.7.1-.1.3-.2.4-.3ZM121.3,41.4c.4-.3.8-.6,1.2-.8.3-.2.5-.3.8-.4.3-.1.6-.3.9-.4.4-.1.7-.3,1.1-.4.2,0,.5-.1.7-.2,0,0,.1,0,.2,0,.4,0,.8-.1,1.2-.1.2,0,.4,0,.6,0,.5,0,1.1,0,1.6.2.2,0,.4,0,.6.1,1,.3,1.9.8,2.8,1.5l44.2,36-46.7-34.1c-.2-.2-.5-.3-.8-.5-.2-.1-.4-.2-.6-.3-.6-.3-1.1-.5-1.7-.6-.2,0-.4,0-.6-.1-.5,0-1-.1-1.5-.1-.2,0-.4,0-.6,0-.4,0-.8,0-1.2.2,0,0-.2,0-.3,0-.1,0-.3,0-.4.1-.3,0-.6.2-.9.3-.3.1-.6.2-.9.4-.2,0-.3.1-.5.2.1-.2.3-.4.5-.6.1,0,.2-.2.4-.3ZM118.7,44.2c.4-.3.7-.6,1.1-.8.2-.2.5-.3.7-.4.3-.2.6-.3.8-.4.3-.2.7-.3,1-.4.2,0,.5-.1.7-.2,0,0,0,0,.1,0,.4,0,.8-.1,1.2-.2.2,0,.4,0,.6,0,.5,0,1,0,1.5.1.2,0,.4,0,.6.1.6.2,1.2.4,1.8.7.2,0,.4.2.6.3.2,0,.3.2.5.3l44.5,32.5-44.9-29.3-.6-.4-1.4-.9c-.2-.2-.5-.3-.8-.4-.2,0-.4-.2-.6-.3-.6-.2-1.1-.4-1.7-.5-.2,0-.4,0-.6,0-.5,0-.9,0-1.4,0-.2,0-.4,0-.6,0-.4,0-.8.1-1.2.2-.1,0-.2,0-.3,0-.1,0-.3,0-.4.1-.3,0-.6.2-.8.3-.3.1-.6.2-.8.4-.1,0-.3.1-.4.2.1-.2.3-.4.4-.6.1,0,.2-.2.3-.3ZM116.2,47.1c.4-.3.7-.6,1.1-.9.2-.2.5-.3.7-.4.3-.2.5-.3.8-.4.3-.2.7-.3,1-.4.2,0,.5-.2.7-.2,0,0,0,0,0,0,.4-.1.8-.2,1.2-.2.2,0,.4,0,.6,0,.5,0,1,0,1.5,0,.2,0,.4,0,.6,0,.6.1,1.2.3,1.8.6.2,0,.4.2.6.3.2,0,.3.2.5.3l1.8,1.2.7.4,42.2,27.5-40.9-23.7-.9-.5-3.1-1.8-.7-.4-1.4-.8c-.2-.1-.5-.3-.8-.4-.2,0-.4-.2-.6-.2-.5-.2-1.1-.3-1.7-.4-.2,0-.4,0-.6,0-.5,0-.9,0-1.4,0-.2,0-.4,0-.6,0-.4,0-.7.1-1.1.2-.1,0-.3,0-.4.1-.1,0-.2,0-.3.1-.3,0-.5.2-.8.3-.3.1-.6.3-.8.4-.1,0-.2.1-.4.2.1-.2.2-.4.3-.5,0,0,.2-.2.3-.2ZM113.9,49.9c.3-.3.7-.6,1.1-.9.2-.2.4-.3.6-.4.3-.2.5-.3.8-.5.3-.2.6-.3.9-.4.2,0,.5-.2.7-.2,0,0,0,0,0,0,.4-.1.8-.2,1.2-.3.2,0,.4,0,.6,0,.5,0,1,0,1.4,0,.2,0,.4,0,.6,0,.6,0,1.2.3,1.7.5.2,0,.4.2.6.3.2,0,.3.2.5.2l1.8,1.1.7.4,3.4,2,1.1.6,37.7,21.9-35.3-18.1-1-.5-4.4-2.3-.9-.5-3.1-1.6-.7-.3-1.4-.7c-.2-.1-.5-.2-.7-.3-.2,0-.4-.1-.6-.2-.5-.2-1.1-.3-1.7-.3-.2,0-.4,0-.6,0-.4,0-.9,0-1.3,0-.2,0-.4,0-.6,0-.4,0-.7.1-1.1.3-.1,0-.3,0-.4.1,0,0-.2,0-.2,0-.3,0-.5.2-.7.3-.3.1-.5.3-.8.4-.1,0-.2.1-.3.2,0-.2.2-.3.3-.5,0,0,.1-.1.2-.2ZM111.7,52.7c.3-.3.7-.7,1-.9.2-.2.4-.3.6-.4.3-.2.5-.4.8-.5.3-.2.6-.3.9-.4.2,0,.4-.2.6-.3,0,0,0,0,0,0,.4-.1.8-.2,1.1-.3.2,0,.4,0,.6-.1.5,0,.9,0,1.4,0,.2,0,.4,0,.6,0,.6,0,1.2.2,1.7.4.2,0,.4.1.6.2.2,0,.3.1.4.2l1.8.9.7.4,3.4,1.7,1.1.6,4.3,2.2,1,.5,32.1,16.5-30.2-13.6-1-.4-3.7-1.7-1.1-.5-4.4-2-1-.4-3-1.4-.7-.3-1.4-.6c-.2-.1-.5-.2-.7-.3-.2,0-.4-.1-.6-.2-.5-.1-1.1-.2-1.6-.3-.2,0-.4,0-.6,0-.4,0-.9,0-1.3.1-.2,0-.4,0-.6.1-.3,0-.7.2-1,.3-.2,0-.3.1-.5.2,0,0-.1,0-.2,0-.2.1-.5.2-.7.3-.3.1-.5.3-.8.5,0,0-.2.1-.3.2,0-.2.2-.3.2-.4,0,0,.1-.1.2-.2ZM109.8,55.5c.3-.3.6-.7,1-1,.2-.2.4-.3.6-.4.2-.2.5-.4.8-.5.3-.2.6-.3.8-.5.2,0,.4-.2.6-.3,0,0,0,0,.1,0,.4-.1.7-.3,1.1-.4.2,0,.4,0,.6-.1.5,0,.9-.1,1.4-.1,0,0,0,0,0,0,.2,0,.3,0,.5,0,.6,0,1.1.1,1.7.3.2,0,.4.1.6.2.1,0,.3.1.4.2l1.8.8.7.3,3.4,1.5,1.1.5,4.3,1.9,1.1.5,3.6,1.6,1,.4,27.1,12.2-25.7-10.1-.9-.4-3.2-1.2-1-.4-3.7-1.4-1.1-.4-4.3-1.7-1-.4-3-1.2-.7-.3-1.4-.5c-.2,0-.5-.2-.7-.2-.2,0-.4-.1-.6-.2-.5-.1-1.1-.2-1.6-.2-.2,0-.4,0-.6,0-.4,0-.8,0-1.3.2-.2,0-.4,0-.6.1-.3,0-.6.2-1,.3-.2,0-.4.2-.6.2,0,0,0,0-.1,0-.2.1-.4.2-.7.3-.3.2-.5.3-.8.5,0,0-.2.1-.2.2,0-.1.1-.3.2-.4,0,0,.1-.1.2-.2ZM108,58.3c.3-.4.6-.7.9-1,.2-.2.3-.3.5-.4.2-.2.5-.4.7-.6.3-.2.5-.3.8-.5.2,0,.3-.2.5-.2,0,0,.1,0,.2,0,.3-.2.7-.3,1-.4.2,0,.4-.1.6-.2.4,0,.9-.2,1.3-.2.1,0,.3,0,.4,0s.1,0,.2,0c.6,0,1.1,0,1.7.2.2,0,.4.1.6.2.1,0,.3,0,.4.2l1.8.7.7.3,3.4,1.3,1.2.5,4.3,1.7,1.1.4,3.6,1.4,1,.4,3.1,1.2.9.4,22.6,8.8-21.6-7.2-.9-.3-2.8-.9-1-.3-3.1-1.1-1-.3-3.7-1.2-1.1-.4-4.3-1.4-1-.3-3-1-.7-.2-1.4-.5c-.2,0-.5-.1-.7-.2-.2,0-.4,0-.6-.1-.5,0-1-.1-1.5-.1-.2,0-.4,0-.6,0-.4,0-.8.1-1.2.2-.2,0-.4.1-.6.2-.3,0-.6.2-.9.3-.2,0-.4.2-.6.3,0,0,0,0,0,0-.2.1-.4.2-.6.4-.3.2-.5.3-.8.5,0,0-.1.1-.2.2,0-.1.1-.2.2-.4,0,0,0-.1.1-.2ZM106.3,61c.3-.4.6-.7.9-1,.2-.2.3-.3.5-.4.2-.2.5-.4.7-.6.2-.2.5-.3.7-.5.1,0,.3-.2.4-.2,0,0,.2,0,.2-.1.3-.2.7-.3,1-.4.2,0,.4-.1.6-.2.4-.1.8-.2,1.3-.2.2,0,.4,0,.6,0,.5,0,1.1,0,1.6.1.2,0,.4,0,.6.1.1,0,.3,0,.4.1l1.8.6.7.3,3.3,1.1,1.2.4,4.2,1.4,1.1.4,3.5,1.2,1,.3,3,1,1,.3,2.7.9.9.3,18.5,6.2-17.7-5-.9-.2-2.4-.7-.9-.3-2.7-.8-1-.3-3.1-.9-1.1-.3-3.6-1-1.2-.3-4.2-1.2-1-.3-2.9-.8-.7-.2-1.3-.4c-.2,0-.5-.1-.7-.2-.2,0-.4,0-.6,0-.5,0-1,0-1.5,0-.2,0-.4,0-.6,0-.4,0-.8.1-1.2.2-.2,0-.4.1-.6.2-.3.1-.6.2-.9.4-.2.1-.4.2-.6.3,0,0,0,0,0,0-.2.1-.4.2-.5.3-.3.2-.5.3-.7.5,0,0-.1,0-.2.1,0-.1,0-.2.1-.3,0,0,0,0,.1-.1ZM104.8,63.7c.3-.4.5-.7.8-1,.1-.1.3-.3.4-.4.2-.2.5-.4.7-.6.2-.2.5-.3.7-.5.1,0,.2-.1.3-.2,0,0,.2-.1.3-.2.3-.2.6-.3.9-.4.2,0,.4-.1.6-.2.4-.1.8-.2,1.2-.3.2,0,.4,0,.6,0,.5,0,1.1,0,1.6,0,.2,0,.4,0,.6.1.1,0,.3,0,.4.1l1.8.5.8.2,3.3.9,1.2.3,4.2,1.2,1.2.3,3.5,1,1.1.3,3,.8,1,.3,2.6.7.9.3,2.3.7.9.2,14.7,4.1-14.1-3.3-.8-.2-2.2-.5-.9-.2-2.4-.5-.9-.2-2.7-.6h0c0,0,0,0,0,0l-1-.2h0s-3-.7-3-.7l-1.1-.2-3.5-.8-1.2-.3-4.2-1-1-.2-2.9-.7-.7-.2-1.3-.3c-.2,0-.5,0-.7-.1-.2,0-.4,0-.6,0-.5,0-1,0-1.5,0-.2,0-.4,0-.6,0-.4,0-.7.2-1.1.3-.2,0-.4.1-.6.2-.3.1-.6.2-.8.4-.2.1-.4.2-.6.4,0,0,0,0-.1,0-.1,0-.3.2-.4.3-.2.2-.5.4-.7.6,0,0,0,0-.1.1,0,0,0-.2,0-.3,0,0,0,0,0-.1ZM103.5,66.3c.2-.4.5-.7.8-1,.1-.1.3-.3.4-.4.2-.2.4-.4.7-.6.2-.2.4-.3.6-.5,0,0,.2-.1.3-.2.1,0,.2-.1.4-.2.3-.2.6-.3.9-.4.2,0,.4-.2.6-.2.4-.1.8-.2,1.2-.3.2,0,.4,0,.6,0,.5,0,1,0,1.5,0,.2,0,.4,0,.6,0,.1,0,.3,0,.4,0l1.8.4.8.2,3.2.7,1.3.3,4.1.9,1.2.3,3.4.8,1.1.2,2.9.7h0c0,0,0,0,0,0l1,.2h0s2.6.6,2.6.6l.9.2,2.3.5.9.2,2.1.5.8.2,11.2,2.6-10.8-2h-.8c0-.1-2-.5-2-.5l-.8-.2-2.1-.4-.9-.2-2.3-.4-.9-.2-2.6-.5-1-.2-3-.5-1.1-.2-3.5-.6-1.2-.2-4.1-.7-1.1-.2-2.8-.5h-.7c0-.1-1.3-.4-1.3-.4-.2,0-.5,0-.7,0-.2,0-.4,0-.6,0-.5,0-.9,0-1.4,0-.2,0-.4,0-.6.1-.4,0-.7.2-1.1.3-.2,0-.4.1-.6.2-.3.1-.5.2-.8.4-.2.1-.4.2-.6.4,0,0-.1,0-.2.1-.1,0-.2.2-.3.2-.2.2-.5.4-.7.6,0,0,0,0-.1,0,0,0,0-.1,0-.2,0,0,0,0,0-.1ZM102.2,68.9c.2-.4.5-.7.8-1.1.1-.1.2-.3.3-.4.2-.2.4-.4.6-.6.2-.2.4-.3.6-.5,0,0,.1,0,.2-.1.1,0,.3-.2.4-.3.3-.2.6-.3.9-.5.2,0,.4-.2.6-.2.4-.1.7-.3,1.1-.3.2,0,.4,0,.6-.1.5,0,1,0,1.5,0,.2,0,.4,0,.6,0,.1,0,.2,0,.4,0l1.8.3h.8c0,.1,3.2.7,3.2.7l1.3.2,4,.7,1.2.2,3.4.6,1.1.2,2.9.5,1,.2,2.5.5.9.2,2.3.4.9.2,2,.4.8.2,1.9.3h.8c0,.1,7.9,1.6,7.9,1.6l-7.6-1h-.8c0-.1-1.8-.3-1.8-.3h-.8c0-.1-1.9-.4-1.9-.4h-.8c0-.1-2.1-.4-2.1-.4h-.9c0-.1-2.3-.4-2.3-.4h-1c0-.1-2.5-.5-2.5-.5h-1c0-.1-2.9-.5-2.9-.5l-1.1-.2-3.4-.5-1.2-.2-4-.5h-1.1c0-.1-2.8-.5-2.8-.5h-.8c0-.1-1.3-.3-1.3-.3-.2,0-.5,0-.7,0-.2,0-.4,0-.6,0-.5,0-.9,0-1.4.1-.2,0-.4,0-.6.1-.3,0-.7.2-1,.3-.2,0-.4.2-.6.3-.2.1-.5.3-.7.4-.2.1-.4.3-.6.4,0,0-.1.1-.2.2,0,0-.1.1-.2.2-.2.2-.5.4-.7.6,0,0,0,0,0,0,0,0,0-.1,0-.2,0,0,0,0,0,0ZM101.2,71.4c.2-.4.4-.7.7-1.1.1-.1.2-.3.3-.4.2-.2.4-.4.6-.6.2-.2.4-.3.6-.5,0,0,0,0,.1,0,.1-.1.3-.2.5-.3.3-.2.5-.3.8-.5.2,0,.4-.2.6-.3.4-.1.7-.3,1.1-.4.2,0,.4,0,.6-.1.5,0,1-.1,1.5-.1.2,0,.4,0,.6,0,.1,0,.2,0,.4,0l1.8.2h.8c0,.1,3.1.5,3.1.5l1.3.2,3.9.5,1.2.2,3.3.4,1.1.2,2.8.4h1c0,.1,2.5.5,2.5.5h1c0,.1,2.2.4,2.2.4h.9c0,.1,2,.4,2,.4h.8c0,.1,1.8.4,1.8.4h.8c0,.1,1.7.3,1.7.3h.8c0,.1,4.8.7,4.8.7l-4.6-.4h-.7c0,0-1.6-.2-1.6-.2h-.8c0,0-1.7-.2-1.7-.2h-.8c0,0-1.9-.2-1.9-.2h-.9c0,0-2-.3-2-.3h-.9c0,0-2.2-.3-2.2-.3h-1c0,0-2.5-.3-2.5-.3h-1c0,0-2.8-.3-2.8-.3h-1.1c0-.1-3.3-.4-3.3-.4h-1.3c0-.1-3.9-.5-3.9-.5h-1.1c0,0-2.7-.3-2.7-.3h-.8c0,0-1.2-.2-1.2-.2-.2,0-.4,0-.7,0-.2,0-.4,0-.6,0-.4,0-.9,0-1.3.2-.2,0-.4,0-.6.2-.3,0-.7.2-1,.4-.2,0-.4.2-.6.3-.2.1-.5.3-.7.4-.2.1-.4.3-.6.4,0,0-.2.1-.3.2,0,0,0,0-.1.1-.2.2-.4.4-.6.6,0,0,0,0,0,0,0,0,0-.1,0-.2,0,0,0,0,0,0ZM100.2,73.9c.2-.4.4-.7.7-1.1,0-.1.2-.2.3-.4.2-.2.4-.4.6-.6.2-.2.3-.3.5-.5,0,0,0,0,0,0,.2-.1.3-.3.5-.4.2-.2.5-.3.8-.5.2-.1.4-.2.5-.3.3-.2.7-.3,1-.4.2,0,.4-.1.6-.1.5-.1.9-.2,1.4-.2.2,0,.4,0,.7,0,.1,0,.2,0,.3,0l1.7.2h.8c0,0,3,.3,3,.3h1.3c0,.1,3.8.5,3.8.5h1.3c0,.1,3.2.4,3.2.4h1.1c0,.1,2.7.3,2.7.3h1c0,0,2.4.3,2.4.3h1c0,0,2.1.3,2.1.3h.9c0,0,1.9.3,1.9.3h.9c0,0,1.8.2,1.8.2h.8c0,0,1.7.2,1.7.2h.8c0,0,1.6.2,1.6.2h.7c0,0,1.8.2,1.8.2h-1.8c0,0-.7-.1-.7-.1h-1.5c0,0-.7,0-.7,0h-1.6c0,0-.8-.1-.8-.1h-1.7c0,0-.8-.1-.8-.1h-1.8c0,0-.9-.1-.9-.1h-2c0,0-.9-.1-.9-.1h-2.1c0,0-1-.1-1-.1h-2.4c0-.1-1.1-.2-1.1-.2h-2.8c0-.1-1.2-.2-1.2-.2h-3.2c0-.1-1.3-.2-1.3-.2l-3.8-.2h-1.1s-2.6-.2-2.6-.2h-.8s-1.2,0-1.2,0c-.2,0-.4,0-.7,0-.2,0-.4,0-.6,0-.4,0-.9.1-1.3.2-.2,0-.4.1-.6.2-.3.1-.6.2-.9.4-.2,0-.4.2-.5.3-.2.1-.4.3-.6.4-.2.1-.4.3-.6.4-.1.1-.2.2-.4.3,0,0,0,0,0,0-.2.2-.4.4-.6.6,0,0,0,0,0,0,0,0,0,0,0-.1,0,0,0,0,0,0ZM99.4,76.4s0,0,0,0c0,0,0,0,0,0,0,0,0,0,0-.1,0,0,0,0,0,0ZM98.7,79.5c0-.2,0-.5,0-.7.4,4.2,3.6,7.7,7.9,8.1l23.8,2.1-24.2-1.1c-2.1,0-4.1-1-5.5-2.6-1.4-1.6-2.2-3.7-2.1-5.8ZM108.5,180.3c1.8,2.2,4.3,3.5,7.2,3.5,0,0,0,0,0,0,1.1,0,2.2-.2,3.3-.5-.3.3-.5.5-.8.8-2.1,1.2-4.2,1.7-6.3,1.6-2.7-.1-5-1.4-6.7-3.7l-39.5-55.2,42.8,53.5ZM121.2,181.7c-.4.2-.8.4-1.3.6-1.4.6-2.8.9-4.3.9-2.7,0-5-1.1-6.7-3.3l-40.9-51.1,44,49.4c1.8,2,4.2,3.1,6.8,3.1.1,0,.2,0,.4,0,.6,0,1.2,0,1.7-.2.3,0,.6-.1.9-.2.2,0,.4-.1.7-.2-.2.3-.5.5-.7.8-.2.1-.4.2-.6.3ZM124.6,179c-.4.2-.8.5-1.2.7-.3.2-.6.3-1,.4-.3.1-.6.2-.9.3-.8.2-1.5.3-2.3.4-2.6.1-5-.9-6.7-2.9l-42-47.2,45,45.4c1.7,1.7,4,2.7,6.4,2.7.2,0,.4,0,.7,0,0,0,0,0,.1,0,.2,0,.4,0,.6,0,.4,0,.7-.1,1.1-.2.3,0,.6-.2.9-.3.2,0,.4-.1.6-.2-.2.3-.4.5-.7.7-.2.1-.3.2-.5.3ZM127.8,176.2c-.4.3-.8.5-1.2.7-.3.2-.6.3-.9.4-.3.1-.6.2-.9.3-.4.1-.8.2-1.2.3-.2,0-.5,0-.7.1,0,0-.2,0-.3,0-2.6.2-4.9-.6-6.7-2.5l-42.9-43.3,45.7,41.5c1.4,1.3,3.2,2.1,5.1,2.3.2,0,.4,0,.6,0,0,0,.2,0,.3,0,.3,0,.7,0,1,0,0,0,.1,0,.2,0,.2,0,.4,0,.5,0,.3,0,.7-.1,1-.2.3,0,.6-.2.9-.3.2,0,.4-.1.6-.2-.2.2-.4.5-.6.7-.2.1-.3.2-.5.3ZM130.8,173.4c-.4.3-.8.5-1.2.8-.3.2-.6.3-.9.4-.3.1-.6.2-.9.4-.4.1-.8.2-1.2.3-.2,0-.5,0-.7.1,0,0-.2,0-.2,0-.4,0-.8,0-1.2,0-.2,0-.4,0-.6,0-1.8-.1-3.5-.9-4.9-2.1l-43.6-39.6,46.3,37.7c.9.7,1.9,1.3,3,1.6.2,0,.4.1.6.1.5.1,1,.2,1.5.2.2,0,.3,0,.5,0s0,0,.1,0c.4,0,.8,0,1.2-.1,0,0,.1,0,.2,0,.2,0,.3,0,.5,0,.3,0,.6-.2.9-.3.3,0,.6-.2.9-.3.2,0,.3-.1.5-.2-.2.2-.3.4-.5.7-.1.1-.3.2-.4.3ZM133.7,170.6c-.4.3-.8.6-1.2.8-.3.2-.5.3-.8.4-.3.1-.6.3-.9.4-.4.1-.7.3-1.1.4-.2,0-.5.1-.7.2,0,0-.1,0-.2,0-.4,0-.8.1-1.2.1-.2,0-.4,0-.6,0-.5,0-1.1,0-1.6-.2-.2,0-.4,0-.6-.1-1-.3-1.9-.8-2.8-1.5l-44.2-36,46.7,34.1c.2.2.5.3.8.5.2.1.4.2.6.3.6.3,1.1.5,1.7.6.2,0,.4,0,.6.1.5,0,1,.1,1.5.1,0,0,0,0,0,0,.2,0,.4,0,.5,0,.4,0,.8,0,1.2-.2,0,0,.2,0,.3,0,.1,0,.3,0,.4-.1.3,0,.6-.2.9-.3.3-.1.6-.2.9-.4.2,0,.3-.1.5-.2-.1.2-.3.4-.5.6-.1,0-.2.2-.4.3ZM136.3,167.7c-.4.3-.7.6-1.1.8-.2.2-.5.3-.7.4-.3.2-.6.3-.8.4-.3.2-.7.3-1,.4-.2,0-.5.1-.7.2,0,0,0,0-.1,0-.4,0-.8.1-1.2.2-.2,0-.4,0-.6,0-.5,0-1,0-1.5-.1-.2,0-.4,0-.6-.1-.6-.2-1.2-.4-1.8-.7-.2,0-.4-.2-.6-.3-.2,0-.3-.2-.5-.3l-44.5-32.5,44.9,29.2.6.4,1.4.9c.2.2.5.3.8.4.2,0,.4.2.6.3.6.2,1.1.4,1.7.5.2,0,.4,0,.6,0,.4,0,.8,0,1.1,0s.2,0,.3,0c.2,0,.4,0,.6,0,.4,0,.8-.1,1.2-.2.1,0,.2,0,.3,0,.1,0,.3,0,.4-.1.3,0,.6-.2.8-.3.3-.1.6-.2.8-.4.1,0,.3-.1.4-.2-.1.2-.3.4-.4.6-.1,0-.2.2-.3.3ZM138.8,164.9c-.4.3-.7.6-1.1.9-.2.2-.5.3-.7.4-.3.2-.5.3-.8.4-.3.2-.7.3-1,.4-.2,0-.5.2-.7.2,0,0,0,0,0,0-.4.1-.8.2-1.2.2-.2,0-.4,0-.6,0-.5,0-1,0-1.5,0-.2,0-.4,0-.6,0-.6-.1-1.2-.3-1.8-.6-.2,0-.4-.2-.6-.3-.2,0-.3-.2-.5-.3l-1.8-1.2-.7-.4-42.2-27.5,40.9,23.7.9.5,3.1,1.8.7.4,1.4.8c.2.1.5.3.8.4.2,0,.4.2.6.2.5.2,1.1.3,1.7.4.2,0,.4,0,.6,0,.2,0,.5,0,.7,0s.4,0,.6,0c.2,0,.4,0,.6,0,.4,0,.7-.1,1.1-.2.1,0,.3,0,.4-.1.1,0,.2,0,.3-.1.3,0,.5-.2.8-.3.3-.1.6-.3.8-.4.1,0,.2-.1.4-.2-.1.2-.2.4-.3.5,0,0-.2.2-.3.2ZM141.1,162.1c-.3.3-.7.6-1.1.9-.2.2-.4.3-.6.4-.3.2-.5.3-.8.5-.3.2-.6.3-.9.4-.2,0-.5.2-.7.2,0,0,0,0,0,0-.4.1-.8.2-1.2.3-.2,0-.4,0-.6,0-.5,0-1,0-1.4,0-.2,0-.4,0-.6,0-.6,0-1.2-.3-1.7-.5-.2,0-.4-.2-.6-.3-.2,0-.3-.2-.5-.2l-1.8-1.1-.7-.4-3.4-2-1.1-.6-37.7-21.9,35.3,18.1,1,.5,4.4,2.3.9.5,3.1,1.6.7.3,1.4.7c.2.1.5.2.7.3.2,0,.4.1.6.2.5.2,1.1.3,1.7.3.2,0,.4,0,.6,0,.1,0,.2,0,.3,0,.3,0,.7,0,1,0,.2,0,.4,0,.6,0,.4,0,.7-.2,1.1-.3.1,0,.3,0,.4-.1,0,0,.2,0,.2,0,.3,0,.5-.2.7-.3.3-.1.5-.3.8-.4.1,0,.2-.1.3-.2,0,.2-.2.3-.3.5,0,0-.1.1-.2.2ZM143.3,159.2c-.3.3-.7.7-1,.9-.2.2-.4.3-.6.4-.3.2-.5.4-.8.5-.3.2-.6.3-.9.4-.2,0-.4.2-.6.3,0,0,0,0,0,0-.4.1-.8.2-1.1.3-.2,0-.4,0-.6.1-.5,0-.9,0-1.4,0-.2,0-.4,0-.6,0-.6,0-1.2-.2-1.7-.4-.2,0-.4-.1-.6-.2-.2,0-.3-.1-.4-.2l-1.8-.9-.7-.4-3.4-1.7-1.1-.6-4.3-2.2-1-.5-32.1-16.5,30.2,13.6,1,.4,3.7,1.7,1.1.5,4.4,2,1,.4,3,1.4.7.3,1.4.6c.2.1.5.2.7.3.2,0,.4.1.6.2.5.1,1.1.2,1.6.3.2,0,.4,0,.5,0s0,0,0,0c.4,0,.9,0,1.3-.1.2,0,.4,0,.6-.1.3,0,.7-.2,1-.3.2,0,.3-.1.5-.2,0,0,.1,0,.2,0,.2-.1.5-.2.7-.3.3-.1.5-.3.8-.5,0,0,.2-.1.3-.2,0,.2-.2.3-.2.4,0,0-.1.1-.2.2ZM145.2,156.4c-.3.3-.6.7-1,1-.2.2-.4.3-.6.4-.2.2-.5.4-.8.5-.3.2-.6.3-.8.5-.2,0-.4.2-.6.3,0,0,0,0-.1,0-.4.1-.7.3-1.1.4-.2,0-.4,0-.6.1-.5,0-.9.1-1.4.1-.2,0-.4,0-.6,0-.6,0-1.1-.1-1.7-.3-.2,0-.4-.1-.6-.2-.1,0-.3-.1-.4-.2l-1.8-.8-.7-.3-3.4-1.5-1.1-.5-4.3-1.9-1.1-.5-3.6-1.6-1-.4-27.1-12.2,25.7,10.1.9.4,3.2,1.2,1,.4,3.7,1.4,1.1.4,4.3,1.7,1,.4,3,1.2.7.3,1.4.5c.2,0,.5.2.7.2.2,0,.4.1.6.1.5.1,1.1.2,1.6.2,0,0,.1,0,.2,0,.1,0,.3,0,.4,0,.4,0,.8,0,1.3-.2.2,0,.4,0,.6-.1.3,0,.6-.2,1-.3.2,0,.4-.2.6-.2,0,0,0,0,.1,0,.2-.1.4-.2.7-.3.3-.2.5-.3.8-.5,0,0,.2-.1.2-.2,0,.1-.1.3-.2.4,0,0-.1.1-.2.2ZM147,153.7c-.3.4-.6.7-.9,1-.2.2-.3.3-.5.4-.2.2-.5.4-.7.6-.3.2-.5.3-.8.5-.2,0-.3.2-.5.2,0,0-.1,0-.2,0-.3.2-.7.3-1,.4-.2,0-.4.1-.6.2-.4,0-.9.2-1.3.2-.2,0-.4,0-.6,0-.6,0-1.1,0-1.7-.2-.2,0-.4-.1-.6-.2-.1,0-.3,0-.4-.2l-1.8-.7-.7-.3-3.4-1.3-1.2-.5-4.3-1.7-1.1-.4-3.6-1.4-1-.4-3.1-1.2-.9-.4-22.6-8.8,21.6,7.2.9.3,2.8.9,1,.3,3.1,1.1,1,.3,3.7,1.2,1.1.4,4.3,1.4,1,.3,3,1,.7.2,1.4.5c.2,0,.5.1.7.2.2,0,.4,0,.6.1.4,0,.9.1,1.4.1s.1,0,.2,0c.2,0,.4,0,.6,0,.4,0,.8-.1,1.2-.2.2,0,.4-.1.6-.2.3,0,.6-.2.9-.3.2,0,.4-.2.6-.3,0,0,0,0,0,0,.2-.1.4-.2.6-.4.3-.2.5-.3.8-.5,0,0,.1-.1.2-.2,0,.1-.1.2-.2.4,0,0,0,.1-.1.2ZM148.7,151c-.3.4-.6.7-.9,1-.2.1-.3.3-.5.4-.2.2-.5.4-.7.6-.2.2-.5.3-.7.5-.1,0-.3.2-.4.2,0,0-.2,0-.2.1-.3.2-.7.3-1,.4-.2,0-.4.1-.6.2-.4.1-.8.2-1.3.2-.2,0-.4,0-.6,0-.5,0-1.1,0-1.6-.1-.2,0-.4,0-.6-.1-.1,0-.3,0-.4-.1l-1.8-.6-.7-.3-3.3-1.1-1.2-.4-4.2-1.4-1.1-.4-3.5-1.2-1-.3-3-1-1-.3-2.7-.9-.9-.3-18.5-6.2,17.7,5,.9.2,2.4.7.9.3,2.7.8,1,.3,3.1.9,1.1.3,3.6,1,1.2.3,4.2,1.2,1,.3,2.9.8.7.2,1.3.4c.2,0,.5.1.7.2.2,0,.4,0,.6,0,.3,0,.6,0,1,0s.4,0,.5,0c.2,0,.4,0,.6,0,.4,0,.8-.1,1.2-.2.2,0,.4-.1.6-.2.3-.1.6-.2.9-.4.2-.1.4-.2.6-.3,0,0,0,0,0,0,.2-.1.4-.2.5-.3.3-.2.5-.3.7-.5,0,0,.1,0,.2-.1,0,.1,0,.2-.1.3,0,0,0,0-.1.1ZM150.2,148.3c-.3.4-.5.7-.8,1-.1.1-.3.3-.4.4-.2.2-.5.4-.7.6-.2.2-.5.3-.7.5-.1,0-.2.1-.3.2,0,0-.2.1-.3.2-.3.2-.6.3-.9.4-.2,0-.4.1-.6.2-.4.1-.8.2-1.2.3-.2,0-.4,0-.6,0-.5,0-1.1,0-1.6,0-.2,0-.4,0-.6-.1-.1,0-.3,0-.4-.1l-1.8-.5-.8-.2-3.3-.9-1.2-.3-4.2-1.2-1.2-.3-3.5-1-1.1-.3-3-.8-1-.3-2.6-.7-.9-.3-2.3-.7-.9-.2-14.7-4.1,14.1,3.3.8.2,2.2.5.9.2,2.4.5.9.2,2.7.6,1,.2,3,.7,1.1.2,3.5.8,1.2.3,4.2,1,1,.2,2.9.7.7.2,1.3.3c.2,0,.5,0,.7.1.2,0,.4,0,.6,0,.2,0,.4,0,.6,0,.3,0,.6,0,.9,0,.2,0,.4,0,.6,0,.4,0,.7-.2,1.1-.3.2,0,.4-.1.6-.2.3-.1.6-.2.8-.4.2-.1.4-.2.6-.4,0,0,0,0,.1,0,.1,0,.3-.2.4-.3.2-.2.5-.4.7-.6,0,0,0,0,.1-.1,0,0,0,.2,0,.3,0,0,0,0,0,.1ZM151.5,145.6c-.2.4-.5.7-.8,1-.1.1-.3.3-.4.4-.2.2-.4.4-.7.6-.2.2-.4.3-.6.5,0,0-.2.1-.3.2-.1,0-.2.1-.4.2-.3.2-.6.3-.9.4-.2,0-.4.2-.6.2-.4.1-.8.2-1.2.3-.2,0-.4,0-.6,0-.5,0-1,0-1.5,0-.2,0-.4,0-.6,0-.1,0-.3,0-.4,0l-1.8-.4-.8-.2-3.2-.7-1.3-.3-4.1-.9-1.2-.3-3.4-.8-1.1-.2-2.9-.7-1-.2-2.6-.6-.9-.2-2.3-.5-.9-.2-2.1-.5-.8-.2-11.2-2.6,10.8,2h.8c0,.1,2,.5,2,.5l.8.2,2.1.4.9.2,2.3.4.9.2,2.6.5,1,.2,3,.5,1.1.2,3.5.6,1.2.2,4.1.7,1.1.2,2.8.5h.7c0,.1,1.3.4,1.3.4.2,0,.5,0,.7,0,.2,0,.4,0,.6,0,0,0,.1,0,.2,0,.4,0,.8,0,1.2,0,.2,0,.4,0,.6-.1.4,0,.7-.2,1.1-.3.2,0,.4-.1.6-.2.3-.1.5-.2.8-.4.2-.1.4-.2.6-.4,0,0,.1,0,.2-.1.1,0,.2-.2.3-.2.2-.2.5-.4.7-.6,0,0,0,0,.1,0,0,0,0,.1,0,.2,0,0,0,0,0,.1ZM152.8,143c-.2.4-.5.7-.8,1.1-.1.1-.2.3-.3.4-.2.2-.4.4-.6.6-.2.2-.4.3-.6.5,0,0-.1,0-.2.1-.1,0-.3.2-.4.3-.3.2-.6.3-.9.5-.2,0-.4.2-.6.2-.4.1-.7.3-1.1.3-.2,0-.4,0-.6.1-.5,0-1,0-1.5,0-.2,0-.4,0-.6,0-.1,0-.2,0-.4,0l-1.8-.3h-.8c0-.1-3.2-.7-3.2-.7l-1.3-.2-4-.7-1.2-.2-3.4-.6-1.1-.2-2.9-.5-1-.2-2.5-.5-.9-.2-2.3-.4-.9-.2-2-.4-.8-.2-1.9-.3h-.8c0-.1-7.9-1.6-7.9-1.6l7.6,1h.8c0,.1,1.8.3,1.8.3h.8c0,.1,1.9.4,1.9.4h.8c0,.1,2.1.4,2.1.4h.9c0,.1,2.3.4,2.3.4h1c0,.1,2.5.5,2.5.5h1c0,.1,2.9.5,2.9.5l1.1.2,3.4.5,1.2.2,4,.5h1.1c0,.1,2.8.5,2.8.5h.8c0,.1,1.3.3,1.3.3.2,0,.5,0,.7,0,.1,0,.3,0,.4,0s.1,0,.2,0c.5,0,.9,0,1.4-.1.2,0,.4,0,.6-.1.3,0,.7-.2,1-.3.2,0,.4-.2.6-.3.2-.1.5-.3.7-.4.2-.1.4-.3.6-.4,0,0,.1-.1.2-.2,0,0,.1-.1.2-.2.2-.2.5-.4.7-.6,0,0,0,0,0,0,0,0,0,.1,0,.2,0,0,0,0,0,0ZM153.8,140.5c-.2.4-.4.7-.7,1.1-.1.1-.2.3-.3.4-.2.2-.4.4-.6.6-.2.2-.4.3-.6.5,0,0,0,0-.1,0-.1.1-.3.2-.5.3-.3.2-.5.3-.8.5-.2,0-.4.2-.6.3-.4.1-.7.3-1.1.4-.2,0-.4,0-.6.1-.5,0-1,.1-1.5.1-.2,0-.4,0-.6,0-.1,0-.2,0-.4,0l-1.8-.2h-.8c0-.1-3.1-.5-3.1-.5l-1.3-.2-3.9-.5-1.2-.2-3.3-.4-1.1-.2-2.8-.4h-1c0-.1-2.5-.5-2.5-.5h-1c0-.1-2.2-.4-2.2-.4h-.9c0-.1-2-.4-2-.4h-.8c0-.1-1.8-.4-1.8-.4h-.8c0-.1-1.7-.3-1.7-.3h-.8c0-.1-4.8-.7-4.8-.7l4.6.4h.7c0,0,1.6.2,1.6.2h.8c0,0,1.7.2,1.7.2h.8c0,0,1.9.2,1.9.2h.9c0,0,2,.3,2,.3h.9c0,0,2.2.3,2.2.3h1c0,0,2.5.3,2.5.3h1c0,0,2.8.3,2.8.3h1.1c0,.1,3.3.4,3.3.4h1.3c0,.1,3.9.5,3.9.5h1.1c0,0,2.7.3,2.7.3h.8c0,0,1.2.2,1.2.2.2,0,.4,0,.7,0,0,0,0,0,0,0,.2,0,.4,0,.5,0,.4,0,.9,0,1.3-.2.2,0,.4,0,.6-.2.3,0,.7-.2,1-.4.2,0,.4-.2.6-.3.2-.1.5-.3.7-.4.2-.1.4-.3.6-.4,0,0,.2-.1.3-.2,0,0,0,0,.1-.1.2-.2.4-.4.6-.6,0,0,0,0,0,0,0,0,0,.1,0,.2,0,0,0,0,0,0ZM154.8,138c-.2.4-.4.7-.7,1.1,0,.1-.2.2-.3.4-.2.2-.4.4-.6.6-.2.2-.3.3-.5.5,0,0,0,0,0,0-.2.1-.3.3-.5.4-.2.2-.5.3-.8.5-.2.1-.4.2-.5.3-.3.2-.7.3-1,.4-.2,0-.4.1-.6.1-.5.1-.9.2-1.4.2-.2,0-.4,0-.7,0-.1,0-.2,0-.3,0l-1.7-.2h-.8c0,0-3-.3-3-.3h-1.3c0-.1-3.8-.5-3.8-.5h-1.3c0-.1-3.2-.4-3.2-.4h-1.1c0-.1-2.7-.3-2.7-.3h-1c0,0-2.4-.3-2.4-.3h-1c0,0-2.1-.3-2.1-.3h-.9c0,0-1.9-.3-1.9-.3h-.9c0,0-1.8-.2-1.8-.2h-.8c0,0-1.7-.2-1.7-.2h-.8c0,0-1.6-.2-1.6-.2h-.7c0,0-1.8-.2-1.8-.2h1.8c0,0,.7.1.7.1h1.5c0,0,.7,0,.7,0h1.6c0,0,.8.1.8.1h1.7c0,0,.8.1.8.1h1.8c0,0,.9.1.9.1h2c0,0,.9.1.9.1h2.1c0,0,1,.1,1,.1h2.4c0,.1,1.1.2,1.1.2h2.8c0,.1,1.2.2,1.2.2h3.2c0,.1,1.3.2,1.3.2l3.8.2h1.1s2.6.2,2.6.2h.8s1.2,0,1.2,0c.1,0,.2,0,.4,0s.2,0,.3,0c.2,0,.4,0,.6,0,.4,0,.9-.1,1.3-.2.2,0,.4-.1.6-.2.3-.1.6-.2.9-.4.2,0,.4-.2.5-.3.2-.1.4-.3.6-.4.2-.1.4-.3.6-.4.1-.1.2-.2.4-.3,0,0,0,0,0,0,.2-.2.4-.4.6-.6,0,0,0,0,0,0,0,0,0,0,0,.1,0,0,0,0,0,0ZM155.6,135.6c-.2.4-.4.7-.6,1.1,0,.1-.2.2-.2.3-.2.2-.4.5-.6.7-.1.1-.3.3-.4.4,0,0,0,0,0,0-.2.2-.3.3-.5.4-.2.2-.5.3-.7.5-.2.1-.4.2-.5.3-.3.2-.6.3-1,.4-.2,0-.4.1-.6.2-.4.1-.9.2-1.4.2-.2,0-.4,0-.7,0-.1,0-.2,0-.3,0h-1.7c0,0-.8-.1-.8-.1h-3c0-.1-1.4-.2-1.4-.2l-3.7-.2h-1.3c0,0-3.1-.2-3.1-.2h-1.2c0,0-2.6-.2-2.6-.2h-1.1s-2.3-.1-2.3-.1h-1s-2.1-.1-2.1-.1h-.9s-1.9-.1-1.9-.1h-.9s-1.7-.1-1.7-.1h-.8s-1.6-.1-1.6-.1h-.8s-1.5-.1-1.5-.1h-.7s-1.3,0-1.3,0h0s0,0,0,0h38.4c.2,0,.4,0,.6,0,.2,0,.4,0,.6,0,.4,0,.8-.2,1.2-.3.2,0,.4-.1.6-.2.3-.1.6-.2.9-.4.2,0,.4-.2.5-.3.2-.1.4-.3.6-.4.2-.1.4-.3.5-.4.1-.1.2-.2.3-.3.2-.2.4-.4.6-.6,0,0,0,0,0,0,0,0,0,0,0,.1,0,0,0,0,0,0ZM156.3,132.5c0,.2,0,.5,0,.7-.4-4.2-3.6-7.7-7.9-8.1l-23.8-2.1,24.2,1.1c4.4.2,7.8,4,7.6,8.4ZM178.8,114.4c.4,0,.8-.1,1.3-.3.1,0,.3,0,.4-.1,0,0,.1,0,.2,0h.2c.2-.1.3-.2.5-.2h0c.2,0,.3-.1.5-.2h.3c.1-.2.3-.3.4-.3.2,0,.3-.2.5-.3l.3-.2c.1,0,.3-.2.4-.3.1,0,.3-.2.4-.3l.3-.2c.2-.1.3-.2.5-.3.1,0,.3-.2.4-.3l.3-.3c.1-.1.3-.2.4-.4.2-.1.3-.3.4-.4h.1c0-.2.1-.2.2-.3.1-.1.2-.2.3-.3.3-.3.6-.7.9-1.1h0c.3-.5.6-.9.9-1.4,0-.1.2-.3.3-.4,0,0,0-.1.1-.2v-.2c.2-.2.3-.4.5-.5.1-.2.2-.4.3-.5l.2-.4c0-.2.2-.3.3-.5,0-.2.2-.4.3-.6l.2-.4c0-.2.2-.3.2-.5,0-.2.1-.4.2-.5v-.4c.2-.2.3-.4.4-.6,0-.2.1-.3.2-.5v-.4c.2-.2.2-.4.3-.6,0-.2,0-.4.1-.6v-.2c0,0,0-.2,0-.2,0-.2,0-.3,0-.5.2-1,.3-2.1.3-3.1,0-.2,0-.3,0-.4,0,0,0-.1,0-.2v-.2c0-.2,0-.4,0-.6,0-.2,0-.4,0-.6v-.4c0-.2,0-.3-.1-.5,0-.2,0-.4-.1-.5v-.4c-.1-.2-.1-.3-.2-.5,0-.2,0-.3-.1-.5v-.3c-.2-.2-.2-.3-.3-.5,0-.1-.1-.3-.2-.4v-.3c-.2-.2-.3-.3-.3-.5,0-.2-.2-.3-.3-.5h0s.5.7.5.7c.2.3.5.7.7,1.1,0,.1.1.2.2.3,0,0,0,.1,0,.2v.2c.2.2.2.3.3.5,0,.1.1.3.2.5v.4c.2.1.2.3.3.4,0,.2,0,.3.1.5v.4c.1.2.2.3.2.5,0,.2,0,.3,0,.5v.4c0,.2.1.4.1.5,0,.2,0,.3,0,.5v.4c0,.2,0,.4,0,.6,0,.2,0,.4,0,.6v.2c0,0,0,.2,0,.2,0,.1,0,.3,0,.4,0,1-.2,2.1-.4,3.1,0,.2,0,.3-.1.5,0,0,0,.2,0,.2v.2c-.1.2-.2.4-.2.6,0,.2-.1.4-.2.6v.4c-.2.2-.3.3-.3.5,0,.2-.2.4-.2.6l-.2.4c0,.2-.1.4-.2.5,0,.2-.2.3-.3.5l-.2.4c0,.2-.2.4-.3.6,0,.2-.2.3-.3.5l-.2.4c-.1.2-.2.4-.3.5-.1.2-.2.4-.4.5v.2c-.2,0-.2.1-.3.2,0,.1-.2.3-.3.4-.3.4-.6.8-.9,1.1h0c-.3.5-.7.8-1.1,1.2-.1.1-.2.2-.3.3,0,0-.1.1-.2.2h-.2c-.2.3-.3.4-.5.5-.1.1-.3.2-.4.3l-.3.3c-.1,0-.3.2-.4.3-.2.1-.3.2-.5.3l-.3.2c-.1,0-.3.2-.4.3-.1,0-.3.2-.4.2l-.3.2c-.2,0-.3.2-.5.2-.1,0-.3.1-.4.2h-.3c-.2.2-.3.3-.5.3-.2,0-.3,0-.5.1h-.2c0,0-.1,0-.2.1-.1,0-.2,0-.4,0-.4,0-.8.2-1.2.2l-50.2,4.8,49.7-6.8ZM146.1,23.7c.3,0,.6,0,.9,0,2.8.3,5.1,1.7,6.7,4.2l37.9,59.4-41.3-57.7c-1.7-2.4-4.3-3.8-7.1-4-1.5,0-3,.2-4.4.7,2.4-1.7,5-2.6,7.4-2.6ZM105.9,89.5c-4.3,0-7.8-3.5-7.8-7.8s0-.4,0-.6c.2,1.7,1,3.3,2.1,4.6,1.5,1.7,3.6,2.7,5.9,2.8l20.9.9h-1.7c0,0-19.5,0-19.5,0ZM61,120.9c-.2-.3-.4-.7-.6-1.1,0-.1-.1-.2-.2-.4,0,0,0-.1,0-.2v-.2c-.1-.2-.2-.3-.3-.5,0-.2-.1-.3-.2-.5v-.4c-.2-.2-.2-.3-.2-.4,0-.2,0-.3-.1-.5v-.4c-.1-.2-.1-.3-.2-.5,0-.2,0-.3,0-.5v-.4c0-.2,0-.4,0-.6,0-.2,0-.3,0-.5v-.4c0-.2,0-.4,0-.6,0-.2,0-.4,0-.6v-.2c0,0,0-.2,0-.2,0-.1,0-.3,0-.5.1-1.1.3-2.1.6-3.2,0-.2,0-.3.1-.5,0,0,0-.2,0-.2v-.2c.1-.2.2-.4.3-.6,0-.2.1-.4.2-.6l.2-.4c0-.2.1-.4.2-.5,0-.2.2-.4.3-.6l.2-.4c0-.2.2-.4.3-.5,0-.2.2-.3.3-.5l.2-.4c.1-.2.2-.4.3-.6,0-.2.2-.3.3-.5l.3-.4c.1-.2.2-.4.4-.5.1-.2.3-.4.4-.5v-.2c.2,0,.2-.1.3-.2,0-.1.2-.3.3-.4.4-.4.7-.8,1.1-1.2.4-.4.7-.8,1.1-1.1.1-.1.2-.2.3-.3,0,0,.1-.1.2-.2h.2c.2-.3.3-.4.5-.5.2-.1.3-.2.5-.3h.2c0-.2.1-.2.2-.3.1,0,.3-.2.4-.3.2-.1.3-.2.5-.3l.3-.2c.2,0,.3-.2.4-.3.1,0,.3-.1.4-.2l.3-.2c.2,0,.3-.2.5-.2.1,0,.3-.1.4-.2,0,0,.1,0,.2,0h.2c.2-.1.3-.2.5-.2.2,0,.3,0,.5-.1h.2c0,0,.1,0,.2,0,.1,0,.3,0,.4,0,.4,0,.9-.1,1.3-.1l50.3-2.7h.7l-50.6,4.8c-.4,0-.9.1-1.3.2-.1,0-.3,0-.4.1,0,0-.1,0-.2,0h-.2c-.2,0-.4.1-.5.2-.2,0-.3.1-.5.2h-.3c-.1.2-.3.2-.4.3-.2,0-.3.2-.5.2l-.3.2c-.1,0-.3.2-.5.2-.2,0-.3.2-.5.3l-.3.2c-.2,0-.3.2-.5.3-.1,0-.3.2-.4.3,0,0-.1,0-.2.1h-.2c-.2.2-.3.4-.5.5-.2.1-.3.3-.5.4h-.2c0,.2-.1.2-.2.3-.1.1-.2.2-.3.3-.4.4-.7.8-1.1,1.2h0c-.3.4-.7.8-1,1.3-.1.1-.2.3-.3.4,0,0,0,.1-.1.2v.2c-.2.2-.4.4-.5.6-.1.2-.2.4-.3.6l-.2.4c0,.2-.2.3-.3.5-.1.2-.2.4-.3.6l-.2.4c0,.2-.2.4-.3.5,0,.2-.2.4-.2.5l-.2.4c0,.2-.2.4-.2.6,0,.2-.1.4-.2.5v.4c-.2.2-.3.4-.3.6,0,.2-.1.4-.2.6v.2c0,0,0,.2-.1.2,0,.2,0,.3-.1.5-.2,1.1-.4,2.1-.4,3.2,0,.2,0,.3,0,.5,0,0,0,.2,0,.2v.2c0,.2,0,.4,0,.6,0,.2,0,.4,0,.6v.4c0,.2,0,.3,0,.5,0,.2,0,.4,0,.6v.4c0,.2.1.3.1.5,0,.2,0,.3.1.5v.4c.1.2.2.4.2.5,0,.2.1.3.2.5v.3c.2.2.2.3.3.5,0,.2.2.3.2.5v.2c0,0-.5-.9-.5-.9ZM108,188.2c-2.8-.3-5.1-1.7-6.7-4.2l-37.9-59.4,41.3,57.7c1.7,2.4,4.3,3.8,7.1,4,.2,0,.3,0,.5,0,1.3,0,2.6-.2,4-.7-2.7,1.9-5.6,2.8-8.3,2.6ZM149.1,122.4c4.3,0,7.8,3.5,7.8,7.8s0,.4,0,.6c-.6-4-3.9-7.2-8.1-7.4l-20.9-.9h1.7c0,0,19.5,0,19.5,0ZM196,99.1c0,.2,0,.4,0,.6v.2c0,0,0,.2,0,.2,0,.2,0,.3,0,.5-.1,1.1-.3,2.1-.6,3.2,0,.2,0,.3-.1.5,0,0,0,.2,0,.2v.2c-.1.2-.2.4-.3.6,0,.2-.1.4-.2.6l-.2.4c0,.2-.1.4-.2.5,0,.2-.2.4-.3.6l-.2.4c0,.2-.2.4-.3.5,0,.2-.2.3-.3.5l-.2.4c-.1.2-.2.4-.3.6,0,.2-.2.3-.3.5l-.3.4c-.1.2-.2.4-.3.5-.1.2-.3.4-.4.5v.2c-.2,0-.2.1-.3.2,0,.1-.2.3-.3.4-.3.4-.7.8-1,1.2h0c-.4.5-.7.8-1.1,1.2-.1.1-.2.2-.4.3,0,0-.1.1-.2.2h-.2c-.2.3-.3.4-.5.5-.2.1-.3.2-.5.3l-.4.3c-.1.1-.3.2-.4.3-.2.1-.3.2-.5.3l-.3.2c-.2,0-.3.2-.4.3-.1,0-.3.1-.5.2l-.3.2c-.2,0-.3.2-.5.2-.1,0-.3.1-.4.2h-.4c-.2.2-.3.2-.5.3-.2,0-.3,0-.5.1h-.2c0,0-.1,0-.2,0-.1,0-.2,0-.4,0-.4,0-.9.1-1.3.1l-50.3,2.7h-.7l50.6-4.8c.4,0,.9-.1,1.3-.2.1,0,.3,0,.4-.1,0,0,.1,0,.2,0h.2c.2,0,.4-.1.5-.2h0c.2,0,.3-.1.5-.2h.3c.1-.2.3-.2.5-.3.2,0,.3-.2.5-.2l.3-.2c.2,0,.3-.2.5-.2.2,0,.3-.2.4-.3l.3-.2c.2,0,.3-.2.5-.3.1,0,.3-.2.4-.3l.3-.2c.2-.1.3-.2.5-.4.2-.1.3-.3.5-.4h.2c0-.2.1-.2.2-.3.1-.1.2-.2.4-.3.4-.4.7-.8,1.1-1.1h0c.3-.4.7-.8,1-1.3.1-.1.2-.3.3-.4,0,0,0-.1.1-.2v-.2c.2-.2.4-.4.5-.6.1-.2.2-.4.3-.5l.2-.4c0-.2.2-.3.3-.5.1-.2.2-.4.3-.6l.2-.4c0-.2.2-.4.3-.5,0-.2.2-.4.2-.5l.2-.4c0-.2.2-.4.2-.6,0-.2.1-.4.2-.5v-.4c.2-.2.3-.4.3-.6,0-.2.1-.4.2-.6v-.2c0,0,0-.2.1-.2,0-.2,0-.3.1-.5.2-1.1.4-2.1.4-3.2,0-.2,0-.3,0-.5,0,0,0-.2,0-.2v-.2c0-.2,0-.4,0-.6,0-.2,0-.4,0-.6v-.4c0-.2,0-.3,0-.5,0-.2,0-.4,0-.6v-.4c0-.2-.1-.3-.1-.5,0-.2,0-.3-.1-.5v-.4c-.1-.2-.2-.4-.2-.5,0-.2-.1-.3-.2-.5v-.3c-.2-.2-.2-.3-.3-.5,0-.2-.2-.3-.2-.5v-.2c0,0,.5.9.5.9.2.3.4.7.6,1.1,0,.1.1.2.2.4,0,0,0,.1,0,.2v.2c.1.2.2.3.3.5,0,.2.1.3.2.5v.2c0,0,0,.1.1.2,0,.2,0,.3.1.4,0,.2,0,.3.1.5v.4c.1.2.1.3.2.5,0,.2,0,.3,0,.5v.4c0,.2,0,.4,0,.6,0,.2,0,.3,0,.5v.4c0,.2,0,.4,0,.6Z"/>
</svg>