<?xml version="1.0" encoding="UTF-8"?><svg id="uuid-cebecfa5-c410-4a2d-9d8c-03e48d54f595" xmlns="http://www.w3.org/2000/svg" viewBox="0 0 354.24 67.2"><g id="uuid-bb54de22-633a-4a9a-a760-93ed4788dd6d"><path d="M0,65.76v-8.92l25.17-27.24H.94v-8.92h36.17v8.92l-25.18,27.24h26.12v8.92H0Z"/><path d="M95.75,66.7c-4.32,0-8.28-1.03-11.88-3.1-3.6-2.07-6.43-4.9-8.5-8.5-2.07-3.6-3.1-7.56-3.1-11.88s1.03-8.27,3.1-11.84c2.07-3.57,4.85-6.4,8.36-8.5,3.51-2.1,7.36-3.15,11.55-3.15s7.97.96,11.32,2.87c3.35,1.91,5.98,4.54,7.89,7.89,1.91,3.35,2.87,7.12,2.87,11.32,0,.94-.05,1.83-.14,2.68-.09.85-.2,1.52-.33,2.02h-34.76c.31,2.07,1.11,3.96,2.4,5.68,1.28,1.72,2.94,3.09,4.98,4.09,2.03,1,4.27,1.5,6.72,1.5,2.63,0,4.98-.5,7.04-1.5,2.07-1,3.95-2.32,5.64-3.95l6.11,6.01c-1.75,2.19-4.31,4.13-7.66,5.82-3.35,1.69-7.22,2.54-11.6,2.54ZM107.59,38.98c-.44-2.19-1.21-4.09-2.3-5.68-1.1-1.6-2.49-2.85-4.18-3.76-1.69-.91-3.63-1.36-5.82-1.36-2.32,0-4.38.46-6.2,1.36-1.82.91-3.3,2.16-4.46,3.76-1.16,1.6-2.05,3.49-2.68,5.68h25.65Z"/><path d="M154.94,65.76v-8.92l25.17-27.24h-24.24v-8.92h36.17v8.92l-25.18,27.24h26.12v8.92h-38.04Z"/><path d="M222.96,66.7c-4.32,0-8.28-1.03-11.88-3.1-3.6-2.07-6.43-4.9-8.5-8.5-2.07-3.6-3.1-7.56-3.1-11.88s1.03-8.28,3.1-11.88c2.07-3.6,4.9-6.44,8.5-8.5,3.6-2.07,7.56-3.1,11.88-3.1s8.28,1.03,11.88,3.1c3.6,2.07,6.43,4.9,8.5,8.5,2.07,3.6,3.1,7.56,3.1,11.88s-1.03,8.28-3.1,11.88c-2.07,3.6-4.9,6.43-8.5,8.5-3.6,2.07-7.56,3.1-11.88,3.1ZM222.96,57.77c2.63,0,5.03-.63,7.19-1.88,2.16-1.25,3.85-2.99,5.07-5.21,1.22-2.22,1.83-4.71,1.83-7.47s-.61-5.24-1.83-7.47c-1.22-2.22-2.91-3.96-5.07-5.21-2.16-1.25-4.56-1.88-7.19-1.88s-5.03.63-7.19,1.88c-2.16,1.25-3.85,2.99-5.07,5.21-1.22,2.22-1.83,4.71-1.83,7.47s.61,5.25,1.83,7.47c1.22,2.22,2.91,3.96,5.07,5.21,2.16,1.25,4.56,1.88,7.19,1.88Z"/><path d="M62.76,3.71c-.53-.85-1.24-1.52-2.11-2.02-.88-.5-1.79-.75-2.72-.75s-1.85.25-2.72.75c-.88.5-1.58,1.17-2.11,2.02-.53.85-.8,1.8-.8,2.87s.27,2.02.8,2.87c.53.84,1.24,1.52,2.11,2.02.88.5,1.79.75,2.72.75s1.85-.25,2.72-.75c.88-.5,1.58-1.17,2.11-2.02.53-.85.8-1.8.8-2.87s-.27-2.02-.8-2.87Z"/><polygon points="46.59 20.67 46.59 30.06 53.23 30.06 53.23 65.76 62.62 65.76 62.62 20.67 46.59 20.67"/><polygon points="137.19 56.36 137.19 0 121.16 0 121.16 9.39 127.8 9.39 127.8 65.76 143.83 65.76 143.83 56.36 137.19 56.36"/><path d="M351.38,30.48c-1.91-3.35-4.54-5.98-7.89-7.89-3.35-1.91-7.12-2.87-11.32-2.87s-8.05,1.05-11.55,3.15c-3.51,2.1-6.29,4.93-8.36,8.5-2.07,3.57-3.1,7.51-3.1,11.84s1.03,8.28,3.1,11.88c1.17,2.04,2.59,3.82,4.25,5.37.89.83,1.85,1.6,2.88,2.29.07.05.15.09.22.14.23.15.46.29.7.43.15.09.29.19.44.27.16.09.33.16.49.25.15.08.31.16.46.24.59.3,1.19.58,1.79.83.48.2.97.4,1.5.58,2.75.97,6.14,1.7,10.21,1.7h1.99v-8.76h-1.99c-7.43-.26-11.48-3.2-13.66-6.11-.11-.14-.21-.28-.3-.42-.12-.16-.22-.33-.33-.5-.56-.86-1-1.76-1.32-2.7-.03-.08-.06-.17-.09-.25-.07-.21-.14-.42-.2-.63-.23-.81-.29-1.33-.29-1.33h34.76c.12-.5.23-1.17.33-2.02.09-.84.14-1.74.14-2.68,0-4.2-.96-7.97-2.87-11.32ZM318.83,38.98c.63-2.19,1.52-4.09,2.68-5.68,1.16-1.6,2.64-2.85,4.46-3.76,1.82-.91,3.88-1.36,6.2-1.36,2.19,0,4.13.46,5.82,1.36,1.69.91,3.08,2.16,4.18,3.76,1.1,1.6,1.86,3.49,2.3,5.68h-25.65Z"/><path d="M297.94,28.98c-1.54-2.97-3.65-5.26-6.34-6.86-2.69-1.6-5.76-2.4-9.21-2.4-3.07,0-5.87.75-8.41,2.25-2.54,1.5-4.4,3.19-5.59,5.07h-.09v-6.39h-16.07v9.39h6.67v35.7h9.39v-24.42c0-2.44.53-4.63,1.6-6.58,1.06-1.94,2.52-3.44,4.37-4.51,1.85-1.06,3.93-1.6,6.25-1.6,2,0,3.79.44,5.35,1.32,1.56.88,2.79,2.13,3.66,3.76.88,1.63,1.32,3.54,1.32,5.73v26.3h9.39v-26.3c0-4.01-.77-7.5-2.3-10.47Z"/></g></svg>